M48
; DRILL file {KiCad 7.0.5} date Thu Feb 15 09:59:19 2024
; FORMAT={-:-/ absolute / metric / decimal}
; #@! TF.CreationDate,2024-02-15T09:59:19-05:00
; #@! TF.GenerationSoftware,Kicad,Pcbnew,7.0.5
; #@! TF.FileFunction,MixedPlating,1,2
FMAT,2
METRIC
; #@! TA.AperFunction,Plated,PTH,ComponentDrill
T1C0.600
; #@! TA.AperFunction,Plated,PTH,ComponentDrill
T2C0.800
; #@! TA.AperFunction,Plated,PTH,ComponentDrill
T3C0.900
; #@! TA.AperFunction,Plated,PTH,ComponentDrill
T4C1.000
; #@! TA.AperFunction,Plated,PTH,ComponentDrill
T5C1.100
; #@! TA.AperFunction,Plated,PTH,ComponentDrill
T6C2.200
%
G90
G05
T1
X222.504Y-58.377
X222.504Y-60.917
X222.504Y-63.457
X222.504Y-65.998
X222.504Y-68.537
X237.744Y-58.377
X237.744Y-60.917
X237.744Y-63.457
X237.744Y-88.858
X237.744Y-91.397
T2
X220.726Y-48.26
X220.726Y-52.578
X230.886Y-48.26
X230.886Y-52.578
T3
X222.31Y-42.66
X224.85Y-42.66
X229.108Y-42.672
X231.648Y-42.672
T4
X198.37Y-51.303
X198.37Y-53.843
X202.184Y-54.356
X202.184Y-56.896
X202.184Y-59.436
X202.184Y-61.976
X202.184Y-64.516
X202.184Y-67.056
X202.184Y-69.596
X202.184Y-72.136
X202.184Y-74.676
X202.184Y-77.216
X202.184Y-79.756
X202.184Y-82.296
X202.184Y-84.836
X202.184Y-87.376
X202.184Y-89.916
X217.424Y-54.356
X217.424Y-56.896
X217.424Y-59.436
X217.424Y-61.976
X217.424Y-64.516
X217.424Y-67.056
X217.424Y-69.596
X217.424Y-72.136
X217.424Y-74.676
X217.424Y-77.216
X217.424Y-79.756
X217.424Y-82.296
X217.424Y-84.836
X217.424Y-87.376
X217.424Y-89.916
X242.125Y-44.045
X242.125Y-46.585
X242.125Y-49.125
X242.125Y-84.1
X242.125Y-86.64
T5
X217.932Y-39.75
X217.932Y-42.29
X217.932Y-44.83
T6
X197.866Y-39.37
X197.866Y-92.456
X241.808Y-38.862
X241.808Y-92.456
T0
M30
