%TF.GenerationSoftware,KiCad,Pcbnew,7.0.5*%
%TF.CreationDate,2024-02-22T14:35:59-05:00*%
%TF.ProjectId,ControlAcceso,436f6e74-726f-46c4-9163-6365736f2e6b,rev?*%
%TF.SameCoordinates,Original*%
%TF.FileFunction,Legend,Top*%
%TF.FilePolarity,Positive*%
%FSLAX46Y46*%
G04 Gerber Fmt 4.6, Leading zero omitted, Abs format (unit mm)*
G04 Created by KiCad (PCBNEW 7.0.5) date 2024-02-22 14:35:59*
%MOMM*%
%LPD*%
G01*
G04 APERTURE LIST*
%ADD10C,0.100000*%
%ADD11C,0.150000*%
%ADD12C,0.200000*%
%ADD13C,0.300000*%
%ADD14C,0.084675*%
%ADD15C,0.125000*%
%ADD16C,0.120000*%
%ADD17C,0.127000*%
G04 APERTURE END LIST*
D10*
X197790686Y-73065196D02*
X198879764Y-72432054D01*
X197096748Y-75174840D02*
X197141694Y-75140357D01*
X197024998Y-64474863D02*
X196925305Y-64509378D01*
X196880350Y-64607311D01*
X196878037Y-64645876D01*
X197356936Y-64974370D02*
X197249151Y-64954914D01*
X197163206Y-64898297D01*
X197099449Y-64807141D01*
X197063515Y-64706686D01*
X197043429Y-64585587D01*
X197038905Y-64474863D01*
X197173712Y-66886291D02*
X197052150Y-66873409D01*
X196947713Y-66836428D01*
X196861825Y-66777846D01*
X196795909Y-66700159D01*
X196751390Y-66605864D01*
X196729693Y-66497459D01*
X196727723Y-66450706D01*
X197156313Y-75033497D02*
X197144389Y-74947676D01*
X197607692Y-64709800D02*
X197591304Y-64810141D01*
X197538892Y-64896979D01*
X197450135Y-64956869D01*
X197356936Y-64974370D01*
X196746755Y-65899199D02*
X196746755Y-65712483D01*
X197381013Y-71951408D02*
X197649198Y-71951408D01*
X197113144Y-67237028D02*
X197010246Y-67251025D01*
X196925490Y-67309310D01*
X196900538Y-67397950D01*
X196620834Y-70989320D02*
X199430092Y-70989320D01*
X196926539Y-67945841D02*
X196897808Y-68042622D01*
X196893658Y-68106592D01*
X197445222Y-68976157D02*
X197439124Y-68876329D01*
X197417164Y-68773951D01*
X197407127Y-68742829D01*
X196828795Y-75046253D02*
X196838482Y-75122241D01*
X196620856Y-70937662D02*
X196620856Y-71041028D01*
X196872824Y-67598426D02*
X196872824Y-67593214D01*
X195820981Y-73758987D02*
X195838580Y-73643781D01*
X195887805Y-73542269D01*
X195963296Y-73459766D01*
X196059691Y-73401588D01*
X196171632Y-73373049D01*
X196211474Y-73371042D01*
X196900538Y-67397950D02*
X196930524Y-67493362D01*
X197013071Y-67559225D01*
X197024998Y-67563861D01*
X197680929Y-74480069D02*
X197663931Y-74513836D01*
X196928376Y-74349304D02*
X196928376Y-73993636D01*
X197382991Y-73915382D02*
X199076254Y-74888396D01*
X196895408Y-65480928D02*
X196924764Y-65581412D01*
X197003544Y-65654201D01*
X197052719Y-65672692D01*
X199076254Y-74888396D02*
X198882000Y-75095154D01*
X197018124Y-64072013D02*
X196910587Y-64072676D01*
X196804438Y-64075592D01*
X196746755Y-64078835D01*
X196601514Y-69894164D02*
X196601514Y-70226210D01*
X196601743Y-73758987D02*
X196584144Y-73874264D01*
X196534930Y-73975849D01*
X196459467Y-74058417D01*
X196363126Y-74116645D01*
X196251276Y-74145209D01*
X196211474Y-74147219D01*
X197219719Y-75318849D02*
X197144867Y-75390596D01*
X197088636Y-75400231D01*
X196734515Y-73964571D02*
X196845990Y-73964571D01*
X196734515Y-73025066D02*
X197251880Y-73025066D01*
X197087346Y-63853996D02*
X197151268Y-63859209D01*
X199340913Y-74438794D02*
X198330610Y-73840569D01*
X196746755Y-61995790D02*
X196746755Y-61783103D01*
X199068458Y-72631157D02*
X197381013Y-73628568D01*
X197082447Y-75172803D02*
X197096748Y-75174840D01*
X197588745Y-64072013D02*
X197018124Y-64072013D01*
X197026777Y-65892319D02*
X196919623Y-65893372D01*
X196816525Y-65896324D01*
X196746755Y-65899199D01*
X197255005Y-61995790D02*
X196746755Y-61995790D01*
X196857314Y-62937937D02*
X196859122Y-62934380D01*
X197588745Y-61961049D02*
X197462507Y-61971657D01*
X196746755Y-64078835D02*
X196746755Y-63895612D01*
X197094226Y-62943038D02*
X197042346Y-62948199D01*
X196883138Y-75390481D02*
X196792103Y-75344076D01*
X196766680Y-75300562D01*
X197241189Y-62540300D02*
X196746755Y-62540300D01*
X197381013Y-73628568D02*
X197381013Y-71951408D01*
X196766680Y-75300562D02*
X196737917Y-75197984D01*
X196727632Y-75089493D01*
X196726661Y-75037365D01*
X196746755Y-62929108D02*
X196746755Y-62723524D01*
X197251880Y-73853466D02*
X196734515Y-73853466D01*
X196746755Y-62723524D02*
X196849006Y-62727702D01*
X196949790Y-62730106D01*
X196990515Y-62730345D01*
X197081643Y-73247216D02*
X196734515Y-73247216D01*
X197588745Y-69894164D02*
X196601514Y-69894164D01*
X197776870Y-74459435D02*
X197747889Y-74451691D01*
X196734515Y-74580625D02*
X196734515Y-73964571D01*
X197180592Y-61641501D02*
X197073013Y-61631158D01*
X196972163Y-61600350D01*
X196882753Y-61549402D01*
X196809490Y-61478641D01*
X196757085Y-61388394D01*
X196730245Y-61278987D01*
X196727723Y-61229934D01*
X196734515Y-73560577D02*
X197081643Y-73247216D01*
X197038588Y-73993636D02*
X197038588Y-74349304D01*
X197656049Y-74556374D02*
X197656049Y-75573164D01*
X196957212Y-74821121D02*
X196985960Y-74747798D01*
X197175547Y-68582189D02*
X197061882Y-68569720D01*
X196959768Y-68533078D01*
X196872363Y-68473408D01*
X196802824Y-68391855D01*
X196754309Y-68289565D01*
X196729977Y-68167683D01*
X196727723Y-68113702D01*
X197605886Y-69005680D02*
X197593906Y-69125289D01*
X197559149Y-69227329D01*
X197503390Y-69310695D01*
X197411252Y-69384524D01*
X197315531Y-69422907D01*
X197204484Y-69439072D01*
X197180592Y-69439542D01*
X197407127Y-68742829D02*
X197552255Y-68711698D01*
X196878037Y-64645876D02*
X196889863Y-64746457D01*
X196924122Y-64843586D01*
X196940299Y-64872383D01*
X196764067Y-74783685D02*
X196834850Y-74709228D01*
X196879528Y-74701133D01*
X197138914Y-73950182D02*
X197251880Y-73950182D01*
X196842755Y-74950283D02*
X196828795Y-75046253D01*
X197930970Y-65679632D02*
X197930970Y-65892319D01*
X197299950Y-62953470D02*
X197234194Y-62943038D01*
X197078631Y-61067410D02*
X196979363Y-61084600D01*
X196899251Y-61146399D01*
X196872824Y-61242144D01*
X196746755Y-62327672D02*
X197204870Y-62327672D01*
X196982461Y-75335703D02*
X196939178Y-75376896D01*
X196727723Y-63650073D02*
X196732913Y-63600086D01*
X197236028Y-65679632D02*
X197294791Y-65674354D01*
X196734515Y-72396971D02*
X197251880Y-72055116D01*
X197607692Y-65439195D02*
X197592664Y-65540769D01*
X197546356Y-65629634D01*
X197495299Y-65676133D01*
X197251880Y-72313042D02*
X197158578Y-72364977D01*
X196876317Y-65698723D02*
X196799761Y-65629843D01*
X196749692Y-65541066D01*
X196728348Y-65433588D01*
X196727723Y-65409954D01*
X196939178Y-75376896D02*
X196883138Y-75390481D01*
X197180592Y-63560184D02*
X197072769Y-63551368D01*
X196959123Y-63518202D01*
X196868581Y-63465003D01*
X196789863Y-63381620D01*
X196743142Y-63284915D01*
X196727723Y-63183358D01*
X197607692Y-62248039D02*
X197589078Y-62357917D01*
X197527513Y-62451247D01*
X197431662Y-62509910D01*
X197313738Y-62536712D01*
X197241189Y-62540300D01*
X197078631Y-69235515D02*
X197078631Y-68865569D01*
X196423451Y-69346155D02*
X196601514Y-69346155D01*
X197251880Y-72779698D02*
X197251880Y-73011652D01*
X196746755Y-62540300D02*
X196746755Y-62327672D01*
X197045527Y-72427181D02*
X196857514Y-72537998D01*
X196940299Y-64872383D02*
X196802049Y-64913834D01*
X196881565Y-66455809D02*
X196913025Y-66562056D01*
X196993692Y-66629506D01*
X197090077Y-66660100D01*
X197168524Y-66666664D01*
X197168524Y-66666664D02*
X197268606Y-66655370D01*
X197362320Y-66616690D01*
X197432098Y-66544163D01*
X197453821Y-66457470D01*
X197138914Y-74349304D02*
X197138914Y-73950182D01*
X197045527Y-72655120D02*
X197045527Y-72427181D01*
X196727723Y-66450706D02*
X196740269Y-66339551D01*
X196776431Y-66242514D01*
X196847880Y-66147426D01*
X196946317Y-66078792D01*
X197046201Y-66044214D01*
X197159954Y-66032259D01*
X196866660Y-75148728D02*
X196912893Y-75055374D01*
X196921807Y-75007326D01*
X197806996Y-74474915D02*
X197776870Y-74459435D01*
X197234194Y-62943038D02*
X197094226Y-62943038D01*
X196727723Y-63183358D02*
X196742110Y-63083388D01*
X196792784Y-62991091D01*
X196857314Y-62937937D01*
X197700335Y-73062731D02*
X197731694Y-73073104D01*
X197588745Y-61776163D02*
X197588745Y-61961049D01*
X197078631Y-68865569D02*
X196979363Y-68882664D01*
X196899251Y-68944385D01*
X196872824Y-69040133D01*
X197038588Y-74349304D02*
X197138914Y-74349304D01*
X196746755Y-65712483D02*
X196876317Y-65702045D01*
X197588745Y-64248069D02*
X197588745Y-64440180D01*
X198330610Y-73685377D02*
X199340913Y-73081933D01*
X197495299Y-65679632D02*
X197930970Y-65679632D01*
X199430108Y-70937662D02*
X196620856Y-70937662D01*
X196931669Y-63600086D02*
X196926539Y-63663945D01*
X196734515Y-73853466D02*
X196734515Y-73560577D01*
X197092420Y-67574293D02*
X197588745Y-67574293D01*
X197438285Y-68106592D02*
X197427180Y-68006041D01*
X197405349Y-67939020D01*
X196885574Y-74701133D02*
X196885574Y-74917490D01*
X197141694Y-75140357D02*
X197156298Y-75037979D01*
X197156313Y-75033497D01*
X197083878Y-64262000D02*
X197386459Y-64262000D01*
X197605886Y-68148155D02*
X197593782Y-68264312D01*
X197558654Y-68365246D01*
X197502278Y-68449129D01*
X197409075Y-68524709D01*
X197312197Y-68564649D01*
X197199748Y-68581689D01*
X197175547Y-68582189D01*
X197588745Y-64440180D02*
X197495299Y-64455772D01*
X196727723Y-61229934D02*
X196743181Y-61114918D01*
X196796673Y-61009369D01*
X196878395Y-60935735D01*
X196977874Y-60890306D01*
X197084638Y-60869370D01*
X197137480Y-60866927D01*
X196859122Y-62934380D02*
X196746755Y-62929108D01*
X197156428Y-65055494D02*
X197263185Y-65064115D01*
X197376075Y-65096767D01*
X197466345Y-65149620D01*
X197545144Y-65233517D01*
X197592123Y-65332575D01*
X197607692Y-65439195D01*
X197659689Y-73008499D02*
X197674107Y-73038192D01*
X197081009Y-75400231D02*
X197081009Y-75172803D01*
X197930970Y-65892319D02*
X197026777Y-65892319D01*
X197088980Y-67024511D02*
X197588745Y-67024511D01*
X197227257Y-61437408D02*
X197325502Y-61413919D01*
X197405711Y-61338619D01*
X197440323Y-61240374D01*
X197445222Y-61178109D01*
X196732913Y-63600086D02*
X196931669Y-63600086D01*
X197088636Y-75400231D02*
X197081009Y-75400231D01*
X197562718Y-67909609D02*
X197592094Y-68006200D01*
X197604883Y-68109464D01*
X197605886Y-68148155D01*
D11*
X194818000Y-36576000D02*
X244602000Y-36576000D01*
X244602000Y-95250000D01*
X194818000Y-95250000D01*
X194818000Y-36576000D01*
D10*
X197588745Y-67237028D02*
X197113144Y-67237028D01*
X197227257Y-68671966D02*
X197227257Y-69235515D01*
X197588745Y-67024511D02*
X197588745Y-67237028D01*
X198330610Y-73840569D02*
X198307363Y-73822453D01*
X197251880Y-74580625D02*
X196734515Y-74580625D01*
X197588745Y-67786927D02*
X196997395Y-67786927D01*
X197607692Y-66464409D02*
X197595996Y-66571158D01*
X197561723Y-66667248D01*
X197492518Y-66764201D01*
X197412882Y-66826130D01*
X197314583Y-66867661D01*
X197198844Y-66885753D01*
X197173712Y-66886291D01*
X197336297Y-61783103D02*
X197441996Y-61781829D01*
X197548336Y-61778103D01*
X197588745Y-61776163D01*
X197443502Y-65485977D02*
X197418129Y-65385873D01*
X197347261Y-65315255D01*
X197252439Y-65279848D01*
X197165142Y-65271621D01*
X196990515Y-62730345D02*
X197930970Y-62730345D01*
X196727723Y-65409954D02*
X196744768Y-65305309D01*
X196794082Y-65212672D01*
X196872933Y-65137097D01*
X196978586Y-65083637D01*
X197085134Y-65059627D01*
X197156428Y-65055494D01*
X197339708Y-64474863D02*
X197293071Y-64469650D01*
X196895408Y-63129814D02*
X196921270Y-63231464D01*
X197002693Y-63307463D01*
X197099165Y-63338654D01*
X197170301Y-63344167D01*
X196879528Y-74701133D02*
X196885574Y-74701133D01*
X197695405Y-74465968D02*
X197680929Y-74480069D01*
X197177180Y-64469650D02*
X197183084Y-64578928D01*
X197211866Y-64682863D01*
X197290942Y-64756887D01*
X197334491Y-64763344D01*
X196601514Y-69681471D02*
X197588745Y-69681471D01*
X196857514Y-72537998D02*
X197045527Y-72655120D01*
X197407127Y-60944722D02*
X197552255Y-60913539D01*
X197495299Y-64460821D02*
X197564103Y-64539750D01*
X197601278Y-64640600D01*
X197607692Y-64709800D01*
X197440005Y-63135033D02*
X197410380Y-63033095D01*
X197330270Y-62964671D01*
X197299950Y-62953470D01*
X197656049Y-75573164D02*
X197382991Y-75573164D01*
X197251880Y-73328564D02*
X196903462Y-73631774D01*
X196885574Y-74917490D02*
X196883138Y-74917490D01*
X197106322Y-65679632D02*
X197236028Y-65679632D01*
X198294377Y-73796423D02*
X198288043Y-73763061D01*
X197649198Y-71951408D02*
X197649198Y-72976165D01*
X197144389Y-74947676D02*
X197111081Y-74916404D01*
X197320704Y-62007772D02*
X197255005Y-61995790D01*
X197251880Y-73011652D02*
X196734515Y-72653459D01*
X197055701Y-75061159D02*
X197051774Y-75084147D01*
X197607692Y-63207498D02*
X197590806Y-63310679D01*
X197541876Y-63402680D01*
X197463492Y-63478172D01*
X197358241Y-63531825D01*
X197251878Y-63556011D01*
X197180592Y-63560184D01*
X197024998Y-67563861D02*
X197092420Y-67574293D01*
X197405349Y-67939020D02*
X197562718Y-67909609D01*
X197663931Y-74513836D02*
X197656049Y-74556374D01*
X197293071Y-64469650D02*
X197177180Y-64469650D01*
X196620856Y-71041028D02*
X199430108Y-71041028D01*
X196921807Y-75007326D02*
X196928229Y-74964730D01*
X197649198Y-72976165D02*
X197659689Y-73008499D01*
X196893658Y-68106592D02*
X196914694Y-68215745D01*
X196981934Y-68305175D01*
X197071654Y-68351619D01*
X197166776Y-68364230D01*
X198309969Y-73702290D02*
X198330610Y-73685377D01*
X196211474Y-74147219D02*
X196095542Y-74129725D01*
X195993369Y-74080793D01*
X195910315Y-74005747D01*
X195851739Y-73909910D01*
X195823002Y-73798605D01*
X195820981Y-73758987D01*
X197760473Y-73073104D02*
X197790686Y-73065196D01*
X196734515Y-72653459D02*
X196734515Y-72396971D01*
X197334491Y-64763344D02*
X197429752Y-64723965D01*
X197455541Y-64642436D01*
X196926539Y-63663945D02*
X196951887Y-63763103D01*
X197028842Y-63834346D01*
X197087346Y-63853996D01*
X197151268Y-63859209D02*
X197588745Y-63859209D01*
X196211474Y-73371042D02*
X196327301Y-73388519D01*
X196429408Y-73437408D01*
X196512427Y-73512394D01*
X196570987Y-73608160D01*
X196599721Y-73719391D01*
X196601743Y-73758987D01*
X196876317Y-65702045D02*
X196876317Y-65698723D01*
X196765676Y-67907889D02*
X196926539Y-67945841D01*
X197386459Y-64262000D02*
X197490145Y-64259380D01*
X197588745Y-64248069D01*
X197251880Y-72055116D02*
X197251880Y-72313042D01*
X196727723Y-67323653D02*
X196746742Y-67214875D01*
X196808545Y-67118938D01*
X196903316Y-67057107D01*
X197018572Y-67028391D01*
X197088980Y-67024511D01*
X197078631Y-61437408D02*
X197078631Y-61067410D01*
X197165142Y-66251833D02*
X197065399Y-66263282D01*
X196964064Y-66305735D01*
X196896475Y-66383060D01*
X196881565Y-66455809D01*
X197747889Y-74451691D02*
X197713808Y-74455537D01*
X196601514Y-69346155D02*
X196601514Y-69681471D01*
X197588745Y-69681471D02*
X197588745Y-69894164D01*
X196727723Y-69028040D02*
X196743181Y-68913022D01*
X196796673Y-68807472D01*
X196878395Y-68733839D01*
X196977874Y-68688411D01*
X197084638Y-68667475D01*
X197137480Y-68665033D01*
X197251880Y-73950182D02*
X197251880Y-74580625D01*
X197180592Y-69439542D02*
X197073013Y-69429214D01*
X196972163Y-69398440D01*
X196882753Y-69347532D01*
X196809490Y-69276801D01*
X196757085Y-69186560D01*
X196730245Y-69077121D01*
X196727723Y-69028040D01*
X197251880Y-73631774D02*
X197251880Y-73853466D01*
X197667916Y-73768221D02*
X199220786Y-74681638D01*
X196845990Y-73964571D02*
X196845990Y-74349304D01*
X197605886Y-61207462D02*
X197593906Y-61327082D01*
X197559149Y-61429152D01*
X197503390Y-61512557D01*
X197411252Y-61586434D01*
X197315531Y-61624850D01*
X197204484Y-61641031D01*
X197180592Y-61641501D01*
X197227257Y-60873753D02*
X197227257Y-61437408D01*
X196928376Y-73993636D02*
X197038588Y-73993636D01*
X196838482Y-75122241D02*
X196866660Y-75148728D01*
X197382991Y-75573164D02*
X197382991Y-73915382D01*
X197096748Y-74675503D02*
X197187923Y-74721767D01*
X197217999Y-74773311D01*
X196726661Y-75037365D02*
X196731081Y-74930180D01*
X196747702Y-74830497D01*
X196764067Y-74783685D01*
X197588745Y-67574293D02*
X197588745Y-67786927D01*
X197434788Y-62170413D02*
X197402459Y-62069637D01*
X197320704Y-62007772D01*
X197137480Y-68665033D02*
X197227257Y-68671966D01*
X197674107Y-73038192D02*
X197700335Y-73062731D01*
X197158578Y-72723858D02*
X197251880Y-72779698D01*
X197462507Y-61976757D02*
X197540145Y-62045552D01*
X197589711Y-62135672D01*
X197607692Y-62248039D01*
X196905787Y-63881681D02*
X196812396Y-63828038D01*
X196749031Y-63744381D01*
X196727723Y-63650073D01*
X197552255Y-60913539D02*
X197585041Y-61015330D01*
X197601899Y-61120710D01*
X197605886Y-61207462D01*
X197038905Y-64474863D02*
X197024998Y-64474863D01*
X197111081Y-74916404D02*
X197064410Y-75010679D01*
X197059200Y-75039514D01*
X196746755Y-67608805D02*
X196872824Y-67598426D01*
X197165142Y-65271621D02*
X197060234Y-65285097D01*
X196965551Y-65331807D01*
X196903912Y-65421566D01*
X196895408Y-65480928D01*
X199220786Y-74681638D02*
X199340913Y-74438794D01*
X197158578Y-72364977D02*
X197158578Y-72723858D01*
X196746755Y-63895612D02*
X196905787Y-63886900D01*
X197204870Y-62327672D02*
X197310210Y-62316506D01*
X197398946Y-62269525D01*
X197434788Y-62170413D01*
X197217999Y-74773311D02*
X197247143Y-74875749D01*
X197258629Y-74979149D01*
X197260680Y-75055482D01*
X197495299Y-65676133D02*
X197495299Y-65679632D01*
X197051774Y-75084147D02*
X197033433Y-75183275D01*
X197007581Y-75280867D01*
X196982461Y-75335703D01*
X196903462Y-73631774D02*
X197251880Y-73631774D01*
X197137480Y-60866927D02*
X197227257Y-60873753D01*
X197170301Y-63344167D02*
X197277356Y-63330451D01*
X197371662Y-63283324D01*
X197431817Y-63193751D01*
X197440005Y-63135033D01*
X196727723Y-68113702D02*
X196736483Y-68013222D01*
X196763748Y-67912510D01*
X196765676Y-67907889D01*
X196423451Y-70226210D02*
X196423451Y-69346155D01*
X198882000Y-75095154D02*
X197806996Y-74474915D01*
X196845990Y-74349304D02*
X196928376Y-74349304D01*
X196872824Y-61242144D02*
X196903151Y-61343888D01*
X196984012Y-61410762D01*
X197078631Y-61437408D01*
X197713808Y-74455537D02*
X197695405Y-74465968D01*
X197462507Y-61971657D02*
X197462507Y-61976757D01*
X197930970Y-62943038D02*
X197472940Y-62943038D01*
X197059200Y-75039514D02*
X197055701Y-75061159D01*
X197455541Y-64642436D02*
X197427972Y-64545005D01*
X197350980Y-64479177D01*
X197339708Y-64474863D01*
X198307363Y-73822453D02*
X198294377Y-73796423D01*
X196997395Y-67786927D02*
X196894649Y-67788207D01*
X196788516Y-67791883D01*
X196746755Y-67793749D01*
X197081009Y-75172803D02*
X197082447Y-75172803D01*
X199340913Y-73081933D02*
X199211898Y-72833988D01*
X196872824Y-67593214D02*
X196792234Y-67520710D01*
X196744503Y-67430179D01*
X196727723Y-67323653D01*
X196985960Y-74747798D02*
X197033487Y-74694365D01*
X196727723Y-64609532D02*
X196739660Y-64496735D01*
X196782012Y-64394797D01*
X196862200Y-64316249D01*
X196966117Y-64274369D01*
X197066582Y-64262231D01*
X197083878Y-64262000D01*
X197495299Y-64455772D02*
X197495299Y-64460821D01*
X197227257Y-69235515D02*
X197325502Y-69212024D01*
X197405711Y-69136713D01*
X197440323Y-69038444D01*
X197445222Y-68976157D01*
X197052719Y-65672692D02*
X197106322Y-65679632D01*
X196601514Y-70226210D02*
X196423451Y-70226210D01*
X196872824Y-69040133D02*
X196903151Y-69142004D01*
X196984012Y-69208925D01*
X197078631Y-69235515D01*
X197445222Y-61178109D02*
X197439124Y-61078284D01*
X197417164Y-60975903D01*
X197407127Y-60944722D01*
X197260680Y-75055482D02*
X197256670Y-75159376D01*
X197239498Y-75265103D01*
X197219719Y-75318849D01*
X197042346Y-62948199D02*
X196949559Y-62999228D01*
X196900135Y-63087331D01*
X196895408Y-63129814D01*
X197251880Y-73025066D02*
X197251880Y-73328564D01*
X197166776Y-68364230D02*
X197269335Y-68348930D01*
X197358453Y-68298344D01*
X197420180Y-68208134D01*
X197438285Y-68106592D01*
X197159954Y-66032259D02*
X197268017Y-66042038D01*
X197381133Y-66079030D01*
X197470544Y-66138813D01*
X197536997Y-66216318D01*
X197581238Y-66306479D01*
X197604016Y-66404226D01*
X197607692Y-66464409D01*
X196746755Y-67793749D02*
X196746755Y-67608805D01*
X196928229Y-74964730D02*
X196946643Y-74865556D01*
X196957212Y-74821121D01*
X197453821Y-66457470D02*
X197421340Y-66356173D01*
X197342899Y-66290511D01*
X197241199Y-66257849D01*
X197165142Y-66251833D01*
X196746755Y-61783103D02*
X197336297Y-61783103D01*
X198879764Y-72432054D02*
X199068458Y-72631157D01*
X196734515Y-73247216D02*
X196734515Y-73025066D01*
X199211898Y-72833988D02*
X197667916Y-73768221D01*
X197472940Y-62943038D02*
X197472940Y-62946532D01*
X197294791Y-65674354D02*
X197385636Y-65623713D01*
X197437189Y-65535490D01*
X197443502Y-65485977D01*
X197930970Y-62730345D02*
X197930970Y-62943038D01*
X199430108Y-71041028D02*
X199430108Y-70937662D01*
X197033487Y-74694365D02*
X197096748Y-74675503D01*
X197552255Y-68711698D02*
X197585041Y-68813421D01*
X197601899Y-68918871D01*
X197605886Y-69005680D01*
X196802049Y-64913834D02*
X196758835Y-64816329D01*
X196735551Y-64715596D01*
X196727723Y-64609532D01*
X197588745Y-63859209D02*
X197588745Y-64072013D01*
X197731694Y-73073104D02*
X197760473Y-73073104D01*
X196905787Y-63886900D02*
X196905787Y-63881681D01*
X197472940Y-62946532D02*
X197551237Y-63018794D01*
X197595551Y-63112221D01*
X197607692Y-63207498D01*
X198294377Y-73725455D02*
X198309969Y-73702290D01*
X198288043Y-73763061D02*
X198294377Y-73725455D01*
X196883138Y-74917490D02*
X196842755Y-74950283D01*
D12*
X241119600Y-74607945D02*
X241167219Y-74465088D01*
X241167219Y-74465088D02*
X241167219Y-74226993D01*
X241167219Y-74226993D02*
X241119600Y-74131755D01*
X241119600Y-74131755D02*
X241071980Y-74084136D01*
X241071980Y-74084136D02*
X240976742Y-74036517D01*
X240976742Y-74036517D02*
X240881504Y-74036517D01*
X240881504Y-74036517D02*
X240786266Y-74084136D01*
X240786266Y-74084136D02*
X240738647Y-74131755D01*
X240738647Y-74131755D02*
X240691028Y-74226993D01*
X240691028Y-74226993D02*
X240643409Y-74417469D01*
X240643409Y-74417469D02*
X240595790Y-74512707D01*
X240595790Y-74512707D02*
X240548171Y-74560326D01*
X240548171Y-74560326D02*
X240452933Y-74607945D01*
X240452933Y-74607945D02*
X240357695Y-74607945D01*
X240357695Y-74607945D02*
X240262457Y-74560326D01*
X240262457Y-74560326D02*
X240214838Y-74512707D01*
X240214838Y-74512707D02*
X240167219Y-74417469D01*
X240167219Y-74417469D02*
X240167219Y-74179374D01*
X240167219Y-74179374D02*
X240214838Y-74036517D01*
X241167219Y-73607945D02*
X240500552Y-73607945D01*
X240167219Y-73607945D02*
X240214838Y-73655564D01*
X240214838Y-73655564D02*
X240262457Y-73607945D01*
X240262457Y-73607945D02*
X240214838Y-73560326D01*
X240214838Y-73560326D02*
X240167219Y-73607945D01*
X240167219Y-73607945D02*
X240262457Y-73607945D01*
X241119600Y-73179374D02*
X241167219Y-73084136D01*
X241167219Y-73084136D02*
X241167219Y-72893660D01*
X241167219Y-72893660D02*
X241119600Y-72798422D01*
X241119600Y-72798422D02*
X241024361Y-72750803D01*
X241024361Y-72750803D02*
X240976742Y-72750803D01*
X240976742Y-72750803D02*
X240881504Y-72798422D01*
X240881504Y-72798422D02*
X240833885Y-72893660D01*
X240833885Y-72893660D02*
X240833885Y-73036517D01*
X240833885Y-73036517D02*
X240786266Y-73131755D01*
X240786266Y-73131755D02*
X240691028Y-73179374D01*
X240691028Y-73179374D02*
X240643409Y-73179374D01*
X240643409Y-73179374D02*
X240548171Y-73131755D01*
X240548171Y-73131755D02*
X240500552Y-73036517D01*
X240500552Y-73036517D02*
X240500552Y-72893660D01*
X240500552Y-72893660D02*
X240548171Y-72798422D01*
X240500552Y-72465088D02*
X240500552Y-72084136D01*
X240167219Y-72322231D02*
X241024361Y-72322231D01*
X241024361Y-72322231D02*
X241119600Y-72274612D01*
X241119600Y-72274612D02*
X241167219Y-72179374D01*
X241167219Y-72179374D02*
X241167219Y-72084136D01*
X241119600Y-71369850D02*
X241167219Y-71465088D01*
X241167219Y-71465088D02*
X241167219Y-71655564D01*
X241167219Y-71655564D02*
X241119600Y-71750802D01*
X241119600Y-71750802D02*
X241024361Y-71798421D01*
X241024361Y-71798421D02*
X240643409Y-71798421D01*
X240643409Y-71798421D02*
X240548171Y-71750802D01*
X240548171Y-71750802D02*
X240500552Y-71655564D01*
X240500552Y-71655564D02*
X240500552Y-71465088D01*
X240500552Y-71465088D02*
X240548171Y-71369850D01*
X240548171Y-71369850D02*
X240643409Y-71322231D01*
X240643409Y-71322231D02*
X240738647Y-71322231D01*
X240738647Y-71322231D02*
X240833885Y-71798421D01*
X241167219Y-70893659D02*
X240500552Y-70893659D01*
X240595790Y-70893659D02*
X240548171Y-70846040D01*
X240548171Y-70846040D02*
X240500552Y-70750802D01*
X240500552Y-70750802D02*
X240500552Y-70607945D01*
X240500552Y-70607945D02*
X240548171Y-70512707D01*
X240548171Y-70512707D02*
X240643409Y-70465088D01*
X240643409Y-70465088D02*
X241167219Y-70465088D01*
X240643409Y-70465088D02*
X240548171Y-70417469D01*
X240548171Y-70417469D02*
X240500552Y-70322231D01*
X240500552Y-70322231D02*
X240500552Y-70179374D01*
X240500552Y-70179374D02*
X240548171Y-70084135D01*
X240548171Y-70084135D02*
X240643409Y-70036516D01*
X240643409Y-70036516D02*
X241167219Y-70036516D01*
X241167219Y-69131755D02*
X240643409Y-69131755D01*
X240643409Y-69131755D02*
X240548171Y-69179374D01*
X240548171Y-69179374D02*
X240500552Y-69274612D01*
X240500552Y-69274612D02*
X240500552Y-69465088D01*
X240500552Y-69465088D02*
X240548171Y-69560326D01*
X241119600Y-69131755D02*
X241167219Y-69226993D01*
X241167219Y-69226993D02*
X241167219Y-69465088D01*
X241167219Y-69465088D02*
X241119600Y-69560326D01*
X241119600Y-69560326D02*
X241024361Y-69607945D01*
X241024361Y-69607945D02*
X240929123Y-69607945D01*
X240929123Y-69607945D02*
X240833885Y-69560326D01*
X240833885Y-69560326D02*
X240786266Y-69465088D01*
X240786266Y-69465088D02*
X240786266Y-69226993D01*
X240786266Y-69226993D02*
X240738647Y-69131755D01*
X241071980Y-67322231D02*
X241119600Y-67369850D01*
X241119600Y-67369850D02*
X241167219Y-67512707D01*
X241167219Y-67512707D02*
X241167219Y-67607945D01*
X241167219Y-67607945D02*
X241119600Y-67750802D01*
X241119600Y-67750802D02*
X241024361Y-67846040D01*
X241024361Y-67846040D02*
X240929123Y-67893659D01*
X240929123Y-67893659D02*
X240738647Y-67941278D01*
X240738647Y-67941278D02*
X240595790Y-67941278D01*
X240595790Y-67941278D02*
X240405314Y-67893659D01*
X240405314Y-67893659D02*
X240310076Y-67846040D01*
X240310076Y-67846040D02*
X240214838Y-67750802D01*
X240214838Y-67750802D02*
X240167219Y-67607945D01*
X240167219Y-67607945D02*
X240167219Y-67512707D01*
X240167219Y-67512707D02*
X240214838Y-67369850D01*
X240214838Y-67369850D02*
X240262457Y-67322231D01*
X241167219Y-66750802D02*
X241119600Y-66846040D01*
X241119600Y-66846040D02*
X241071980Y-66893659D01*
X241071980Y-66893659D02*
X240976742Y-66941278D01*
X240976742Y-66941278D02*
X240691028Y-66941278D01*
X240691028Y-66941278D02*
X240595790Y-66893659D01*
X240595790Y-66893659D02*
X240548171Y-66846040D01*
X240548171Y-66846040D02*
X240500552Y-66750802D01*
X240500552Y-66750802D02*
X240500552Y-66607945D01*
X240500552Y-66607945D02*
X240548171Y-66512707D01*
X240548171Y-66512707D02*
X240595790Y-66465088D01*
X240595790Y-66465088D02*
X240691028Y-66417469D01*
X240691028Y-66417469D02*
X240976742Y-66417469D01*
X240976742Y-66417469D02*
X241071980Y-66465088D01*
X241071980Y-66465088D02*
X241119600Y-66512707D01*
X241119600Y-66512707D02*
X241167219Y-66607945D01*
X241167219Y-66607945D02*
X241167219Y-66750802D01*
X240500552Y-65988897D02*
X241167219Y-65988897D01*
X240595790Y-65988897D02*
X240548171Y-65941278D01*
X240548171Y-65941278D02*
X240500552Y-65846040D01*
X240500552Y-65846040D02*
X240500552Y-65703183D01*
X240500552Y-65703183D02*
X240548171Y-65607945D01*
X240548171Y-65607945D02*
X240643409Y-65560326D01*
X240643409Y-65560326D02*
X241167219Y-65560326D01*
X240500552Y-65226992D02*
X240500552Y-64846040D01*
X240167219Y-65084135D02*
X241024361Y-65084135D01*
X241024361Y-65084135D02*
X241119600Y-65036516D01*
X241119600Y-65036516D02*
X241167219Y-64941278D01*
X241167219Y-64941278D02*
X241167219Y-64846040D01*
X241167219Y-64512706D02*
X240500552Y-64512706D01*
X240691028Y-64512706D02*
X240595790Y-64465087D01*
X240595790Y-64465087D02*
X240548171Y-64417468D01*
X240548171Y-64417468D02*
X240500552Y-64322230D01*
X240500552Y-64322230D02*
X240500552Y-64226992D01*
X241167219Y-63750801D02*
X241119600Y-63846039D01*
X241119600Y-63846039D02*
X241071980Y-63893658D01*
X241071980Y-63893658D02*
X240976742Y-63941277D01*
X240976742Y-63941277D02*
X240691028Y-63941277D01*
X240691028Y-63941277D02*
X240595790Y-63893658D01*
X240595790Y-63893658D02*
X240548171Y-63846039D01*
X240548171Y-63846039D02*
X240500552Y-63750801D01*
X240500552Y-63750801D02*
X240500552Y-63607944D01*
X240500552Y-63607944D02*
X240548171Y-63512706D01*
X240548171Y-63512706D02*
X240595790Y-63465087D01*
X240595790Y-63465087D02*
X240691028Y-63417468D01*
X240691028Y-63417468D02*
X240976742Y-63417468D01*
X240976742Y-63417468D02*
X241071980Y-63465087D01*
X241071980Y-63465087D02*
X241119600Y-63512706D01*
X241119600Y-63512706D02*
X241167219Y-63607944D01*
X241167219Y-63607944D02*
X241167219Y-63750801D01*
X241167219Y-62846039D02*
X241119600Y-62941277D01*
X241119600Y-62941277D02*
X241024361Y-62988896D01*
X241024361Y-62988896D02*
X240167219Y-62988896D01*
X241167219Y-61274610D02*
X240167219Y-61274610D01*
X241119600Y-61274610D02*
X241167219Y-61369848D01*
X241167219Y-61369848D02*
X241167219Y-61560324D01*
X241167219Y-61560324D02*
X241119600Y-61655562D01*
X241119600Y-61655562D02*
X241071980Y-61703181D01*
X241071980Y-61703181D02*
X240976742Y-61750800D01*
X240976742Y-61750800D02*
X240691028Y-61750800D01*
X240691028Y-61750800D02*
X240595790Y-61703181D01*
X240595790Y-61703181D02*
X240548171Y-61655562D01*
X240548171Y-61655562D02*
X240500552Y-61560324D01*
X240500552Y-61560324D02*
X240500552Y-61369848D01*
X240500552Y-61369848D02*
X240548171Y-61274610D01*
X241119600Y-60417467D02*
X241167219Y-60512705D01*
X241167219Y-60512705D02*
X241167219Y-60703181D01*
X241167219Y-60703181D02*
X241119600Y-60798419D01*
X241119600Y-60798419D02*
X241024361Y-60846038D01*
X241024361Y-60846038D02*
X240643409Y-60846038D01*
X240643409Y-60846038D02*
X240548171Y-60798419D01*
X240548171Y-60798419D02*
X240500552Y-60703181D01*
X240500552Y-60703181D02*
X240500552Y-60512705D01*
X240500552Y-60512705D02*
X240548171Y-60417467D01*
X240548171Y-60417467D02*
X240643409Y-60369848D01*
X240643409Y-60369848D02*
X240738647Y-60369848D01*
X240738647Y-60369848D02*
X240833885Y-60846038D01*
X240881504Y-59226990D02*
X240881504Y-58750800D01*
X241167219Y-59322228D02*
X240167219Y-58988895D01*
X240167219Y-58988895D02*
X241167219Y-58655562D01*
X241119600Y-57893657D02*
X241167219Y-57988895D01*
X241167219Y-57988895D02*
X241167219Y-58179371D01*
X241167219Y-58179371D02*
X241119600Y-58274609D01*
X241119600Y-58274609D02*
X241071980Y-58322228D01*
X241071980Y-58322228D02*
X240976742Y-58369847D01*
X240976742Y-58369847D02*
X240691028Y-58369847D01*
X240691028Y-58369847D02*
X240595790Y-58322228D01*
X240595790Y-58322228D02*
X240548171Y-58274609D01*
X240548171Y-58274609D02*
X240500552Y-58179371D01*
X240500552Y-58179371D02*
X240500552Y-57988895D01*
X240500552Y-57988895D02*
X240548171Y-57893657D01*
X241119600Y-57036514D02*
X241167219Y-57131752D01*
X241167219Y-57131752D02*
X241167219Y-57322228D01*
X241167219Y-57322228D02*
X241119600Y-57417466D01*
X241119600Y-57417466D02*
X241071980Y-57465085D01*
X241071980Y-57465085D02*
X240976742Y-57512704D01*
X240976742Y-57512704D02*
X240691028Y-57512704D01*
X240691028Y-57512704D02*
X240595790Y-57465085D01*
X240595790Y-57465085D02*
X240548171Y-57417466D01*
X240548171Y-57417466D02*
X240500552Y-57322228D01*
X240500552Y-57322228D02*
X240500552Y-57131752D01*
X240500552Y-57131752D02*
X240548171Y-57036514D01*
X241119600Y-56226990D02*
X241167219Y-56322228D01*
X241167219Y-56322228D02*
X241167219Y-56512704D01*
X241167219Y-56512704D02*
X241119600Y-56607942D01*
X241119600Y-56607942D02*
X241024361Y-56655561D01*
X241024361Y-56655561D02*
X240643409Y-56655561D01*
X240643409Y-56655561D02*
X240548171Y-56607942D01*
X240548171Y-56607942D02*
X240500552Y-56512704D01*
X240500552Y-56512704D02*
X240500552Y-56322228D01*
X240500552Y-56322228D02*
X240548171Y-56226990D01*
X240548171Y-56226990D02*
X240643409Y-56179371D01*
X240643409Y-56179371D02*
X240738647Y-56179371D01*
X240738647Y-56179371D02*
X240833885Y-56655561D01*
X241119600Y-55798418D02*
X241167219Y-55703180D01*
X241167219Y-55703180D02*
X241167219Y-55512704D01*
X241167219Y-55512704D02*
X241119600Y-55417466D01*
X241119600Y-55417466D02*
X241024361Y-55369847D01*
X241024361Y-55369847D02*
X240976742Y-55369847D01*
X240976742Y-55369847D02*
X240881504Y-55417466D01*
X240881504Y-55417466D02*
X240833885Y-55512704D01*
X240833885Y-55512704D02*
X240833885Y-55655561D01*
X240833885Y-55655561D02*
X240786266Y-55750799D01*
X240786266Y-55750799D02*
X240691028Y-55798418D01*
X240691028Y-55798418D02*
X240643409Y-55798418D01*
X240643409Y-55798418D02*
X240548171Y-55750799D01*
X240548171Y-55750799D02*
X240500552Y-55655561D01*
X240500552Y-55655561D02*
X240500552Y-55512704D01*
X240500552Y-55512704D02*
X240548171Y-55417466D01*
X241167219Y-54798418D02*
X241119600Y-54893656D01*
X241119600Y-54893656D02*
X241071980Y-54941275D01*
X241071980Y-54941275D02*
X240976742Y-54988894D01*
X240976742Y-54988894D02*
X240691028Y-54988894D01*
X240691028Y-54988894D02*
X240595790Y-54941275D01*
X240595790Y-54941275D02*
X240548171Y-54893656D01*
X240548171Y-54893656D02*
X240500552Y-54798418D01*
X240500552Y-54798418D02*
X240500552Y-54655561D01*
X240500552Y-54655561D02*
X240548171Y-54560323D01*
X240548171Y-54560323D02*
X240595790Y-54512704D01*
X240595790Y-54512704D02*
X240691028Y-54465085D01*
X240691028Y-54465085D02*
X240976742Y-54465085D01*
X240976742Y-54465085D02*
X241071980Y-54512704D01*
X241071980Y-54512704D02*
X241119600Y-54560323D01*
X241119600Y-54560323D02*
X241167219Y-54655561D01*
X241167219Y-54655561D02*
X241167219Y-54798418D01*
D13*
X198865489Y-48489400D02*
X197722632Y-48489400D01*
X198294060Y-49060828D02*
X198294060Y-47917971D01*
D14*
X198580711Y-65779985D02*
X199032316Y-65779985D01*
X198645226Y-65779985D02*
X198612969Y-65750953D01*
X198612969Y-65750953D02*
X198580711Y-65692890D01*
X198580711Y-65692890D02*
X198580711Y-65605795D01*
X198580711Y-65605795D02*
X198612969Y-65547731D01*
X198612969Y-65547731D02*
X198677484Y-65518700D01*
X198677484Y-65518700D02*
X199032316Y-65518700D01*
X199032316Y-65141287D02*
X199000059Y-65199350D01*
X199000059Y-65199350D02*
X198967801Y-65228382D01*
X198967801Y-65228382D02*
X198903286Y-65257414D01*
X198903286Y-65257414D02*
X198709741Y-65257414D01*
X198709741Y-65257414D02*
X198645226Y-65228382D01*
X198645226Y-65228382D02*
X198612969Y-65199350D01*
X198612969Y-65199350D02*
X198580711Y-65141287D01*
X198580711Y-65141287D02*
X198580711Y-65054192D01*
X198580711Y-65054192D02*
X198612969Y-64996128D01*
X198612969Y-64996128D02*
X198645226Y-64967097D01*
X198645226Y-64967097D02*
X198709741Y-64938065D01*
X198709741Y-64938065D02*
X198903286Y-64938065D01*
X198903286Y-64938065D02*
X198967801Y-64967097D01*
X198967801Y-64967097D02*
X199000059Y-64996128D01*
X199000059Y-64996128D02*
X199032316Y-65054192D01*
X199032316Y-65054192D02*
X199032316Y-65141287D01*
X199032316Y-64415494D02*
X198354909Y-64415494D01*
X199000059Y-64415494D02*
X199032316Y-64473557D01*
X199032316Y-64473557D02*
X199032316Y-64589684D01*
X199032316Y-64589684D02*
X199000059Y-64647747D01*
X199000059Y-64647747D02*
X198967801Y-64676779D01*
X198967801Y-64676779D02*
X198903286Y-64705811D01*
X198903286Y-64705811D02*
X198709741Y-64705811D01*
X198709741Y-64705811D02*
X198645226Y-64676779D01*
X198645226Y-64676779D02*
X198612969Y-64647747D01*
X198612969Y-64647747D02*
X198580711Y-64589684D01*
X198580711Y-64589684D02*
X198580711Y-64473557D01*
X198580711Y-64473557D02*
X198612969Y-64415494D01*
X199032316Y-64038081D02*
X199000059Y-64096144D01*
X199000059Y-64096144D02*
X198967801Y-64125176D01*
X198967801Y-64125176D02*
X198903286Y-64154208D01*
X198903286Y-64154208D02*
X198709741Y-64154208D01*
X198709741Y-64154208D02*
X198645226Y-64125176D01*
X198645226Y-64125176D02*
X198612969Y-64096144D01*
X198612969Y-64096144D02*
X198580711Y-64038081D01*
X198580711Y-64038081D02*
X198580711Y-63950986D01*
X198580711Y-63950986D02*
X198612969Y-63892922D01*
X198612969Y-63892922D02*
X198645226Y-63863891D01*
X198645226Y-63863891D02*
X198709741Y-63834859D01*
X198709741Y-63834859D02*
X198903286Y-63834859D01*
X198903286Y-63834859D02*
X198967801Y-63863891D01*
X198967801Y-63863891D02*
X199000059Y-63892922D01*
X199000059Y-63892922D02*
X199032316Y-63950986D01*
X199032316Y-63950986D02*
X199032316Y-64038081D01*
X199032316Y-63109066D02*
X198354909Y-63109066D01*
X198354909Y-63109066D02*
X198354909Y-62876812D01*
X198354909Y-62876812D02*
X198387166Y-62818749D01*
X198387166Y-62818749D02*
X198419424Y-62789717D01*
X198419424Y-62789717D02*
X198483939Y-62760685D01*
X198483939Y-62760685D02*
X198580711Y-62760685D01*
X198580711Y-62760685D02*
X198645226Y-62789717D01*
X198645226Y-62789717D02*
X198677484Y-62818749D01*
X198677484Y-62818749D02*
X198709741Y-62876812D01*
X198709741Y-62876812D02*
X198709741Y-63109066D01*
X199032316Y-62499400D02*
X198580711Y-62499400D01*
X198354909Y-62499400D02*
X198387166Y-62528432D01*
X198387166Y-62528432D02*
X198419424Y-62499400D01*
X198419424Y-62499400D02*
X198387166Y-62470368D01*
X198387166Y-62470368D02*
X198354909Y-62499400D01*
X198354909Y-62499400D02*
X198419424Y-62499400D01*
X198580711Y-62296178D02*
X198580711Y-62063924D01*
X198354909Y-62209083D02*
X198935544Y-62209083D01*
X198935544Y-62209083D02*
X199000059Y-62180051D01*
X199000059Y-62180051D02*
X199032316Y-62121988D01*
X199032316Y-62121988D02*
X199032316Y-62063924D01*
X199032316Y-61599417D02*
X198677484Y-61599417D01*
X198677484Y-61599417D02*
X198612969Y-61628448D01*
X198612969Y-61628448D02*
X198580711Y-61686512D01*
X198580711Y-61686512D02*
X198580711Y-61802639D01*
X198580711Y-61802639D02*
X198612969Y-61860702D01*
X199000059Y-61599417D02*
X199032316Y-61657480D01*
X199032316Y-61657480D02*
X199032316Y-61802639D01*
X199032316Y-61802639D02*
X199000059Y-61860702D01*
X199000059Y-61860702D02*
X198935544Y-61889734D01*
X198935544Y-61889734D02*
X198871029Y-61889734D01*
X198871029Y-61889734D02*
X198806514Y-61860702D01*
X198806514Y-61860702D02*
X198774256Y-61802639D01*
X198774256Y-61802639D02*
X198774256Y-61657480D01*
X198774256Y-61657480D02*
X198741999Y-61599417D01*
X199032316Y-61222004D02*
X199000059Y-61280067D01*
X199000059Y-61280067D02*
X198935544Y-61309099D01*
X198935544Y-61309099D02*
X198354909Y-61309099D01*
X199032316Y-60989750D02*
X198580711Y-60989750D01*
X198354909Y-60989750D02*
X198387166Y-61018782D01*
X198387166Y-61018782D02*
X198419424Y-60989750D01*
X198419424Y-60989750D02*
X198387166Y-60960718D01*
X198387166Y-60960718D02*
X198354909Y-60989750D01*
X198354909Y-60989750D02*
X198419424Y-60989750D01*
X198580711Y-60786528D02*
X198580711Y-60554274D01*
X198354909Y-60699433D02*
X198935544Y-60699433D01*
X198935544Y-60699433D02*
X199000059Y-60670401D01*
X199000059Y-60670401D02*
X199032316Y-60612338D01*
X199032316Y-60612338D02*
X199032316Y-60554274D01*
X199032316Y-60263957D02*
X199000059Y-60322020D01*
X199000059Y-60322020D02*
X198967801Y-60351052D01*
X198967801Y-60351052D02*
X198903286Y-60380084D01*
X198903286Y-60380084D02*
X198709741Y-60380084D01*
X198709741Y-60380084D02*
X198645226Y-60351052D01*
X198645226Y-60351052D02*
X198612969Y-60322020D01*
X198612969Y-60322020D02*
X198580711Y-60263957D01*
X198580711Y-60263957D02*
X198580711Y-60176862D01*
X198580711Y-60176862D02*
X198612969Y-60118798D01*
X198612969Y-60118798D02*
X198645226Y-60089767D01*
X198645226Y-60089767D02*
X198709741Y-60060735D01*
X198709741Y-60060735D02*
X198903286Y-60060735D01*
X198903286Y-60060735D02*
X198967801Y-60089767D01*
X198967801Y-60089767D02*
X199000059Y-60118798D01*
X199000059Y-60118798D02*
X199032316Y-60176862D01*
X199032316Y-60176862D02*
X199032316Y-60263957D01*
D11*
X242464533Y-74641073D02*
X242464533Y-74974406D01*
X242464533Y-74974406D02*
X241764533Y-74974406D01*
X242464533Y-74407739D02*
X241997866Y-74407739D01*
X241764533Y-74407739D02*
X241797866Y-74441072D01*
X241797866Y-74441072D02*
X241831200Y-74407739D01*
X241831200Y-74407739D02*
X241797866Y-74374406D01*
X241797866Y-74374406D02*
X241764533Y-74407739D01*
X241764533Y-74407739D02*
X241831200Y-74407739D01*
X241997866Y-74074406D02*
X242464533Y-74074406D01*
X242064533Y-74074406D02*
X242031200Y-74041073D01*
X242031200Y-74041073D02*
X241997866Y-73974406D01*
X241997866Y-73974406D02*
X241997866Y-73874406D01*
X241997866Y-73874406D02*
X242031200Y-73807739D01*
X242031200Y-73807739D02*
X242097866Y-73774406D01*
X242097866Y-73774406D02*
X242464533Y-73774406D01*
X242431200Y-73174406D02*
X242464533Y-73241073D01*
X242464533Y-73241073D02*
X242464533Y-73374406D01*
X242464533Y-73374406D02*
X242431200Y-73441073D01*
X242431200Y-73441073D02*
X242364533Y-73474406D01*
X242364533Y-73474406D02*
X242097866Y-73474406D01*
X242097866Y-73474406D02*
X242031200Y-73441073D01*
X242031200Y-73441073D02*
X241997866Y-73374406D01*
X241997866Y-73374406D02*
X241997866Y-73241073D01*
X241997866Y-73241073D02*
X242031200Y-73174406D01*
X242031200Y-73174406D02*
X242097866Y-73141073D01*
X242097866Y-73141073D02*
X242164533Y-73141073D01*
X242164533Y-73141073D02*
X242231200Y-73474406D01*
X242464533Y-72541073D02*
X242097866Y-72541073D01*
X242097866Y-72541073D02*
X242031200Y-72574406D01*
X242031200Y-72574406D02*
X241997866Y-72641073D01*
X241997866Y-72641073D02*
X241997866Y-72774406D01*
X241997866Y-72774406D02*
X242031200Y-72841073D01*
X242431200Y-72541073D02*
X242464533Y-72607740D01*
X242464533Y-72607740D02*
X242464533Y-72774406D01*
X242464533Y-72774406D02*
X242431200Y-72841073D01*
X242431200Y-72841073D02*
X242364533Y-72874406D01*
X242364533Y-72874406D02*
X242297866Y-72874406D01*
X242297866Y-72874406D02*
X242231200Y-72841073D01*
X242231200Y-72841073D02*
X242197866Y-72774406D01*
X242197866Y-72774406D02*
X242197866Y-72607740D01*
X242197866Y-72607740D02*
X242164533Y-72541073D01*
X242097866Y-71674407D02*
X242097866Y-71441074D01*
X242464533Y-71341074D02*
X242464533Y-71674407D01*
X242464533Y-71674407D02*
X241764533Y-71674407D01*
X241764533Y-71674407D02*
X241764533Y-71341074D01*
X242464533Y-70941074D02*
X242431200Y-71007741D01*
X242431200Y-71007741D02*
X242364533Y-71041074D01*
X242364533Y-71041074D02*
X241764533Y-71041074D01*
X242431200Y-70407740D02*
X242464533Y-70474407D01*
X242464533Y-70474407D02*
X242464533Y-70607740D01*
X242464533Y-70607740D02*
X242431200Y-70674407D01*
X242431200Y-70674407D02*
X242364533Y-70707740D01*
X242364533Y-70707740D02*
X242097866Y-70707740D01*
X242097866Y-70707740D02*
X242031200Y-70674407D01*
X242031200Y-70674407D02*
X241997866Y-70607740D01*
X241997866Y-70607740D02*
X241997866Y-70474407D01*
X241997866Y-70474407D02*
X242031200Y-70407740D01*
X242031200Y-70407740D02*
X242097866Y-70374407D01*
X242097866Y-70374407D02*
X242164533Y-70374407D01*
X242164533Y-70374407D02*
X242231200Y-70707740D01*
X242431200Y-69774407D02*
X242464533Y-69841074D01*
X242464533Y-69841074D02*
X242464533Y-69974407D01*
X242464533Y-69974407D02*
X242431200Y-70041074D01*
X242431200Y-70041074D02*
X242397866Y-70074407D01*
X242397866Y-70074407D02*
X242331200Y-70107740D01*
X242331200Y-70107740D02*
X242131200Y-70107740D01*
X242131200Y-70107740D02*
X242064533Y-70074407D01*
X242064533Y-70074407D02*
X242031200Y-70041074D01*
X242031200Y-70041074D02*
X241997866Y-69974407D01*
X241997866Y-69974407D02*
X241997866Y-69841074D01*
X241997866Y-69841074D02*
X242031200Y-69774407D01*
X241997866Y-69574407D02*
X241997866Y-69307740D01*
X241764533Y-69474407D02*
X242364533Y-69474407D01*
X242364533Y-69474407D02*
X242431200Y-69441074D01*
X242431200Y-69441074D02*
X242464533Y-69374407D01*
X242464533Y-69374407D02*
X242464533Y-69307740D01*
X242464533Y-69074407D02*
X241997866Y-69074407D01*
X242131200Y-69074407D02*
X242064533Y-69041074D01*
X242064533Y-69041074D02*
X242031200Y-69007740D01*
X242031200Y-69007740D02*
X241997866Y-68941074D01*
X241997866Y-68941074D02*
X241997866Y-68874407D01*
X242464533Y-68541074D02*
X242431200Y-68607741D01*
X242431200Y-68607741D02*
X242397866Y-68641074D01*
X242397866Y-68641074D02*
X242331200Y-68674407D01*
X242331200Y-68674407D02*
X242131200Y-68674407D01*
X242131200Y-68674407D02*
X242064533Y-68641074D01*
X242064533Y-68641074D02*
X242031200Y-68607741D01*
X242031200Y-68607741D02*
X241997866Y-68541074D01*
X241997866Y-68541074D02*
X241997866Y-68441074D01*
X241997866Y-68441074D02*
X242031200Y-68374407D01*
X242031200Y-68374407D02*
X242064533Y-68341074D01*
X242064533Y-68341074D02*
X242131200Y-68307741D01*
X242131200Y-68307741D02*
X242331200Y-68307741D01*
X242331200Y-68307741D02*
X242397866Y-68341074D01*
X242397866Y-68341074D02*
X242431200Y-68374407D01*
X242431200Y-68374407D02*
X242464533Y-68441074D01*
X242464533Y-68441074D02*
X242464533Y-68541074D01*
X241731200Y-68407741D02*
X241831200Y-68507741D01*
X241997866Y-68007741D02*
X242464533Y-68007741D01*
X242064533Y-68007741D02*
X242031200Y-67974408D01*
X242031200Y-67974408D02*
X241997866Y-67907741D01*
X241997866Y-67907741D02*
X241997866Y-67807741D01*
X241997866Y-67807741D02*
X242031200Y-67741074D01*
X242031200Y-67741074D02*
X242097866Y-67707741D01*
X242097866Y-67707741D02*
X242464533Y-67707741D01*
X242464533Y-67374408D02*
X241997866Y-67374408D01*
X241764533Y-67374408D02*
X241797866Y-67407741D01*
X241797866Y-67407741D02*
X241831200Y-67374408D01*
X241831200Y-67374408D02*
X241797866Y-67341075D01*
X241797866Y-67341075D02*
X241764533Y-67374408D01*
X241764533Y-67374408D02*
X241831200Y-67374408D01*
X242431200Y-66741075D02*
X242464533Y-66807742D01*
X242464533Y-66807742D02*
X242464533Y-66941075D01*
X242464533Y-66941075D02*
X242431200Y-67007742D01*
X242431200Y-67007742D02*
X242397866Y-67041075D01*
X242397866Y-67041075D02*
X242331200Y-67074408D01*
X242331200Y-67074408D02*
X242131200Y-67074408D01*
X242131200Y-67074408D02*
X242064533Y-67041075D01*
X242064533Y-67041075D02*
X242031200Y-67007742D01*
X242031200Y-67007742D02*
X241997866Y-66941075D01*
X241997866Y-66941075D02*
X241997866Y-66807742D01*
X241997866Y-66807742D02*
X242031200Y-66741075D01*
X242464533Y-66141075D02*
X242097866Y-66141075D01*
X242097866Y-66141075D02*
X242031200Y-66174408D01*
X242031200Y-66174408D02*
X241997866Y-66241075D01*
X241997866Y-66241075D02*
X241997866Y-66374408D01*
X241997866Y-66374408D02*
X242031200Y-66441075D01*
X242431200Y-66141075D02*
X242464533Y-66207742D01*
X242464533Y-66207742D02*
X242464533Y-66374408D01*
X242464533Y-66374408D02*
X242431200Y-66441075D01*
X242431200Y-66441075D02*
X242364533Y-66474408D01*
X242364533Y-66474408D02*
X242297866Y-66474408D01*
X242297866Y-66474408D02*
X242231200Y-66441075D01*
X242231200Y-66441075D02*
X242197866Y-66374408D01*
X242197866Y-66374408D02*
X242197866Y-66207742D01*
X242197866Y-66207742D02*
X242164533Y-66141075D01*
X241997866Y-65341076D02*
X242464533Y-65174409D01*
X241997866Y-65007742D02*
X242464533Y-65174409D01*
X242464533Y-65174409D02*
X242631200Y-65241076D01*
X242631200Y-65241076D02*
X242664533Y-65274409D01*
X242664533Y-65274409D02*
X242697866Y-65341076D01*
X241764533Y-64307743D02*
X241764533Y-63907743D01*
X242464533Y-64107743D02*
X241764533Y-64107743D01*
X242431200Y-63407743D02*
X242464533Y-63474410D01*
X242464533Y-63474410D02*
X242464533Y-63607743D01*
X242464533Y-63607743D02*
X242431200Y-63674410D01*
X242431200Y-63674410D02*
X242364533Y-63707743D01*
X242364533Y-63707743D02*
X242097866Y-63707743D01*
X242097866Y-63707743D02*
X242031200Y-63674410D01*
X242031200Y-63674410D02*
X241997866Y-63607743D01*
X241997866Y-63607743D02*
X241997866Y-63474410D01*
X241997866Y-63474410D02*
X242031200Y-63407743D01*
X242031200Y-63407743D02*
X242097866Y-63374410D01*
X242097866Y-63374410D02*
X242164533Y-63374410D01*
X242164533Y-63374410D02*
X242231200Y-63707743D01*
X242464533Y-62974410D02*
X242431200Y-63041077D01*
X242431200Y-63041077D02*
X242364533Y-63074410D01*
X242364533Y-63074410D02*
X241764533Y-63074410D01*
X242431200Y-62441076D02*
X242464533Y-62507743D01*
X242464533Y-62507743D02*
X242464533Y-62641076D01*
X242464533Y-62641076D02*
X242431200Y-62707743D01*
X242431200Y-62707743D02*
X242364533Y-62741076D01*
X242364533Y-62741076D02*
X242097866Y-62741076D01*
X242097866Y-62741076D02*
X242031200Y-62707743D01*
X242031200Y-62707743D02*
X241997866Y-62641076D01*
X241997866Y-62641076D02*
X241997866Y-62507743D01*
X241997866Y-62507743D02*
X242031200Y-62441076D01*
X242031200Y-62441076D02*
X242097866Y-62407743D01*
X242097866Y-62407743D02*
X242164533Y-62407743D01*
X242164533Y-62407743D02*
X242231200Y-62741076D01*
X242431200Y-61807743D02*
X242464533Y-61874410D01*
X242464533Y-61874410D02*
X242464533Y-62007743D01*
X242464533Y-62007743D02*
X242431200Y-62074410D01*
X242431200Y-62074410D02*
X242397866Y-62107743D01*
X242397866Y-62107743D02*
X242331200Y-62141076D01*
X242331200Y-62141076D02*
X242131200Y-62141076D01*
X242131200Y-62141076D02*
X242064533Y-62107743D01*
X242064533Y-62107743D02*
X242031200Y-62074410D01*
X242031200Y-62074410D02*
X241997866Y-62007743D01*
X241997866Y-62007743D02*
X241997866Y-61874410D01*
X241997866Y-61874410D02*
X242031200Y-61807743D01*
X242464533Y-61407743D02*
X242431200Y-61474410D01*
X242431200Y-61474410D02*
X242397866Y-61507743D01*
X242397866Y-61507743D02*
X242331200Y-61541076D01*
X242331200Y-61541076D02*
X242131200Y-61541076D01*
X242131200Y-61541076D02*
X242064533Y-61507743D01*
X242064533Y-61507743D02*
X242031200Y-61474410D01*
X242031200Y-61474410D02*
X241997866Y-61407743D01*
X241997866Y-61407743D02*
X241997866Y-61307743D01*
X241997866Y-61307743D02*
X242031200Y-61241076D01*
X242031200Y-61241076D02*
X242064533Y-61207743D01*
X242064533Y-61207743D02*
X242131200Y-61174410D01*
X242131200Y-61174410D02*
X242331200Y-61174410D01*
X242331200Y-61174410D02*
X242397866Y-61207743D01*
X242397866Y-61207743D02*
X242431200Y-61241076D01*
X242431200Y-61241076D02*
X242464533Y-61307743D01*
X242464533Y-61307743D02*
X242464533Y-61407743D01*
X242464533Y-60874410D02*
X241997866Y-60874410D01*
X242064533Y-60874410D02*
X242031200Y-60841077D01*
X242031200Y-60841077D02*
X241997866Y-60774410D01*
X241997866Y-60774410D02*
X241997866Y-60674410D01*
X241997866Y-60674410D02*
X242031200Y-60607743D01*
X242031200Y-60607743D02*
X242097866Y-60574410D01*
X242097866Y-60574410D02*
X242464533Y-60574410D01*
X242097866Y-60574410D02*
X242031200Y-60541077D01*
X242031200Y-60541077D02*
X241997866Y-60474410D01*
X241997866Y-60474410D02*
X241997866Y-60374410D01*
X241997866Y-60374410D02*
X242031200Y-60307743D01*
X242031200Y-60307743D02*
X242097866Y-60274410D01*
X242097866Y-60274410D02*
X242464533Y-60274410D01*
X241997866Y-59641077D02*
X242464533Y-59641077D01*
X241997866Y-59941077D02*
X242364533Y-59941077D01*
X242364533Y-59941077D02*
X242431200Y-59907744D01*
X242431200Y-59907744D02*
X242464533Y-59841077D01*
X242464533Y-59841077D02*
X242464533Y-59741077D01*
X242464533Y-59741077D02*
X242431200Y-59674410D01*
X242431200Y-59674410D02*
X242397866Y-59641077D01*
X241997866Y-59307744D02*
X242464533Y-59307744D01*
X242064533Y-59307744D02*
X242031200Y-59274411D01*
X242031200Y-59274411D02*
X241997866Y-59207744D01*
X241997866Y-59207744D02*
X241997866Y-59107744D01*
X241997866Y-59107744D02*
X242031200Y-59041077D01*
X242031200Y-59041077D02*
X242097866Y-59007744D01*
X242097866Y-59007744D02*
X242464533Y-59007744D01*
X242464533Y-58674411D02*
X241997866Y-58674411D01*
X241764533Y-58674411D02*
X241797866Y-58707744D01*
X241797866Y-58707744D02*
X241831200Y-58674411D01*
X241831200Y-58674411D02*
X241797866Y-58641078D01*
X241797866Y-58641078D02*
X241764533Y-58674411D01*
X241764533Y-58674411D02*
X241831200Y-58674411D01*
X242431200Y-58041078D02*
X242464533Y-58107745D01*
X242464533Y-58107745D02*
X242464533Y-58241078D01*
X242464533Y-58241078D02*
X242431200Y-58307745D01*
X242431200Y-58307745D02*
X242397866Y-58341078D01*
X242397866Y-58341078D02*
X242331200Y-58374411D01*
X242331200Y-58374411D02*
X242131200Y-58374411D01*
X242131200Y-58374411D02*
X242064533Y-58341078D01*
X242064533Y-58341078D02*
X242031200Y-58307745D01*
X242031200Y-58307745D02*
X241997866Y-58241078D01*
X241997866Y-58241078D02*
X241997866Y-58107745D01*
X241997866Y-58107745D02*
X242031200Y-58041078D01*
X242464533Y-57441078D02*
X242097866Y-57441078D01*
X242097866Y-57441078D02*
X242031200Y-57474411D01*
X242031200Y-57474411D02*
X241997866Y-57541078D01*
X241997866Y-57541078D02*
X241997866Y-57674411D01*
X241997866Y-57674411D02*
X242031200Y-57741078D01*
X242431200Y-57441078D02*
X242464533Y-57507745D01*
X242464533Y-57507745D02*
X242464533Y-57674411D01*
X242464533Y-57674411D02*
X242431200Y-57741078D01*
X242431200Y-57741078D02*
X242364533Y-57774411D01*
X242364533Y-57774411D02*
X242297866Y-57774411D01*
X242297866Y-57774411D02*
X242231200Y-57741078D01*
X242231200Y-57741078D02*
X242197866Y-57674411D01*
X242197866Y-57674411D02*
X242197866Y-57507745D01*
X242197866Y-57507745D02*
X242164533Y-57441078D01*
X242431200Y-56807745D02*
X242464533Y-56874412D01*
X242464533Y-56874412D02*
X242464533Y-57007745D01*
X242464533Y-57007745D02*
X242431200Y-57074412D01*
X242431200Y-57074412D02*
X242397866Y-57107745D01*
X242397866Y-57107745D02*
X242331200Y-57141078D01*
X242331200Y-57141078D02*
X242131200Y-57141078D01*
X242131200Y-57141078D02*
X242064533Y-57107745D01*
X242064533Y-57107745D02*
X242031200Y-57074412D01*
X242031200Y-57074412D02*
X241997866Y-57007745D01*
X241997866Y-57007745D02*
X241997866Y-56874412D01*
X241997866Y-56874412D02*
X242031200Y-56807745D01*
X242464533Y-56507745D02*
X241997866Y-56507745D01*
X241764533Y-56507745D02*
X241797866Y-56541078D01*
X241797866Y-56541078D02*
X241831200Y-56507745D01*
X241831200Y-56507745D02*
X241797866Y-56474412D01*
X241797866Y-56474412D02*
X241764533Y-56507745D01*
X241764533Y-56507745D02*
X241831200Y-56507745D01*
X242464533Y-56074412D02*
X242431200Y-56141079D01*
X242431200Y-56141079D02*
X242397866Y-56174412D01*
X242397866Y-56174412D02*
X242331200Y-56207745D01*
X242331200Y-56207745D02*
X242131200Y-56207745D01*
X242131200Y-56207745D02*
X242064533Y-56174412D01*
X242064533Y-56174412D02*
X242031200Y-56141079D01*
X242031200Y-56141079D02*
X241997866Y-56074412D01*
X241997866Y-56074412D02*
X241997866Y-55974412D01*
X241997866Y-55974412D02*
X242031200Y-55907745D01*
X242031200Y-55907745D02*
X242064533Y-55874412D01*
X242064533Y-55874412D02*
X242131200Y-55841079D01*
X242131200Y-55841079D02*
X242331200Y-55841079D01*
X242331200Y-55841079D02*
X242397866Y-55874412D01*
X242397866Y-55874412D02*
X242431200Y-55907745D01*
X242431200Y-55907745D02*
X242464533Y-55974412D01*
X242464533Y-55974412D02*
X242464533Y-56074412D01*
X241997866Y-55541079D02*
X242464533Y-55541079D01*
X242064533Y-55541079D02*
X242031200Y-55507746D01*
X242031200Y-55507746D02*
X241997866Y-55441079D01*
X241997866Y-55441079D02*
X241997866Y-55341079D01*
X241997866Y-55341079D02*
X242031200Y-55274412D01*
X242031200Y-55274412D02*
X242097866Y-55241079D01*
X242097866Y-55241079D02*
X242464533Y-55241079D01*
X242431200Y-54641079D02*
X242464533Y-54707746D01*
X242464533Y-54707746D02*
X242464533Y-54841079D01*
X242464533Y-54841079D02*
X242431200Y-54907746D01*
X242431200Y-54907746D02*
X242364533Y-54941079D01*
X242364533Y-54941079D02*
X242097866Y-54941079D01*
X242097866Y-54941079D02*
X242031200Y-54907746D01*
X242031200Y-54907746D02*
X241997866Y-54841079D01*
X241997866Y-54841079D02*
X241997866Y-54707746D01*
X241997866Y-54707746D02*
X242031200Y-54641079D01*
X242031200Y-54641079D02*
X242097866Y-54607746D01*
X242097866Y-54607746D02*
X242164533Y-54607746D01*
X242164533Y-54607746D02*
X242231200Y-54941079D01*
X242431200Y-54341079D02*
X242464533Y-54274413D01*
X242464533Y-54274413D02*
X242464533Y-54141079D01*
X242464533Y-54141079D02*
X242431200Y-54074413D01*
X242431200Y-54074413D02*
X242364533Y-54041079D01*
X242364533Y-54041079D02*
X242331200Y-54041079D01*
X242331200Y-54041079D02*
X242264533Y-54074413D01*
X242264533Y-54074413D02*
X242231200Y-54141079D01*
X242231200Y-54141079D02*
X242231200Y-54241079D01*
X242231200Y-54241079D02*
X242197866Y-54307746D01*
X242197866Y-54307746D02*
X242131200Y-54341079D01*
X242131200Y-54341079D02*
X242097866Y-54341079D01*
X242097866Y-54341079D02*
X242031200Y-54307746D01*
X242031200Y-54307746D02*
X241997866Y-54241079D01*
X241997866Y-54241079D02*
X241997866Y-54141079D01*
X241997866Y-54141079D02*
X242031200Y-54074413D01*
%TO.C,ANT1*%
X242219104Y-81894047D02*
X242219104Y-81417857D01*
X242504819Y-81989285D02*
X241504819Y-81655952D01*
X241504819Y-81655952D02*
X242504819Y-81322619D01*
X242504819Y-80989285D02*
X241504819Y-80989285D01*
X241504819Y-80989285D02*
X242504819Y-80417857D01*
X242504819Y-80417857D02*
X241504819Y-80417857D01*
X241504819Y-80084523D02*
X241504819Y-79513095D01*
X242504819Y-79798809D02*
X241504819Y-79798809D01*
X242504819Y-78655952D02*
X242504819Y-79227380D01*
X242504819Y-78941666D02*
X241504819Y-78941666D01*
X241504819Y-78941666D02*
X241647676Y-79036904D01*
X241647676Y-79036904D02*
X241742914Y-79132142D01*
X241742914Y-79132142D02*
X241790533Y-79227380D01*
%TO.C,D1*%
X229639905Y-39166819D02*
X229639905Y-38166819D01*
X229639905Y-38166819D02*
X229878000Y-38166819D01*
X229878000Y-38166819D02*
X230020857Y-38214438D01*
X230020857Y-38214438D02*
X230116095Y-38309676D01*
X230116095Y-38309676D02*
X230163714Y-38404914D01*
X230163714Y-38404914D02*
X230211333Y-38595390D01*
X230211333Y-38595390D02*
X230211333Y-38738247D01*
X230211333Y-38738247D02*
X230163714Y-38928723D01*
X230163714Y-38928723D02*
X230116095Y-39023961D01*
X230116095Y-39023961D02*
X230020857Y-39119200D01*
X230020857Y-39119200D02*
X229878000Y-39166819D01*
X229878000Y-39166819D02*
X229639905Y-39166819D01*
X231163714Y-39166819D02*
X230592286Y-39166819D01*
X230878000Y-39166819D02*
X230878000Y-38166819D01*
X230878000Y-38166819D02*
X230782762Y-38309676D01*
X230782762Y-38309676D02*
X230687524Y-38404914D01*
X230687524Y-38404914D02*
X230592286Y-38452533D01*
%TO.C,*%
%TO.C,A1*%
X211065904Y-54901180D02*
X211065904Y-54091657D01*
X211065904Y-54091657D02*
X211018285Y-53996419D01*
X211018285Y-53996419D02*
X210970666Y-53948800D01*
X210970666Y-53948800D02*
X210875428Y-53901180D01*
X210875428Y-53901180D02*
X210684952Y-53901180D01*
X210684952Y-53901180D02*
X210589714Y-53948800D01*
X210589714Y-53948800D02*
X210542095Y-53996419D01*
X210542095Y-53996419D02*
X210494476Y-54091657D01*
X210494476Y-54091657D02*
X210494476Y-54901180D01*
X210065904Y-53948800D02*
X209923047Y-53901180D01*
X209923047Y-53901180D02*
X209684952Y-53901180D01*
X209684952Y-53901180D02*
X209589714Y-53948800D01*
X209589714Y-53948800D02*
X209542095Y-53996419D01*
X209542095Y-53996419D02*
X209494476Y-54091657D01*
X209494476Y-54091657D02*
X209494476Y-54186895D01*
X209494476Y-54186895D02*
X209542095Y-54282133D01*
X209542095Y-54282133D02*
X209589714Y-54329752D01*
X209589714Y-54329752D02*
X209684952Y-54377371D01*
X209684952Y-54377371D02*
X209875428Y-54424990D01*
X209875428Y-54424990D02*
X209970666Y-54472609D01*
X209970666Y-54472609D02*
X210018285Y-54520228D01*
X210018285Y-54520228D02*
X210065904Y-54615466D01*
X210065904Y-54615466D02*
X210065904Y-54710704D01*
X210065904Y-54710704D02*
X210018285Y-54805942D01*
X210018285Y-54805942D02*
X209970666Y-54853561D01*
X209970666Y-54853561D02*
X209875428Y-54901180D01*
X209875428Y-54901180D02*
X209637333Y-54901180D01*
X209637333Y-54901180D02*
X209494476Y-54853561D01*
X208732571Y-54424990D02*
X208589714Y-54377371D01*
X208589714Y-54377371D02*
X208542095Y-54329752D01*
X208542095Y-54329752D02*
X208494476Y-54234514D01*
X208494476Y-54234514D02*
X208494476Y-54091657D01*
X208494476Y-54091657D02*
X208542095Y-53996419D01*
X208542095Y-53996419D02*
X208589714Y-53948800D01*
X208589714Y-53948800D02*
X208684952Y-53901180D01*
X208684952Y-53901180D02*
X209065904Y-53901180D01*
X209065904Y-53901180D02*
X209065904Y-54901180D01*
X209065904Y-54901180D02*
X208732571Y-54901180D01*
X208732571Y-54901180D02*
X208637333Y-54853561D01*
X208637333Y-54853561D02*
X208589714Y-54805942D01*
X208589714Y-54805942D02*
X208542095Y-54710704D01*
X208542095Y-54710704D02*
X208542095Y-54615466D01*
X208542095Y-54615466D02*
X208589714Y-54520228D01*
X208589714Y-54520228D02*
X208637333Y-54472609D01*
X208637333Y-54472609D02*
X208732571Y-54424990D01*
X208732571Y-54424990D02*
X209065904Y-54424990D01*
%TO.C,RDM1*%
X230480467Y-75862378D02*
X230105514Y-76124845D01*
X230480467Y-76312322D02*
X229693065Y-76312322D01*
X229693065Y-76312322D02*
X229693065Y-76012359D01*
X229693065Y-76012359D02*
X229730560Y-75937369D01*
X229730560Y-75937369D02*
X229768056Y-75899873D01*
X229768056Y-75899873D02*
X229843046Y-75862378D01*
X229843046Y-75862378D02*
X229955532Y-75862378D01*
X229955532Y-75862378D02*
X230030523Y-75899873D01*
X230030523Y-75899873D02*
X230068018Y-75937369D01*
X230068018Y-75937369D02*
X230105514Y-76012359D01*
X230105514Y-76012359D02*
X230105514Y-76312322D01*
X230480467Y-75524920D02*
X229693065Y-75524920D01*
X229693065Y-75524920D02*
X229693065Y-75337443D01*
X229693065Y-75337443D02*
X229730560Y-75224957D01*
X229730560Y-75224957D02*
X229805551Y-75149967D01*
X229805551Y-75149967D02*
X229880542Y-75112471D01*
X229880542Y-75112471D02*
X230030523Y-75074976D01*
X230030523Y-75074976D02*
X230143009Y-75074976D01*
X230143009Y-75074976D02*
X230292990Y-75112471D01*
X230292990Y-75112471D02*
X230367981Y-75149967D01*
X230367981Y-75149967D02*
X230442972Y-75224957D01*
X230442972Y-75224957D02*
X230480467Y-75337443D01*
X230480467Y-75337443D02*
X230480467Y-75524920D01*
X230480467Y-74737518D02*
X229693065Y-74737518D01*
X229693065Y-74737518D02*
X230255495Y-74475051D01*
X230255495Y-74475051D02*
X229693065Y-74212583D01*
X229693065Y-74212583D02*
X230480467Y-74212583D01*
X230480467Y-73425181D02*
X230480467Y-73875125D01*
X230480467Y-73650153D02*
X229693065Y-73650153D01*
X229693065Y-73650153D02*
X229805551Y-73725144D01*
X229805551Y-73725144D02*
X229880542Y-73800135D01*
X229880542Y-73800135D02*
X229918037Y-73875125D01*
D15*
X236555952Y-93477022D02*
X236555952Y-93238927D01*
X236698809Y-93524641D02*
X236198809Y-93357975D01*
X236198809Y-93357975D02*
X236698809Y-93191308D01*
X236698809Y-93024642D02*
X236198809Y-93024642D01*
X236198809Y-93024642D02*
X236698809Y-92738928D01*
X236698809Y-92738928D02*
X236198809Y-92738928D01*
X236198809Y-92572260D02*
X236198809Y-92286546D01*
X236698809Y-92429403D02*
X236198809Y-92429403D01*
X236698809Y-91857975D02*
X236698809Y-92143689D01*
X236698809Y-92000832D02*
X236198809Y-92000832D01*
X236198809Y-92000832D02*
X236270238Y-92048451D01*
X236270238Y-92048451D02*
X236317857Y-92096070D01*
X236317857Y-92096070D02*
X236341666Y-92143689D01*
X223522619Y-66378452D02*
X223498809Y-66426071D01*
X223498809Y-66426071D02*
X223498809Y-66497500D01*
X223498809Y-66497500D02*
X223522619Y-66568928D01*
X223522619Y-66568928D02*
X223570238Y-66616547D01*
X223570238Y-66616547D02*
X223617857Y-66640357D01*
X223617857Y-66640357D02*
X223713095Y-66664166D01*
X223713095Y-66664166D02*
X223784523Y-66664166D01*
X223784523Y-66664166D02*
X223879761Y-66640357D01*
X223879761Y-66640357D02*
X223927380Y-66616547D01*
X223927380Y-66616547D02*
X223975000Y-66568928D01*
X223975000Y-66568928D02*
X223998809Y-66497500D01*
X223998809Y-66497500D02*
X223998809Y-66449881D01*
X223998809Y-66449881D02*
X223975000Y-66378452D01*
X223975000Y-66378452D02*
X223951190Y-66354643D01*
X223951190Y-66354643D02*
X223784523Y-66354643D01*
X223784523Y-66354643D02*
X223784523Y-66449881D01*
X223998809Y-66140357D02*
X223498809Y-66140357D01*
X223498809Y-66140357D02*
X223998809Y-65854643D01*
X223998809Y-65854643D02*
X223498809Y-65854643D01*
X223998809Y-65616547D02*
X223498809Y-65616547D01*
X223498809Y-65616547D02*
X223498809Y-65497499D01*
X223498809Y-65497499D02*
X223522619Y-65426071D01*
X223522619Y-65426071D02*
X223570238Y-65378452D01*
X223570238Y-65378452D02*
X223617857Y-65354642D01*
X223617857Y-65354642D02*
X223713095Y-65330833D01*
X223713095Y-65330833D02*
X223784523Y-65330833D01*
X223784523Y-65330833D02*
X223879761Y-65354642D01*
X223879761Y-65354642D02*
X223927380Y-65378452D01*
X223927380Y-65378452D02*
X223975000Y-65426071D01*
X223975000Y-65426071D02*
X223998809Y-65497499D01*
X223998809Y-65497499D02*
X223998809Y-65616547D01*
X223498809Y-58758451D02*
X223498809Y-58472737D01*
X223998809Y-58615594D02*
X223498809Y-58615594D01*
X223498809Y-58353690D02*
X223998809Y-58020357D01*
X223498809Y-58020357D02*
X223998809Y-58353690D01*
X223998809Y-63826547D02*
X223498809Y-63826547D01*
X223498809Y-63826547D02*
X223498809Y-63707499D01*
X223498809Y-63707499D02*
X223522619Y-63636071D01*
X223522619Y-63636071D02*
X223570238Y-63588452D01*
X223570238Y-63588452D02*
X223617857Y-63564642D01*
X223617857Y-63564642D02*
X223713095Y-63540833D01*
X223713095Y-63540833D02*
X223784523Y-63540833D01*
X223784523Y-63540833D02*
X223879761Y-63564642D01*
X223879761Y-63564642D02*
X223927380Y-63588452D01*
X223927380Y-63588452D02*
X223975000Y-63636071D01*
X223975000Y-63636071D02*
X223998809Y-63707499D01*
X223998809Y-63707499D02*
X223998809Y-63826547D01*
X223498809Y-63231309D02*
X223498809Y-63183690D01*
X223498809Y-63183690D02*
X223522619Y-63136071D01*
X223522619Y-63136071D02*
X223546428Y-63112261D01*
X223546428Y-63112261D02*
X223594047Y-63088452D01*
X223594047Y-63088452D02*
X223689285Y-63064642D01*
X223689285Y-63064642D02*
X223808333Y-63064642D01*
X223808333Y-63064642D02*
X223903571Y-63088452D01*
X223903571Y-63088452D02*
X223951190Y-63112261D01*
X223951190Y-63112261D02*
X223975000Y-63136071D01*
X223975000Y-63136071D02*
X223998809Y-63183690D01*
X223998809Y-63183690D02*
X223998809Y-63231309D01*
X223998809Y-63231309D02*
X223975000Y-63278928D01*
X223975000Y-63278928D02*
X223951190Y-63302737D01*
X223951190Y-63302737D02*
X223903571Y-63326547D01*
X223903571Y-63326547D02*
X223808333Y-63350356D01*
X223808333Y-63350356D02*
X223689285Y-63350356D01*
X223689285Y-63350356D02*
X223594047Y-63326547D01*
X223594047Y-63326547D02*
X223546428Y-63302737D01*
X223546428Y-63302737D02*
X223522619Y-63278928D01*
X223522619Y-63278928D02*
X223498809Y-63231309D01*
X223498809Y-69204165D02*
X223998809Y-69037499D01*
X223998809Y-69037499D02*
X223498809Y-68870832D01*
X223951190Y-68418452D02*
X223975000Y-68442261D01*
X223975000Y-68442261D02*
X223998809Y-68513690D01*
X223998809Y-68513690D02*
X223998809Y-68561309D01*
X223998809Y-68561309D02*
X223975000Y-68632737D01*
X223975000Y-68632737D02*
X223927380Y-68680356D01*
X223927380Y-68680356D02*
X223879761Y-68704166D01*
X223879761Y-68704166D02*
X223784523Y-68727975D01*
X223784523Y-68727975D02*
X223713095Y-68727975D01*
X223713095Y-68727975D02*
X223617857Y-68704166D01*
X223617857Y-68704166D02*
X223570238Y-68680356D01*
X223570238Y-68680356D02*
X223522619Y-68632737D01*
X223522619Y-68632737D02*
X223498809Y-68561309D01*
X223498809Y-68561309D02*
X223498809Y-68513690D01*
X223498809Y-68513690D02*
X223522619Y-68442261D01*
X223522619Y-68442261D02*
X223546428Y-68418452D01*
X223951190Y-67918452D02*
X223975000Y-67942261D01*
X223975000Y-67942261D02*
X223998809Y-68013690D01*
X223998809Y-68013690D02*
X223998809Y-68061309D01*
X223998809Y-68061309D02*
X223975000Y-68132737D01*
X223975000Y-68132737D02*
X223927380Y-68180356D01*
X223927380Y-68180356D02*
X223879761Y-68204166D01*
X223879761Y-68204166D02*
X223784523Y-68227975D01*
X223784523Y-68227975D02*
X223713095Y-68227975D01*
X223713095Y-68227975D02*
X223617857Y-68204166D01*
X223617857Y-68204166D02*
X223570238Y-68180356D01*
X223570238Y-68180356D02*
X223522619Y-68132737D01*
X223522619Y-68132737D02*
X223498809Y-68061309D01*
X223498809Y-68061309D02*
X223498809Y-68013690D01*
X223498809Y-68013690D02*
X223522619Y-67942261D01*
X223522619Y-67942261D02*
X223546428Y-67918452D01*
X236198809Y-62854165D02*
X236698809Y-62687499D01*
X236698809Y-62687499D02*
X236198809Y-62520832D01*
X236651190Y-62068452D02*
X236675000Y-62092261D01*
X236675000Y-62092261D02*
X236698809Y-62163690D01*
X236698809Y-62163690D02*
X236698809Y-62211309D01*
X236698809Y-62211309D02*
X236675000Y-62282737D01*
X236675000Y-62282737D02*
X236627380Y-62330356D01*
X236627380Y-62330356D02*
X236579761Y-62354166D01*
X236579761Y-62354166D02*
X236484523Y-62377975D01*
X236484523Y-62377975D02*
X236413095Y-62377975D01*
X236413095Y-62377975D02*
X236317857Y-62354166D01*
X236317857Y-62354166D02*
X236270238Y-62330356D01*
X236270238Y-62330356D02*
X236222619Y-62282737D01*
X236222619Y-62282737D02*
X236198809Y-62211309D01*
X236198809Y-62211309D02*
X236198809Y-62163690D01*
X236198809Y-62163690D02*
X236222619Y-62092261D01*
X236222619Y-62092261D02*
X236246428Y-62068452D01*
X236651190Y-61568452D02*
X236675000Y-61592261D01*
X236675000Y-61592261D02*
X236698809Y-61663690D01*
X236698809Y-61663690D02*
X236698809Y-61711309D01*
X236698809Y-61711309D02*
X236675000Y-61782737D01*
X236675000Y-61782737D02*
X236627380Y-61830356D01*
X236627380Y-61830356D02*
X236579761Y-61854166D01*
X236579761Y-61854166D02*
X236484523Y-61877975D01*
X236484523Y-61877975D02*
X236413095Y-61877975D01*
X236413095Y-61877975D02*
X236317857Y-61854166D01*
X236317857Y-61854166D02*
X236270238Y-61830356D01*
X236270238Y-61830356D02*
X236222619Y-61782737D01*
X236222619Y-61782737D02*
X236198809Y-61711309D01*
X236198809Y-61711309D02*
X236198809Y-61663690D01*
X236198809Y-61663690D02*
X236222619Y-61592261D01*
X236222619Y-61592261D02*
X236246428Y-61568452D01*
X236555952Y-90937022D02*
X236555952Y-90698927D01*
X236698809Y-90984641D02*
X236198809Y-90817975D01*
X236198809Y-90817975D02*
X236698809Y-90651308D01*
X236698809Y-90484642D02*
X236198809Y-90484642D01*
X236198809Y-90484642D02*
X236698809Y-90198928D01*
X236698809Y-90198928D02*
X236198809Y-90198928D01*
X236198809Y-90032260D02*
X236198809Y-89746546D01*
X236698809Y-89889403D02*
X236198809Y-89889403D01*
X236246428Y-89603689D02*
X236222619Y-89579880D01*
X236222619Y-89579880D02*
X236198809Y-89532261D01*
X236198809Y-89532261D02*
X236198809Y-89413213D01*
X236198809Y-89413213D02*
X236222619Y-89365594D01*
X236222619Y-89365594D02*
X236246428Y-89341785D01*
X236246428Y-89341785D02*
X236294047Y-89317975D01*
X236294047Y-89317975D02*
X236341666Y-89317975D01*
X236341666Y-89317975D02*
X236413095Y-89341785D01*
X236413095Y-89341785D02*
X236698809Y-89627499D01*
X236698809Y-89627499D02*
X236698809Y-89317975D01*
X223998809Y-61000833D02*
X223760714Y-61167499D01*
X223998809Y-61286547D02*
X223498809Y-61286547D01*
X223498809Y-61286547D02*
X223498809Y-61096071D01*
X223498809Y-61096071D02*
X223522619Y-61048452D01*
X223522619Y-61048452D02*
X223546428Y-61024642D01*
X223546428Y-61024642D02*
X223594047Y-61000833D01*
X223594047Y-61000833D02*
X223665476Y-61000833D01*
X223665476Y-61000833D02*
X223713095Y-61024642D01*
X223713095Y-61024642D02*
X223736904Y-61048452D01*
X223736904Y-61048452D02*
X223760714Y-61096071D01*
X223760714Y-61096071D02*
X223760714Y-61286547D01*
X223498809Y-60834166D02*
X223998809Y-60500833D01*
X223498809Y-60500833D02*
X223998809Y-60834166D01*
X236698809Y-59968928D02*
X236698809Y-60207023D01*
X236698809Y-60207023D02*
X236198809Y-60207023D01*
X236436904Y-59802261D02*
X236436904Y-59635594D01*
X236698809Y-59564166D02*
X236698809Y-59802261D01*
X236698809Y-59802261D02*
X236198809Y-59802261D01*
X236198809Y-59802261D02*
X236198809Y-59564166D01*
X236698809Y-59349880D02*
X236198809Y-59349880D01*
X236198809Y-59349880D02*
X236198809Y-59230832D01*
X236198809Y-59230832D02*
X236222619Y-59159404D01*
X236222619Y-59159404D02*
X236270238Y-59111785D01*
X236270238Y-59111785D02*
X236317857Y-59087975D01*
X236317857Y-59087975D02*
X236413095Y-59064166D01*
X236413095Y-59064166D02*
X236484523Y-59064166D01*
X236484523Y-59064166D02*
X236579761Y-59087975D01*
X236579761Y-59087975D02*
X236627380Y-59111785D01*
X236627380Y-59111785D02*
X236675000Y-59159404D01*
X236675000Y-59159404D02*
X236698809Y-59230832D01*
X236698809Y-59230832D02*
X236698809Y-59349880D01*
X236222619Y-65108452D02*
X236198809Y-65156071D01*
X236198809Y-65156071D02*
X236198809Y-65227500D01*
X236198809Y-65227500D02*
X236222619Y-65298928D01*
X236222619Y-65298928D02*
X236270238Y-65346547D01*
X236270238Y-65346547D02*
X236317857Y-65370357D01*
X236317857Y-65370357D02*
X236413095Y-65394166D01*
X236413095Y-65394166D02*
X236484523Y-65394166D01*
X236484523Y-65394166D02*
X236579761Y-65370357D01*
X236579761Y-65370357D02*
X236627380Y-65346547D01*
X236627380Y-65346547D02*
X236675000Y-65298928D01*
X236675000Y-65298928D02*
X236698809Y-65227500D01*
X236698809Y-65227500D02*
X236698809Y-65179881D01*
X236698809Y-65179881D02*
X236675000Y-65108452D01*
X236675000Y-65108452D02*
X236651190Y-65084643D01*
X236651190Y-65084643D02*
X236484523Y-65084643D01*
X236484523Y-65084643D02*
X236484523Y-65179881D01*
X236698809Y-64870357D02*
X236198809Y-64870357D01*
X236198809Y-64870357D02*
X236698809Y-64584643D01*
X236698809Y-64584643D02*
X236198809Y-64584643D01*
X236698809Y-64346547D02*
X236198809Y-64346547D01*
X236198809Y-64346547D02*
X236198809Y-64227499D01*
X236198809Y-64227499D02*
X236222619Y-64156071D01*
X236222619Y-64156071D02*
X236270238Y-64108452D01*
X236270238Y-64108452D02*
X236317857Y-64084642D01*
X236317857Y-64084642D02*
X236413095Y-64060833D01*
X236413095Y-64060833D02*
X236484523Y-64060833D01*
X236484523Y-64060833D02*
X236579761Y-64084642D01*
X236579761Y-64084642D02*
X236627380Y-64108452D01*
X236627380Y-64108452D02*
X236675000Y-64156071D01*
X236675000Y-64156071D02*
X236698809Y-64227499D01*
X236698809Y-64227499D02*
X236698809Y-64346547D01*
D11*
%TO.C,U1*%
X213116819Y-43051904D02*
X213926342Y-43051904D01*
X213926342Y-43051904D02*
X214021580Y-43004285D01*
X214021580Y-43004285D02*
X214069200Y-42956666D01*
X214069200Y-42956666D02*
X214116819Y-42861428D01*
X214116819Y-42861428D02*
X214116819Y-42670952D01*
X214116819Y-42670952D02*
X214069200Y-42575714D01*
X214069200Y-42575714D02*
X214021580Y-42528095D01*
X214021580Y-42528095D02*
X213926342Y-42480476D01*
X213926342Y-42480476D02*
X213116819Y-42480476D01*
X214116819Y-41480476D02*
X214116819Y-42051904D01*
X214116819Y-41766190D02*
X213116819Y-41766190D01*
X213116819Y-41766190D02*
X213259676Y-41861428D01*
X213259676Y-41861428D02*
X213354914Y-41956666D01*
X213354914Y-41956666D02*
X213402533Y-42051904D01*
%TO.C,Salida1*%
X239682200Y-49269047D02*
X239729819Y-49126190D01*
X239729819Y-49126190D02*
X239729819Y-48888095D01*
X239729819Y-48888095D02*
X239682200Y-48792857D01*
X239682200Y-48792857D02*
X239634580Y-48745238D01*
X239634580Y-48745238D02*
X239539342Y-48697619D01*
X239539342Y-48697619D02*
X239444104Y-48697619D01*
X239444104Y-48697619D02*
X239348866Y-48745238D01*
X239348866Y-48745238D02*
X239301247Y-48792857D01*
X239301247Y-48792857D02*
X239253628Y-48888095D01*
X239253628Y-48888095D02*
X239206009Y-49078571D01*
X239206009Y-49078571D02*
X239158390Y-49173809D01*
X239158390Y-49173809D02*
X239110771Y-49221428D01*
X239110771Y-49221428D02*
X239015533Y-49269047D01*
X239015533Y-49269047D02*
X238920295Y-49269047D01*
X238920295Y-49269047D02*
X238825057Y-49221428D01*
X238825057Y-49221428D02*
X238777438Y-49173809D01*
X238777438Y-49173809D02*
X238729819Y-49078571D01*
X238729819Y-49078571D02*
X238729819Y-48840476D01*
X238729819Y-48840476D02*
X238777438Y-48697619D01*
X239729819Y-47840476D02*
X239206009Y-47840476D01*
X239206009Y-47840476D02*
X239110771Y-47888095D01*
X239110771Y-47888095D02*
X239063152Y-47983333D01*
X239063152Y-47983333D02*
X239063152Y-48173809D01*
X239063152Y-48173809D02*
X239110771Y-48269047D01*
X239682200Y-47840476D02*
X239729819Y-47935714D01*
X239729819Y-47935714D02*
X239729819Y-48173809D01*
X239729819Y-48173809D02*
X239682200Y-48269047D01*
X239682200Y-48269047D02*
X239586961Y-48316666D01*
X239586961Y-48316666D02*
X239491723Y-48316666D01*
X239491723Y-48316666D02*
X239396485Y-48269047D01*
X239396485Y-48269047D02*
X239348866Y-48173809D01*
X239348866Y-48173809D02*
X239348866Y-47935714D01*
X239348866Y-47935714D02*
X239301247Y-47840476D01*
X239729819Y-47221428D02*
X239682200Y-47316666D01*
X239682200Y-47316666D02*
X239586961Y-47364285D01*
X239586961Y-47364285D02*
X238729819Y-47364285D01*
X239729819Y-46840475D02*
X239063152Y-46840475D01*
X238729819Y-46840475D02*
X238777438Y-46888094D01*
X238777438Y-46888094D02*
X238825057Y-46840475D01*
X238825057Y-46840475D02*
X238777438Y-46792856D01*
X238777438Y-46792856D02*
X238729819Y-46840475D01*
X238729819Y-46840475D02*
X238825057Y-46840475D01*
X239729819Y-45935714D02*
X238729819Y-45935714D01*
X239682200Y-45935714D02*
X239729819Y-46030952D01*
X239729819Y-46030952D02*
X239729819Y-46221428D01*
X239729819Y-46221428D02*
X239682200Y-46316666D01*
X239682200Y-46316666D02*
X239634580Y-46364285D01*
X239634580Y-46364285D02*
X239539342Y-46411904D01*
X239539342Y-46411904D02*
X239253628Y-46411904D01*
X239253628Y-46411904D02*
X239158390Y-46364285D01*
X239158390Y-46364285D02*
X239110771Y-46316666D01*
X239110771Y-46316666D02*
X239063152Y-46221428D01*
X239063152Y-46221428D02*
X239063152Y-46030952D01*
X239063152Y-46030952D02*
X239110771Y-45935714D01*
X239729819Y-45030952D02*
X239206009Y-45030952D01*
X239206009Y-45030952D02*
X239110771Y-45078571D01*
X239110771Y-45078571D02*
X239063152Y-45173809D01*
X239063152Y-45173809D02*
X239063152Y-45364285D01*
X239063152Y-45364285D02*
X239110771Y-45459523D01*
X239682200Y-45030952D02*
X239729819Y-45126190D01*
X239729819Y-45126190D02*
X239729819Y-45364285D01*
X239729819Y-45364285D02*
X239682200Y-45459523D01*
X239682200Y-45459523D02*
X239586961Y-45507142D01*
X239586961Y-45507142D02*
X239491723Y-45507142D01*
X239491723Y-45507142D02*
X239396485Y-45459523D01*
X239396485Y-45459523D02*
X239348866Y-45364285D01*
X239348866Y-45364285D02*
X239348866Y-45126190D01*
X239348866Y-45126190D02*
X239301247Y-45030952D01*
X239729819Y-44030952D02*
X239729819Y-44602380D01*
X239729819Y-44316666D02*
X238729819Y-44316666D01*
X238729819Y-44316666D02*
X238872676Y-44411904D01*
X238872676Y-44411904D02*
X238967914Y-44507142D01*
X238967914Y-44507142D02*
X239015533Y-44602380D01*
%TO.C,DC-9V1*%
X196154819Y-55454904D02*
X195154819Y-55454904D01*
X195154819Y-55454904D02*
X195154819Y-55216809D01*
X195154819Y-55216809D02*
X195202438Y-55073952D01*
X195202438Y-55073952D02*
X195297676Y-54978714D01*
X195297676Y-54978714D02*
X195392914Y-54931095D01*
X195392914Y-54931095D02*
X195583390Y-54883476D01*
X195583390Y-54883476D02*
X195726247Y-54883476D01*
X195726247Y-54883476D02*
X195916723Y-54931095D01*
X195916723Y-54931095D02*
X196011961Y-54978714D01*
X196011961Y-54978714D02*
X196107200Y-55073952D01*
X196107200Y-55073952D02*
X196154819Y-55216809D01*
X196154819Y-55216809D02*
X196154819Y-55454904D01*
X196059580Y-53883476D02*
X196107200Y-53931095D01*
X196107200Y-53931095D02*
X196154819Y-54073952D01*
X196154819Y-54073952D02*
X196154819Y-54169190D01*
X196154819Y-54169190D02*
X196107200Y-54312047D01*
X196107200Y-54312047D02*
X196011961Y-54407285D01*
X196011961Y-54407285D02*
X195916723Y-54454904D01*
X195916723Y-54454904D02*
X195726247Y-54502523D01*
X195726247Y-54502523D02*
X195583390Y-54502523D01*
X195583390Y-54502523D02*
X195392914Y-54454904D01*
X195392914Y-54454904D02*
X195297676Y-54407285D01*
X195297676Y-54407285D02*
X195202438Y-54312047D01*
X195202438Y-54312047D02*
X195154819Y-54169190D01*
X195154819Y-54169190D02*
X195154819Y-54073952D01*
X195154819Y-54073952D02*
X195202438Y-53931095D01*
X195202438Y-53931095D02*
X195250057Y-53883476D01*
X195773866Y-53454904D02*
X195773866Y-52693000D01*
X196154819Y-52169190D02*
X196154819Y-51978714D01*
X196154819Y-51978714D02*
X196107200Y-51883476D01*
X196107200Y-51883476D02*
X196059580Y-51835857D01*
X196059580Y-51835857D02*
X195916723Y-51740619D01*
X195916723Y-51740619D02*
X195726247Y-51693000D01*
X195726247Y-51693000D02*
X195345295Y-51693000D01*
X195345295Y-51693000D02*
X195250057Y-51740619D01*
X195250057Y-51740619D02*
X195202438Y-51788238D01*
X195202438Y-51788238D02*
X195154819Y-51883476D01*
X195154819Y-51883476D02*
X195154819Y-52073952D01*
X195154819Y-52073952D02*
X195202438Y-52169190D01*
X195202438Y-52169190D02*
X195250057Y-52216809D01*
X195250057Y-52216809D02*
X195345295Y-52264428D01*
X195345295Y-52264428D02*
X195583390Y-52264428D01*
X195583390Y-52264428D02*
X195678628Y-52216809D01*
X195678628Y-52216809D02*
X195726247Y-52169190D01*
X195726247Y-52169190D02*
X195773866Y-52073952D01*
X195773866Y-52073952D02*
X195773866Y-51883476D01*
X195773866Y-51883476D02*
X195726247Y-51788238D01*
X195726247Y-51788238D02*
X195678628Y-51740619D01*
X195678628Y-51740619D02*
X195583390Y-51693000D01*
X195154819Y-51407285D02*
X196154819Y-51073952D01*
X196154819Y-51073952D02*
X195154819Y-50740619D01*
X196154819Y-49883476D02*
X196154819Y-50454904D01*
X196154819Y-50169190D02*
X195154819Y-50169190D01*
X195154819Y-50169190D02*
X195297676Y-50264428D01*
X195297676Y-50264428D02*
X195392914Y-50359666D01*
X195392914Y-50359666D02*
X195440533Y-50454904D01*
%TO.C,*%
D16*
%TO.C,ANT1*%
X240795000Y-82770000D02*
X242125000Y-82770000D01*
X240795000Y-84100000D02*
X240795000Y-82770000D01*
X240795000Y-85370000D02*
X240795000Y-87970000D01*
X240795000Y-85370000D02*
X243455000Y-85370000D01*
X240795000Y-87970000D02*
X243455000Y-87970000D01*
X243455000Y-85370000D02*
X243455000Y-87970000D01*
%TO.C,D2*%
X221020000Y-41115000D02*
X221020000Y-44205000D01*
X226569999Y-42660462D02*
G75*
G03*
X221020001Y-41115170I-2989999J462D01*
G01*
X221020000Y-44204830D02*
G75*
G03*
X226570000Y-42659538I2560000J1544830D01*
G01*
X226080000Y-42660000D02*
G75*
G03*
X226080000Y-42660000I-2500000J0D01*
G01*
%TO.C,D1*%
X227818000Y-41127000D02*
X227818000Y-44217000D01*
X233367999Y-42672462D02*
G75*
G03*
X227818001Y-41127170I-2989999J462D01*
G01*
X227818000Y-44216830D02*
G75*
G03*
X233368000Y-42671538I2560000J1544830D01*
G01*
X232878000Y-42672000D02*
G75*
G03*
X232878000Y-42672000I-2500000J0D01*
G01*
%TO.C,A1*%
X218824000Y-93856000D02*
X218824000Y-91186000D01*
X218824000Y-88646000D02*
X218824000Y-50416000D01*
X218824000Y-50416000D02*
X213744000Y-50416000D01*
X216154000Y-91186000D02*
X218824000Y-91186000D01*
X216154000Y-88646000D02*
X218824000Y-88646000D01*
X216154000Y-88646000D02*
X216154000Y-91186000D01*
X216154000Y-88646000D02*
X216154000Y-53086000D01*
X216154000Y-53086000D02*
X218824000Y-53086000D01*
X213744000Y-58296000D02*
X205864000Y-58296000D01*
X213744000Y-47876000D02*
X213744000Y-58296000D01*
X205864000Y-58296000D02*
X205864000Y-47876000D01*
X205864000Y-47876000D02*
X213744000Y-47876000D01*
X203454000Y-91186000D02*
X203454000Y-53086000D01*
X203454000Y-91186000D02*
X200784000Y-91186000D01*
X203454000Y-53086000D02*
X200784000Y-53086000D01*
X200784000Y-93856000D02*
X218824000Y-93856000D01*
X200784000Y-50416000D02*
X205864000Y-50416000D01*
X200784000Y-50416000D02*
X200784000Y-93856000D01*
D17*
%TO.C,RDM1*%
X221234000Y-93937500D02*
X239014000Y-93937500D01*
X239014000Y-93937500D02*
X239014000Y-55837500D01*
X221234000Y-55837500D02*
X221234000Y-93937500D01*
X239014000Y-55837500D02*
X221234000Y-55837500D01*
D16*
%TO.C,R1*%
X229846000Y-48260000D02*
X229076000Y-48260000D01*
X229076000Y-49630000D02*
X229076000Y-46890000D01*
X229076000Y-46890000D02*
X222536000Y-46890000D01*
X222536000Y-49630000D02*
X229076000Y-49630000D01*
X222536000Y-46890000D02*
X222536000Y-49630000D01*
X221766000Y-48260000D02*
X222536000Y-48260000D01*
%TO.C,U1*%
X214662000Y-47410000D02*
X219303000Y-47410000D01*
X214662000Y-47410000D02*
X214662000Y-37170000D01*
X216172000Y-47410000D02*
X216172000Y-37170000D01*
X219303000Y-47410000D02*
X219303000Y-37170000D01*
X214662000Y-44140000D02*
X216172000Y-44140000D01*
X214662000Y-40439000D02*
X216172000Y-40439000D01*
X214662000Y-37170000D02*
X219303000Y-37170000D01*
%TO.C,Salida1*%
X243455000Y-50455000D02*
X242125000Y-50455000D01*
X243455000Y-49125000D02*
X243455000Y-50455000D01*
X243455000Y-47855000D02*
X243455000Y-42715000D01*
X243455000Y-47855000D02*
X240795000Y-47855000D01*
X243455000Y-42715000D02*
X240795000Y-42715000D01*
X240795000Y-47855000D02*
X240795000Y-42715000D01*
%TO.C,R2*%
X221766000Y-52578000D02*
X222536000Y-52578000D01*
X222536000Y-51208000D02*
X222536000Y-53948000D01*
X222536000Y-53948000D02*
X229076000Y-53948000D01*
X229076000Y-51208000D02*
X222536000Y-51208000D01*
X229076000Y-53948000D02*
X229076000Y-51208000D01*
X229846000Y-52578000D02*
X229076000Y-52578000D01*
%TO.C,DC-9V1*%
X197040000Y-49973000D02*
X198370000Y-49973000D01*
X197040000Y-51303000D02*
X197040000Y-49973000D01*
X197040000Y-52573000D02*
X197040000Y-55173000D01*
X197040000Y-52573000D02*
X199700000Y-52573000D01*
X197040000Y-55173000D02*
X199700000Y-55173000D01*
X199700000Y-52573000D02*
X199700000Y-55173000D01*
%TD*%
M02*
