M48
; DRILL file {KiCad 7.0.7} date Tue Feb 13 23:09:28 2024
; FORMAT={-:-/ absolute / metric / decimal}
; #@! TF.CreationDate,2024-02-13T23:09:28-05:00
; #@! TF.GenerationSoftware,Kicad,Pcbnew,7.0.7
; #@! TF.FileFunction,MixedPlating,1,2
FMAT,2
METRIC
; #@! TA.AperFunction,Plated,PTH,ComponentDrill
T1C0.800
; #@! TA.AperFunction,Plated,PTH,ComponentDrill
T2C0.900
; #@! TA.AperFunction,Plated,PTH,ComponentDrill
T3C1.000
; #@! TA.AperFunction,Plated,PTH,ComponentDrill
T4C1.020
; #@! TA.AperFunction,Plated,PTH,ComponentDrill
T5C1.090
; #@! TA.AperFunction,Plated,PTH,ComponentDrill
T6C2.200
%
G90
G05
T1
X230.124Y-43.942
X230.124Y-50.292
X230.124Y-80.01
X240.284Y-43.942
X240.284Y-50.292
X240.284Y-80.01
T2
X230.632Y-56.896
X230.632Y-59.436
X240.03Y-56.896
X240.03Y-59.436
T3
X208.27Y-44.45
X208.27Y-46.99
X208.27Y-49.53
X208.27Y-52.07
X208.27Y-54.61
X208.27Y-57.15
X208.27Y-59.69
X208.27Y-62.23
X208.27Y-64.77
X208.27Y-67.31
X208.27Y-69.85
X208.27Y-72.39
X208.27Y-74.93
X208.27Y-77.47
X208.27Y-80.01
X223.51Y-44.45
X223.51Y-46.99
X223.51Y-49.53
X223.51Y-52.07
X223.51Y-54.61
X223.51Y-57.15
X223.51Y-59.69
X223.51Y-62.23
X223.51Y-64.77
X223.51Y-67.31
X223.51Y-69.85
X223.51Y-72.39
X223.51Y-74.93
X223.51Y-77.47
X223.51Y-80.01
T4
X229.108Y-88.9
X231.648Y-88.9
X234.188Y-88.9
T5
X208.534Y-88.9
X211.074Y-88.9
X213.614Y-88.9
X216.154Y-88.9
X218.694Y-88.9
X221.234Y-88.9
X223.774Y-88.9
T6
X197.866Y-39.37
X197.866Y-92.456
X241.808Y-38.862
X241.808Y-92.456
T0
M30
