%TF.GenerationSoftware,KiCad,Pcbnew,7.0.7*%
%TF.CreationDate,2024-02-13T22:49:07-05:00*%
%TF.ProjectId,ControlAcceso,436f6e74-726f-46c4-9163-6365736f2e6b,rev?*%
%TF.SameCoordinates,Original*%
%TF.FileFunction,Legend,Top*%
%TF.FilePolarity,Positive*%
%FSLAX46Y46*%
G04 Gerber Fmt 4.6, Leading zero omitted, Abs format (unit mm)*
G04 Created by KiCad (PCBNEW 7.0.7) date 2024-02-13 22:49:07*
%MOMM*%
%LPD*%
G01*
G04 APERTURE LIST*
%ADD10C,0.100000*%
%ADD11C,0.150000*%
%ADD12C,0.200000*%
%ADD13C,0.084675*%
%ADD14C,0.120000*%
G04 APERTURE END LIST*
D10*
X235044254Y-64768194D02*
X234928096Y-64756090D01*
X234827162Y-64720962D01*
X234743279Y-64664586D01*
X234667699Y-64571383D01*
X234627759Y-64474505D01*
X234610719Y-64362056D01*
X234610220Y-64337855D01*
X241416246Y-64751053D02*
X241231360Y-64751053D01*
X241755001Y-64240939D02*
X242124999Y-64240939D01*
X238717546Y-64502016D02*
X238722759Y-64455379D01*
X228516906Y-64259056D02*
X228470641Y-64350231D01*
X228419098Y-64380307D01*
X228185083Y-64084115D02*
X228227679Y-64090537D01*
X234152276Y-64035132D02*
X234050404Y-64065459D01*
X233983483Y-64146320D01*
X233956894Y-64240939D01*
X238944340Y-64751053D02*
X238752229Y-64751053D01*
X235618116Y-64254728D02*
X235618116Y-64751053D01*
X235618116Y-64751053D02*
X235405482Y-64751053D01*
X233510938Y-63763822D02*
X233510938Y-64751053D01*
X230760355Y-66042072D02*
X230561252Y-66230766D01*
X235955381Y-64751053D02*
X235955381Y-64275452D01*
X230538950Y-63896823D02*
X230795438Y-63896823D01*
X236736600Y-64043873D02*
X236630352Y-64075333D01*
X236562902Y-64156000D01*
X236532308Y-64252385D01*
X236525745Y-64330832D01*
X227815513Y-64101486D02*
X227801928Y-64045446D01*
X234216252Y-64607530D02*
X234316079Y-64601432D01*
X234418457Y-64579472D01*
X234449580Y-64569435D01*
X233956894Y-64240939D02*
X234326840Y-64240939D01*
X235253389Y-64567657D02*
X235282800Y-64725026D01*
X232151381Y-66592416D02*
X232254747Y-66592416D01*
X238546533Y-64040345D02*
X238445951Y-64052171D01*
X238348822Y-64086430D01*
X238320026Y-64102607D01*
X235794459Y-64062846D02*
X235699046Y-64092832D01*
X235633183Y-64175379D01*
X235628548Y-64187306D01*
X229338943Y-63896823D02*
X229631832Y-63896823D01*
X229631832Y-63896823D02*
X229945193Y-64243951D01*
X240263301Y-63909063D02*
X240468885Y-63909063D01*
X232254747Y-63783164D02*
X232151381Y-63783164D01*
X228611784Y-63896823D02*
X229227838Y-63896823D01*
X231241001Y-64543321D02*
X231241001Y-64811506D01*
X241196619Y-64417313D02*
X241196619Y-63909063D01*
X240462064Y-64152823D02*
X240462064Y-65093278D01*
X228155044Y-63888969D02*
X228262228Y-63893389D01*
X228361911Y-63910010D01*
X228408724Y-63926375D01*
X234480711Y-64714563D02*
X234378987Y-64747349D01*
X234273537Y-64764207D01*
X234186729Y-64768194D01*
X239333200Y-64751053D02*
X239120396Y-64751053D01*
X228146156Y-63991103D02*
X228070168Y-64000790D01*
X229242227Y-64301222D02*
X229242227Y-64414188D01*
X230127213Y-64952994D02*
X230760355Y-66042072D01*
X237512777Y-64398336D02*
X237518055Y-64457099D01*
X239296797Y-63909063D02*
X239305509Y-64068095D01*
X228740718Y-64910197D02*
X228736872Y-64876116D01*
X242325482Y-64299788D02*
X242318656Y-64389565D01*
X237516276Y-64657607D02*
X237512777Y-64657607D01*
X241950265Y-64035132D02*
X241848520Y-64065459D01*
X241781646Y-64146320D01*
X241755001Y-64240939D01*
X240249371Y-64396502D02*
X240249371Y-64256534D01*
X231137293Y-64414188D02*
X230879367Y-64414188D01*
X239592323Y-63895221D02*
X239592323Y-64093977D01*
X239305509Y-64068095D02*
X239310728Y-64068095D01*
X238722759Y-64455379D02*
X238722759Y-64339488D01*
X235868756Y-63890031D02*
X235977533Y-63909050D01*
X236073470Y-63970853D01*
X236135301Y-64065624D01*
X236164017Y-64180880D01*
X236167898Y-64251288D01*
X229369956Y-65469671D02*
X229395986Y-65456685D01*
X238731588Y-64657607D02*
X238652658Y-64726411D01*
X238551808Y-64763586D01*
X238482609Y-64770000D01*
X230216244Y-64811506D02*
X230183910Y-64821997D01*
X228019606Y-64243317D02*
X228019606Y-64244755D01*
X230537289Y-64207835D02*
X230765228Y-64207835D01*
X237493686Y-64038625D02*
X237562565Y-63962069D01*
X237651342Y-63912000D01*
X237758820Y-63890656D01*
X237782455Y-63890031D01*
X240254472Y-64019622D02*
X240258029Y-64021430D01*
X239338413Y-64249654D02*
X239333200Y-64313576D01*
X233956894Y-64389565D02*
X233980384Y-64487810D01*
X234055695Y-64568019D01*
X234153964Y-64602631D01*
X234216252Y-64607530D01*
X241755001Y-64389565D02*
X241778489Y-64487810D01*
X241853789Y-64568019D01*
X241952034Y-64602631D01*
X242014300Y-64607530D01*
X228070168Y-64000790D02*
X228043681Y-64028968D01*
X241231360Y-64751053D02*
X241220752Y-64624815D01*
X230358421Y-66374206D02*
X229424188Y-64830224D01*
X235583604Y-63909063D02*
X235593983Y-64035132D01*
X237160150Y-64322262D02*
X237150370Y-64430325D01*
X237113378Y-64543441D01*
X237053595Y-64632852D01*
X236976090Y-64699305D01*
X236885929Y-64743546D01*
X236788182Y-64766324D01*
X236728000Y-64770000D01*
X237706432Y-64605810D02*
X237806535Y-64580437D01*
X237877153Y-64509569D01*
X237912560Y-64414747D01*
X237920788Y-64327450D01*
X238722759Y-64339488D02*
X238613480Y-64345392D01*
X238509545Y-64374174D01*
X238435521Y-64453250D01*
X238429065Y-64496799D01*
X229563841Y-64543321D02*
X231241001Y-64543321D01*
X230154217Y-64836415D02*
X230129678Y-64862643D01*
X240057376Y-64602313D02*
X240159313Y-64572688D01*
X240227737Y-64492578D01*
X240238939Y-64462258D01*
X235246568Y-64088847D02*
X235149786Y-64060116D01*
X235085817Y-64055966D01*
X229198773Y-64090684D02*
X229198773Y-64200896D01*
X240009051Y-63890031D02*
X240109020Y-63904418D01*
X240201317Y-63955092D01*
X240254472Y-64019622D01*
X228419098Y-64380307D02*
X228316659Y-64409451D01*
X228213259Y-64420937D01*
X228136927Y-64422988D01*
X236306118Y-64336020D02*
X236318999Y-64214458D01*
X236355980Y-64110021D01*
X236414562Y-64024133D01*
X236492249Y-63958217D01*
X236586544Y-63913698D01*
X236694949Y-63892001D01*
X236741703Y-63890031D01*
X228274919Y-64047882D02*
X228274919Y-64045446D01*
X234520443Y-64389565D02*
X233956894Y-64389565D01*
X235078707Y-63890031D02*
X235179186Y-63898791D01*
X235279898Y-63926056D01*
X235284520Y-63927984D01*
X233298245Y-63763822D02*
X232966199Y-63763822D01*
X230110476Y-66503221D02*
X230358421Y-66374206D01*
X238320026Y-64102607D02*
X238278575Y-63964357D01*
X230879367Y-64414188D02*
X230827432Y-64320886D01*
X235593983Y-64035132D02*
X235599195Y-64035132D01*
X237512777Y-65093278D02*
X237300090Y-65093278D01*
X227873560Y-64382027D02*
X227801812Y-64307175D01*
X227792178Y-64250944D01*
X238582877Y-63890031D02*
X238695673Y-63901968D01*
X238797611Y-63944320D01*
X238876159Y-64024508D01*
X238918039Y-64128425D01*
X238930177Y-64228890D01*
X238930409Y-64246186D01*
X232254747Y-66592416D02*
X232254747Y-63783164D01*
X235955381Y-64275452D02*
X235941383Y-64172554D01*
X235883098Y-64087798D01*
X235794459Y-64062846D01*
X228717494Y-64969304D02*
X228732974Y-64939178D01*
X234164369Y-63890031D02*
X234279386Y-63905489D01*
X234384936Y-63958981D01*
X234458569Y-64040703D01*
X234503997Y-64140182D01*
X234524933Y-64246946D01*
X234527376Y-64299788D01*
X233298245Y-64751053D02*
X233298245Y-63763822D01*
X240462064Y-65093278D02*
X240249371Y-65093278D01*
X242014300Y-64607530D02*
X242114124Y-64601432D01*
X242216505Y-64579472D01*
X242247687Y-64569435D01*
X230129678Y-64862643D02*
X230119305Y-64894002D01*
X232203089Y-63783142D02*
X232203089Y-66592400D01*
X233752867Y-64342900D02*
X233763194Y-64235321D01*
X233793968Y-64134471D01*
X233844876Y-64045061D01*
X233915607Y-63971798D01*
X234005848Y-63919393D01*
X234115287Y-63892553D01*
X234164369Y-63890031D01*
X237518055Y-64457099D02*
X237568695Y-64547944D01*
X237656918Y-64599497D01*
X237706432Y-64605810D01*
X233846254Y-63763822D02*
X233510938Y-63763822D01*
X233846254Y-63585759D02*
X233846254Y-63763822D01*
X230765228Y-64207835D02*
X230654411Y-64019822D01*
X228052052Y-64304002D02*
X228154429Y-64318606D01*
X228158912Y-64318621D01*
X228611784Y-64414188D02*
X228611784Y-63896823D01*
X237300090Y-64189085D02*
X237299036Y-64081931D01*
X237296084Y-63978833D01*
X237293210Y-63909063D01*
X235284520Y-63927984D02*
X235246568Y-64088847D01*
X228726441Y-64857713D02*
X228712340Y-64843237D01*
X240864737Y-63909063D02*
X240864737Y-64367178D01*
X237711481Y-64057716D02*
X237610996Y-64087072D01*
X237538207Y-64165852D01*
X237519717Y-64215027D01*
X228244733Y-64306697D02*
X228276005Y-64273389D01*
X239848242Y-64332609D02*
X239861957Y-64439664D01*
X239909084Y-64533970D01*
X239998657Y-64594125D01*
X240057376Y-64602313D01*
X237293210Y-63909063D02*
X237479926Y-63909063D01*
X228043681Y-64028968D02*
X228137034Y-64075201D01*
X228185083Y-64084115D01*
X230795438Y-63896823D02*
X231137293Y-64414188D01*
X230183910Y-64821997D02*
X230154217Y-64836415D01*
X238717546Y-64187306D02*
X238683030Y-64087613D01*
X238585097Y-64042658D01*
X238546533Y-64040345D01*
X229433422Y-63764051D02*
X229318144Y-63746452D01*
X229216559Y-63697238D01*
X229133991Y-63621775D01*
X229075763Y-63525434D01*
X229047199Y-63413584D01*
X229045190Y-63373782D01*
X240249371Y-64256534D02*
X240244210Y-64204654D01*
X235628548Y-64187306D02*
X235618116Y-64254728D01*
X229466954Y-65456685D02*
X229490119Y-65472277D01*
X239113574Y-63909063D02*
X239296797Y-63909063D01*
D11*
X194818000Y-36576000D02*
X244602000Y-36576000D01*
X244602000Y-95250000D01*
X194818000Y-95250000D01*
X194818000Y-36576000D01*
D10*
X229277027Y-64545299D02*
X228304013Y-66238562D01*
X238136915Y-64318736D02*
X238128293Y-64425493D01*
X238095641Y-64538383D01*
X238042788Y-64628653D01*
X237958891Y-64707452D01*
X237859833Y-64754431D01*
X237753214Y-64770000D01*
X227856706Y-64144769D02*
X227815513Y-64101486D01*
X238429065Y-64496799D02*
X238468443Y-64592060D01*
X238549973Y-64617849D01*
X228491276Y-64041836D02*
X228491276Y-64047882D01*
X228276005Y-64273389D02*
X228181729Y-64226718D01*
X228152895Y-64221508D01*
X228732974Y-64939178D02*
X228740718Y-64910197D01*
X230654411Y-64019822D02*
X230537289Y-64207835D01*
X228227679Y-64090537D02*
X228326852Y-64108951D01*
X228371288Y-64119520D01*
X237512777Y-64657607D02*
X237512777Y-65093278D01*
X227619245Y-64545299D02*
X229277027Y-64545299D01*
X241409306Y-64498605D02*
X241410579Y-64604304D01*
X241414305Y-64710644D01*
X241416246Y-64751053D01*
X241984947Y-64768194D02*
X241865326Y-64756214D01*
X241763256Y-64721457D01*
X241679851Y-64665698D01*
X241605974Y-64573560D01*
X241567558Y-64477839D01*
X241551377Y-64366792D01*
X241550908Y-64342900D01*
X228636035Y-64818357D02*
X227619245Y-64818357D01*
X229395986Y-65456685D02*
X229429348Y-65450351D01*
X227792178Y-64243317D02*
X228019606Y-64243317D01*
X239120396Y-64751053D02*
X239120396Y-64180432D01*
X237479926Y-63909063D02*
X237490364Y-64038625D01*
X240468885Y-63909063D02*
X240464706Y-64011314D01*
X240462302Y-64112098D01*
X240462064Y-64152823D01*
X232151381Y-63783164D02*
X232151381Y-66592416D01*
X237490364Y-64038625D02*
X237493686Y-64038625D01*
X240249371Y-65093278D02*
X240249371Y-64635248D01*
X238278575Y-63964357D02*
X238376079Y-63921143D01*
X238476812Y-63897859D01*
X238582877Y-63890031D01*
X238930409Y-64548767D02*
X238933028Y-64652453D01*
X238944340Y-64751053D01*
X240238939Y-64462258D02*
X240249371Y-64396502D01*
X228304013Y-66238562D02*
X228097255Y-66044308D01*
X228371288Y-64119520D02*
X228444611Y-64148268D01*
X239542336Y-63890031D02*
X239592323Y-63895221D01*
X228753615Y-66503221D02*
X229351840Y-65492918D01*
X228097255Y-66044308D02*
X228717494Y-64969304D01*
X228843105Y-64200896D02*
X228843105Y-64301222D01*
X230167343Y-64414188D02*
X229863845Y-64414188D01*
X240652109Y-63909063D02*
X240864737Y-63909063D01*
X228498044Y-64195795D02*
X228516906Y-64259056D01*
X227619245Y-64818357D02*
X227619245Y-64545299D01*
X228408724Y-63926375D02*
X228483180Y-63997158D01*
X228491276Y-64041836D01*
X236734939Y-64616129D02*
X236836235Y-64583648D01*
X236901897Y-64505207D01*
X236934559Y-64403507D01*
X236940576Y-64327450D01*
X228678573Y-64826239D02*
X228636035Y-64818357D01*
X242124999Y-64240939D02*
X242107808Y-64141671D01*
X242046009Y-64061559D01*
X241950265Y-64035132D01*
X227891847Y-63928988D02*
X227994424Y-63900225D01*
X228102915Y-63889940D01*
X228155044Y-63888969D01*
X237512777Y-64268630D02*
X237512777Y-64398336D01*
X229338943Y-64414188D02*
X229338943Y-63896823D01*
X238717546Y-64201213D02*
X238717546Y-64187306D01*
X237753214Y-64770000D02*
X237651639Y-64754972D01*
X237562774Y-64708664D01*
X237516276Y-64657607D01*
X232966199Y-63585759D02*
X233846254Y-63585759D01*
X240249371Y-64635248D02*
X240245877Y-64635248D01*
X228843105Y-64008298D02*
X228843105Y-64090684D01*
X228510771Y-66383094D02*
X228753615Y-66503221D01*
X240245877Y-64635248D02*
X240173614Y-64713545D01*
X240080187Y-64757859D01*
X239984911Y-64770000D01*
X241196619Y-63909063D02*
X241409306Y-63909063D01*
X241962475Y-63890031D02*
X242077490Y-63905489D01*
X242183039Y-63958981D01*
X242256673Y-64040703D01*
X242302102Y-64140182D01*
X242323038Y-64246946D01*
X242325482Y-64299788D01*
X230468551Y-64320886D02*
X230412711Y-64414188D01*
X230119305Y-64922781D02*
X230127213Y-64952994D01*
X236525745Y-64330832D02*
X236537038Y-64430914D01*
X236575718Y-64524628D01*
X236648245Y-64594406D01*
X236734939Y-64616129D01*
X241550908Y-64342900D02*
X241561250Y-64235321D01*
X241592058Y-64134471D01*
X241643006Y-64045061D01*
X241713767Y-63971798D01*
X241804014Y-63919393D01*
X241913421Y-63892553D01*
X241962475Y-63890031D01*
X235405482Y-64159703D02*
X235404201Y-64056957D01*
X235400525Y-63950824D01*
X235398660Y-63909063D01*
X240864737Y-64367178D02*
X240875902Y-64472518D01*
X240922883Y-64561254D01*
X241021996Y-64597096D01*
X241184637Y-64483012D02*
X241196619Y-64417313D01*
X235085817Y-64055966D02*
X234976663Y-64077002D01*
X234887233Y-64144242D01*
X234840789Y-64233962D01*
X234828179Y-64329084D01*
X237782455Y-63890031D02*
X237887099Y-63907076D01*
X237979736Y-63956390D01*
X238055311Y-64035241D01*
X238108771Y-64140894D01*
X238132781Y-64247442D01*
X238136915Y-64318736D01*
X228274919Y-64045446D02*
X228242126Y-64005063D01*
X230167343Y-63896823D02*
X230167343Y-64414188D01*
X236167898Y-64751053D02*
X235955381Y-64751053D01*
X229227838Y-64008298D02*
X228843105Y-64008298D01*
X229863845Y-64414188D02*
X229560635Y-64065770D01*
X229198773Y-64200896D02*
X228843105Y-64200896D01*
X229424188Y-64830224D02*
X228510771Y-66383094D01*
X229560635Y-64065770D02*
X229560635Y-64414188D01*
X236940576Y-64327450D02*
X236929126Y-64227707D01*
X236886673Y-64126372D01*
X236809348Y-64058783D01*
X236736600Y-64043873D01*
X239120396Y-64180432D02*
X239119732Y-64072895D01*
X239116816Y-63966746D01*
X239113574Y-63909063D01*
X240944370Y-64770000D02*
X240834491Y-64751386D01*
X240741161Y-64689821D01*
X240682498Y-64593970D01*
X240655696Y-64476046D01*
X240652109Y-64403497D01*
X228019606Y-64244755D02*
X228017569Y-64259056D01*
X229429348Y-65450351D02*
X229466954Y-65456685D01*
X241220752Y-64624815D02*
X241215652Y-64624815D01*
X235282800Y-64725026D02*
X235186208Y-64754402D01*
X235082944Y-64767191D01*
X235044254Y-64768194D01*
X235085817Y-64600593D02*
X235186367Y-64589488D01*
X235253389Y-64567657D01*
X229821367Y-63373782D02*
X229803889Y-63489609D01*
X229755000Y-63591716D01*
X229680014Y-63674735D01*
X229584248Y-63733295D01*
X229473017Y-63762029D01*
X229433422Y-63764051D01*
X233510938Y-64751053D02*
X233298245Y-64751053D01*
X229242227Y-64414188D02*
X228611784Y-64414188D01*
X228131250Y-64218009D02*
X228108262Y-64214082D01*
X228736872Y-64876116D02*
X228726441Y-64857713D01*
X242278870Y-64714563D02*
X242177078Y-64747349D01*
X242071698Y-64764207D01*
X241984947Y-64768194D01*
X234449580Y-64569435D02*
X234480711Y-64714563D01*
X229351840Y-65492918D02*
X229369956Y-65469671D01*
X228158912Y-64318621D02*
X228244733Y-64306697D01*
X239592323Y-64093977D02*
X239528464Y-64088847D01*
X234186729Y-64768194D02*
X234067119Y-64756214D01*
X233965079Y-64721457D01*
X233881713Y-64665698D01*
X233807884Y-64573560D01*
X233769501Y-64477839D01*
X233753336Y-64366792D01*
X233752867Y-64342900D01*
X241215652Y-64624815D02*
X241146856Y-64702453D01*
X241056736Y-64752019D01*
X240944370Y-64770000D01*
X231241001Y-64811506D02*
X230216244Y-64811506D01*
X228843105Y-64090684D02*
X229198773Y-64090684D01*
X242247687Y-64569435D02*
X242278870Y-64714563D01*
X240244210Y-64204654D02*
X240193180Y-64111867D01*
X240105077Y-64062443D01*
X240062595Y-64057716D01*
X239984911Y-64770000D02*
X239881729Y-64753114D01*
X239789728Y-64704184D01*
X239714236Y-64625800D01*
X239660583Y-64520549D01*
X239636397Y-64414186D01*
X239632225Y-64342900D01*
X241021996Y-64597096D02*
X241122771Y-64564767D01*
X241184637Y-64483012D01*
X239528464Y-64088847D02*
X239429305Y-64114195D01*
X239358062Y-64191150D01*
X239338413Y-64249654D01*
X232966199Y-63763822D02*
X232966199Y-63585759D01*
X239310728Y-64068095D02*
X239364370Y-63974704D01*
X239448027Y-63911339D01*
X239542336Y-63890031D01*
X235599195Y-64035132D02*
X235671698Y-63954542D01*
X235762229Y-63906811D01*
X235868756Y-63890031D01*
X228712340Y-64843237D02*
X228678573Y-64826239D01*
X237519717Y-64215027D02*
X237512777Y-64268630D01*
X235398660Y-63909063D02*
X235583604Y-63909063D01*
X239333200Y-64313576D02*
X239333200Y-64751053D01*
X238736637Y-64657607D02*
X238731588Y-64657607D01*
X239632225Y-64342900D02*
X239641040Y-64235077D01*
X239674206Y-64121431D01*
X239727405Y-64030889D01*
X239810788Y-63952171D01*
X239907493Y-63905450D01*
X240009051Y-63890031D01*
X229045190Y-63373782D02*
X229062683Y-63257850D01*
X229111615Y-63155677D01*
X229186661Y-63072623D01*
X229282498Y-63014047D01*
X229393803Y-62985310D01*
X229433422Y-62983289D01*
X230827432Y-64320886D02*
X230468551Y-64320886D01*
X240062595Y-64057716D02*
X239960944Y-64083578D01*
X239884945Y-64165001D01*
X239853754Y-64261473D01*
X239848242Y-64332609D01*
X234527376Y-64299788D02*
X234520443Y-64389565D01*
X238218039Y-64519244D02*
X238237494Y-64411459D01*
X238294111Y-64325514D01*
X238385267Y-64261757D01*
X238485722Y-64225823D01*
X238606821Y-64205737D01*
X238717546Y-64201213D01*
X227801928Y-64045446D02*
X227848332Y-63954411D01*
X227891847Y-63928988D01*
X228242126Y-64005063D02*
X228146156Y-63991103D01*
X237920788Y-64327450D02*
X237907311Y-64222542D01*
X237860601Y-64127859D01*
X237770842Y-64066220D01*
X237711481Y-64057716D01*
X236167898Y-64251288D02*
X236167898Y-64751053D01*
X227792178Y-64250944D02*
X227792178Y-64243317D01*
X234326840Y-64240939D02*
X234309744Y-64141671D01*
X234248023Y-64061559D01*
X234152276Y-64035132D01*
X228136927Y-64422988D02*
X228033032Y-64418978D01*
X227927305Y-64401806D01*
X227873560Y-64382027D01*
X228491276Y-64047882D02*
X228274919Y-64047882D01*
X238752229Y-64751053D02*
X238736637Y-64657607D01*
X237300090Y-65093278D02*
X237300090Y-64189085D01*
X228152895Y-64221508D02*
X228131250Y-64218009D01*
X238930409Y-64246186D02*
X238930409Y-64548767D01*
X230412711Y-64414188D02*
X230180757Y-64414188D01*
X228108262Y-64214082D02*
X228009133Y-64195741D01*
X227911541Y-64169889D01*
X227856706Y-64144769D01*
X234610220Y-64337855D02*
X234622688Y-64224190D01*
X234659330Y-64122076D01*
X234719000Y-64034671D01*
X234800553Y-63965132D01*
X234902843Y-63916617D01*
X235024725Y-63892285D01*
X235078707Y-63890031D01*
X229945193Y-64243951D02*
X229945193Y-63896823D01*
X228843105Y-64301222D02*
X229242227Y-64301222D01*
X229507032Y-65492918D02*
X230110476Y-66503221D01*
X228444611Y-64148268D02*
X228498044Y-64195795D01*
X229945193Y-63896823D02*
X230167343Y-63896823D01*
X234828179Y-64329084D02*
X234843478Y-64431643D01*
X234894064Y-64520761D01*
X234984274Y-64582488D01*
X235085817Y-64600593D01*
X236728000Y-64770000D02*
X236621250Y-64758304D01*
X236525160Y-64724031D01*
X236428207Y-64654826D01*
X236366278Y-64575190D01*
X236324747Y-64476891D01*
X236306655Y-64361152D01*
X236306118Y-64336020D01*
X242318656Y-64389565D02*
X241755001Y-64389565D01*
X238482609Y-64770000D02*
X238382267Y-64753612D01*
X238295429Y-64701200D01*
X238235539Y-64612443D01*
X238218039Y-64519244D01*
X230561252Y-66230766D02*
X229563841Y-64543321D01*
X229433422Y-62983289D02*
X229548627Y-63000888D01*
X229650139Y-63050113D01*
X229732642Y-63125604D01*
X229790820Y-63221999D01*
X229819359Y-63333940D01*
X229821367Y-63373782D01*
X230119305Y-64894002D02*
X230119305Y-64922781D01*
X230180757Y-64414188D02*
X230538950Y-63896823D01*
X240258029Y-64021430D02*
X240263301Y-63909063D01*
X238549973Y-64617849D02*
X238647403Y-64590280D01*
X238713231Y-64513288D01*
X238717546Y-64502016D01*
X235405482Y-64751053D02*
X235405482Y-64159703D01*
X229560635Y-64414188D02*
X229338943Y-64414188D01*
X236741703Y-63890031D02*
X236852857Y-63902577D01*
X236949894Y-63938739D01*
X237044982Y-64010188D01*
X237113616Y-64108625D01*
X237148194Y-64208509D01*
X237160150Y-64322262D01*
X229490119Y-65472277D02*
X229507032Y-65492918D01*
X229227838Y-63896823D02*
X229227838Y-64008298D01*
X241409306Y-63909063D02*
X241409306Y-64498605D01*
X240652109Y-64403497D02*
X240652109Y-63909063D01*
X228017569Y-64259056D02*
X228052052Y-64304002D01*
D12*
X197860266Y-72778564D02*
X197860266Y-72016660D01*
X198193600Y-71588088D02*
X198241219Y-71445231D01*
X198241219Y-71445231D02*
X198241219Y-71207136D01*
X198241219Y-71207136D02*
X198193600Y-71111898D01*
X198193600Y-71111898D02*
X198145980Y-71064279D01*
X198145980Y-71064279D02*
X198050742Y-71016660D01*
X198050742Y-71016660D02*
X197955504Y-71016660D01*
X197955504Y-71016660D02*
X197860266Y-71064279D01*
X197860266Y-71064279D02*
X197812647Y-71111898D01*
X197812647Y-71111898D02*
X197765028Y-71207136D01*
X197765028Y-71207136D02*
X197717409Y-71397612D01*
X197717409Y-71397612D02*
X197669790Y-71492850D01*
X197669790Y-71492850D02*
X197622171Y-71540469D01*
X197622171Y-71540469D02*
X197526933Y-71588088D01*
X197526933Y-71588088D02*
X197431695Y-71588088D01*
X197431695Y-71588088D02*
X197336457Y-71540469D01*
X197336457Y-71540469D02*
X197288838Y-71492850D01*
X197288838Y-71492850D02*
X197241219Y-71397612D01*
X197241219Y-71397612D02*
X197241219Y-71159517D01*
X197241219Y-71159517D02*
X197288838Y-71016660D01*
X198241219Y-70588088D02*
X197574552Y-70588088D01*
X197241219Y-70588088D02*
X197288838Y-70635707D01*
X197288838Y-70635707D02*
X197336457Y-70588088D01*
X197336457Y-70588088D02*
X197288838Y-70540469D01*
X197288838Y-70540469D02*
X197241219Y-70588088D01*
X197241219Y-70588088D02*
X197336457Y-70588088D01*
X198193600Y-70159517D02*
X198241219Y-70064279D01*
X198241219Y-70064279D02*
X198241219Y-69873803D01*
X198241219Y-69873803D02*
X198193600Y-69778565D01*
X198193600Y-69778565D02*
X198098361Y-69730946D01*
X198098361Y-69730946D02*
X198050742Y-69730946D01*
X198050742Y-69730946D02*
X197955504Y-69778565D01*
X197955504Y-69778565D02*
X197907885Y-69873803D01*
X197907885Y-69873803D02*
X197907885Y-70016660D01*
X197907885Y-70016660D02*
X197860266Y-70111898D01*
X197860266Y-70111898D02*
X197765028Y-70159517D01*
X197765028Y-70159517D02*
X197717409Y-70159517D01*
X197717409Y-70159517D02*
X197622171Y-70111898D01*
X197622171Y-70111898D02*
X197574552Y-70016660D01*
X197574552Y-70016660D02*
X197574552Y-69873803D01*
X197574552Y-69873803D02*
X197622171Y-69778565D01*
X197574552Y-69445231D02*
X197574552Y-69064279D01*
X197241219Y-69302374D02*
X198098361Y-69302374D01*
X198098361Y-69302374D02*
X198193600Y-69254755D01*
X198193600Y-69254755D02*
X198241219Y-69159517D01*
X198241219Y-69159517D02*
X198241219Y-69064279D01*
X198193600Y-68349993D02*
X198241219Y-68445231D01*
X198241219Y-68445231D02*
X198241219Y-68635707D01*
X198241219Y-68635707D02*
X198193600Y-68730945D01*
X198193600Y-68730945D02*
X198098361Y-68778564D01*
X198098361Y-68778564D02*
X197717409Y-68778564D01*
X197717409Y-68778564D02*
X197622171Y-68730945D01*
X197622171Y-68730945D02*
X197574552Y-68635707D01*
X197574552Y-68635707D02*
X197574552Y-68445231D01*
X197574552Y-68445231D02*
X197622171Y-68349993D01*
X197622171Y-68349993D02*
X197717409Y-68302374D01*
X197717409Y-68302374D02*
X197812647Y-68302374D01*
X197812647Y-68302374D02*
X197907885Y-68778564D01*
X198241219Y-67873802D02*
X197574552Y-67873802D01*
X197669790Y-67873802D02*
X197622171Y-67826183D01*
X197622171Y-67826183D02*
X197574552Y-67730945D01*
X197574552Y-67730945D02*
X197574552Y-67588088D01*
X197574552Y-67588088D02*
X197622171Y-67492850D01*
X197622171Y-67492850D02*
X197717409Y-67445231D01*
X197717409Y-67445231D02*
X198241219Y-67445231D01*
X197717409Y-67445231D02*
X197622171Y-67397612D01*
X197622171Y-67397612D02*
X197574552Y-67302374D01*
X197574552Y-67302374D02*
X197574552Y-67159517D01*
X197574552Y-67159517D02*
X197622171Y-67064278D01*
X197622171Y-67064278D02*
X197717409Y-67016659D01*
X197717409Y-67016659D02*
X198241219Y-67016659D01*
X198241219Y-66111898D02*
X197717409Y-66111898D01*
X197717409Y-66111898D02*
X197622171Y-66159517D01*
X197622171Y-66159517D02*
X197574552Y-66254755D01*
X197574552Y-66254755D02*
X197574552Y-66445231D01*
X197574552Y-66445231D02*
X197622171Y-66540469D01*
X198193600Y-66111898D02*
X198241219Y-66207136D01*
X198241219Y-66207136D02*
X198241219Y-66445231D01*
X198241219Y-66445231D02*
X198193600Y-66540469D01*
X198193600Y-66540469D02*
X198098361Y-66588088D01*
X198098361Y-66588088D02*
X198003123Y-66588088D01*
X198003123Y-66588088D02*
X197907885Y-66540469D01*
X197907885Y-66540469D02*
X197860266Y-66445231D01*
X197860266Y-66445231D02*
X197860266Y-66207136D01*
X197860266Y-66207136D02*
X197812647Y-66111898D01*
X198145980Y-64302374D02*
X198193600Y-64349993D01*
X198193600Y-64349993D02*
X198241219Y-64492850D01*
X198241219Y-64492850D02*
X198241219Y-64588088D01*
X198241219Y-64588088D02*
X198193600Y-64730945D01*
X198193600Y-64730945D02*
X198098361Y-64826183D01*
X198098361Y-64826183D02*
X198003123Y-64873802D01*
X198003123Y-64873802D02*
X197812647Y-64921421D01*
X197812647Y-64921421D02*
X197669790Y-64921421D01*
X197669790Y-64921421D02*
X197479314Y-64873802D01*
X197479314Y-64873802D02*
X197384076Y-64826183D01*
X197384076Y-64826183D02*
X197288838Y-64730945D01*
X197288838Y-64730945D02*
X197241219Y-64588088D01*
X197241219Y-64588088D02*
X197241219Y-64492850D01*
X197241219Y-64492850D02*
X197288838Y-64349993D01*
X197288838Y-64349993D02*
X197336457Y-64302374D01*
X198241219Y-63730945D02*
X198193600Y-63826183D01*
X198193600Y-63826183D02*
X198145980Y-63873802D01*
X198145980Y-63873802D02*
X198050742Y-63921421D01*
X198050742Y-63921421D02*
X197765028Y-63921421D01*
X197765028Y-63921421D02*
X197669790Y-63873802D01*
X197669790Y-63873802D02*
X197622171Y-63826183D01*
X197622171Y-63826183D02*
X197574552Y-63730945D01*
X197574552Y-63730945D02*
X197574552Y-63588088D01*
X197574552Y-63588088D02*
X197622171Y-63492850D01*
X197622171Y-63492850D02*
X197669790Y-63445231D01*
X197669790Y-63445231D02*
X197765028Y-63397612D01*
X197765028Y-63397612D02*
X198050742Y-63397612D01*
X198050742Y-63397612D02*
X198145980Y-63445231D01*
X198145980Y-63445231D02*
X198193600Y-63492850D01*
X198193600Y-63492850D02*
X198241219Y-63588088D01*
X198241219Y-63588088D02*
X198241219Y-63730945D01*
X197574552Y-62969040D02*
X198241219Y-62969040D01*
X197669790Y-62969040D02*
X197622171Y-62921421D01*
X197622171Y-62921421D02*
X197574552Y-62826183D01*
X197574552Y-62826183D02*
X197574552Y-62683326D01*
X197574552Y-62683326D02*
X197622171Y-62588088D01*
X197622171Y-62588088D02*
X197717409Y-62540469D01*
X197717409Y-62540469D02*
X198241219Y-62540469D01*
X197574552Y-62207135D02*
X197574552Y-61826183D01*
X197241219Y-62064278D02*
X198098361Y-62064278D01*
X198098361Y-62064278D02*
X198193600Y-62016659D01*
X198193600Y-62016659D02*
X198241219Y-61921421D01*
X198241219Y-61921421D02*
X198241219Y-61826183D01*
X198241219Y-61492849D02*
X197574552Y-61492849D01*
X197765028Y-61492849D02*
X197669790Y-61445230D01*
X197669790Y-61445230D02*
X197622171Y-61397611D01*
X197622171Y-61397611D02*
X197574552Y-61302373D01*
X197574552Y-61302373D02*
X197574552Y-61207135D01*
X198241219Y-60730944D02*
X198193600Y-60826182D01*
X198193600Y-60826182D02*
X198145980Y-60873801D01*
X198145980Y-60873801D02*
X198050742Y-60921420D01*
X198050742Y-60921420D02*
X197765028Y-60921420D01*
X197765028Y-60921420D02*
X197669790Y-60873801D01*
X197669790Y-60873801D02*
X197622171Y-60826182D01*
X197622171Y-60826182D02*
X197574552Y-60730944D01*
X197574552Y-60730944D02*
X197574552Y-60588087D01*
X197574552Y-60588087D02*
X197622171Y-60492849D01*
X197622171Y-60492849D02*
X197669790Y-60445230D01*
X197669790Y-60445230D02*
X197765028Y-60397611D01*
X197765028Y-60397611D02*
X198050742Y-60397611D01*
X198050742Y-60397611D02*
X198145980Y-60445230D01*
X198145980Y-60445230D02*
X198193600Y-60492849D01*
X198193600Y-60492849D02*
X198241219Y-60588087D01*
X198241219Y-60588087D02*
X198241219Y-60730944D01*
X198241219Y-59826182D02*
X198193600Y-59921420D01*
X198193600Y-59921420D02*
X198098361Y-59969039D01*
X198098361Y-59969039D02*
X197241219Y-59969039D01*
X198241219Y-58254753D02*
X197241219Y-58254753D01*
X198193600Y-58254753D02*
X198241219Y-58349991D01*
X198241219Y-58349991D02*
X198241219Y-58540467D01*
X198241219Y-58540467D02*
X198193600Y-58635705D01*
X198193600Y-58635705D02*
X198145980Y-58683324D01*
X198145980Y-58683324D02*
X198050742Y-58730943D01*
X198050742Y-58730943D02*
X197765028Y-58730943D01*
X197765028Y-58730943D02*
X197669790Y-58683324D01*
X197669790Y-58683324D02*
X197622171Y-58635705D01*
X197622171Y-58635705D02*
X197574552Y-58540467D01*
X197574552Y-58540467D02*
X197574552Y-58349991D01*
X197574552Y-58349991D02*
X197622171Y-58254753D01*
X198193600Y-57397610D02*
X198241219Y-57492848D01*
X198241219Y-57492848D02*
X198241219Y-57683324D01*
X198241219Y-57683324D02*
X198193600Y-57778562D01*
X198193600Y-57778562D02*
X198098361Y-57826181D01*
X198098361Y-57826181D02*
X197717409Y-57826181D01*
X197717409Y-57826181D02*
X197622171Y-57778562D01*
X197622171Y-57778562D02*
X197574552Y-57683324D01*
X197574552Y-57683324D02*
X197574552Y-57492848D01*
X197574552Y-57492848D02*
X197622171Y-57397610D01*
X197622171Y-57397610D02*
X197717409Y-57349991D01*
X197717409Y-57349991D02*
X197812647Y-57349991D01*
X197812647Y-57349991D02*
X197907885Y-57826181D01*
X197955504Y-56207133D02*
X197955504Y-55730943D01*
X198241219Y-56302371D02*
X197241219Y-55969038D01*
X197241219Y-55969038D02*
X198241219Y-55635705D01*
X198193600Y-54873800D02*
X198241219Y-54969038D01*
X198241219Y-54969038D02*
X198241219Y-55159514D01*
X198241219Y-55159514D02*
X198193600Y-55254752D01*
X198193600Y-55254752D02*
X198145980Y-55302371D01*
X198145980Y-55302371D02*
X198050742Y-55349990D01*
X198050742Y-55349990D02*
X197765028Y-55349990D01*
X197765028Y-55349990D02*
X197669790Y-55302371D01*
X197669790Y-55302371D02*
X197622171Y-55254752D01*
X197622171Y-55254752D02*
X197574552Y-55159514D01*
X197574552Y-55159514D02*
X197574552Y-54969038D01*
X197574552Y-54969038D02*
X197622171Y-54873800D01*
X198193600Y-54016657D02*
X198241219Y-54111895D01*
X198241219Y-54111895D02*
X198241219Y-54302371D01*
X198241219Y-54302371D02*
X198193600Y-54397609D01*
X198193600Y-54397609D02*
X198145980Y-54445228D01*
X198145980Y-54445228D02*
X198050742Y-54492847D01*
X198050742Y-54492847D02*
X197765028Y-54492847D01*
X197765028Y-54492847D02*
X197669790Y-54445228D01*
X197669790Y-54445228D02*
X197622171Y-54397609D01*
X197622171Y-54397609D02*
X197574552Y-54302371D01*
X197574552Y-54302371D02*
X197574552Y-54111895D01*
X197574552Y-54111895D02*
X197622171Y-54016657D01*
X198193600Y-53207133D02*
X198241219Y-53302371D01*
X198241219Y-53302371D02*
X198241219Y-53492847D01*
X198241219Y-53492847D02*
X198193600Y-53588085D01*
X198193600Y-53588085D02*
X198098361Y-53635704D01*
X198098361Y-53635704D02*
X197717409Y-53635704D01*
X197717409Y-53635704D02*
X197622171Y-53588085D01*
X197622171Y-53588085D02*
X197574552Y-53492847D01*
X197574552Y-53492847D02*
X197574552Y-53302371D01*
X197574552Y-53302371D02*
X197622171Y-53207133D01*
X197622171Y-53207133D02*
X197717409Y-53159514D01*
X197717409Y-53159514D02*
X197812647Y-53159514D01*
X197812647Y-53159514D02*
X197907885Y-53635704D01*
X198193600Y-52778561D02*
X198241219Y-52683323D01*
X198241219Y-52683323D02*
X198241219Y-52492847D01*
X198241219Y-52492847D02*
X198193600Y-52397609D01*
X198193600Y-52397609D02*
X198098361Y-52349990D01*
X198098361Y-52349990D02*
X198050742Y-52349990D01*
X198050742Y-52349990D02*
X197955504Y-52397609D01*
X197955504Y-52397609D02*
X197907885Y-52492847D01*
X197907885Y-52492847D02*
X197907885Y-52635704D01*
X197907885Y-52635704D02*
X197860266Y-52730942D01*
X197860266Y-52730942D02*
X197765028Y-52778561D01*
X197765028Y-52778561D02*
X197717409Y-52778561D01*
X197717409Y-52778561D02*
X197622171Y-52730942D01*
X197622171Y-52730942D02*
X197574552Y-52635704D01*
X197574552Y-52635704D02*
X197574552Y-52492847D01*
X197574552Y-52492847D02*
X197622171Y-52397609D01*
X198241219Y-51778561D02*
X198193600Y-51873799D01*
X198193600Y-51873799D02*
X198145980Y-51921418D01*
X198145980Y-51921418D02*
X198050742Y-51969037D01*
X198050742Y-51969037D02*
X197765028Y-51969037D01*
X197765028Y-51969037D02*
X197669790Y-51921418D01*
X197669790Y-51921418D02*
X197622171Y-51873799D01*
X197622171Y-51873799D02*
X197574552Y-51778561D01*
X197574552Y-51778561D02*
X197574552Y-51635704D01*
X197574552Y-51635704D02*
X197622171Y-51540466D01*
X197622171Y-51540466D02*
X197669790Y-51492847D01*
X197669790Y-51492847D02*
X197765028Y-51445228D01*
X197765028Y-51445228D02*
X198050742Y-51445228D01*
X198050742Y-51445228D02*
X198145980Y-51492847D01*
X198145980Y-51492847D02*
X198193600Y-51540466D01*
X198193600Y-51540466D02*
X198241219Y-51635704D01*
X198241219Y-51635704D02*
X198241219Y-51778561D01*
X197860266Y-51016656D02*
X197860266Y-50254752D01*
D13*
X237412423Y-65743019D02*
X237412423Y-66194624D01*
X237412423Y-65807534D02*
X237441455Y-65775277D01*
X237441455Y-65775277D02*
X237499518Y-65743019D01*
X237499518Y-65743019D02*
X237586613Y-65743019D01*
X237586613Y-65743019D02*
X237644677Y-65775277D01*
X237644677Y-65775277D02*
X237673709Y-65839792D01*
X237673709Y-65839792D02*
X237673709Y-66194624D01*
X238051121Y-66194624D02*
X237993058Y-66162367D01*
X237993058Y-66162367D02*
X237964026Y-66130109D01*
X237964026Y-66130109D02*
X237934994Y-66065594D01*
X237934994Y-66065594D02*
X237934994Y-65872049D01*
X237934994Y-65872049D02*
X237964026Y-65807534D01*
X237964026Y-65807534D02*
X237993058Y-65775277D01*
X237993058Y-65775277D02*
X238051121Y-65743019D01*
X238051121Y-65743019D02*
X238138216Y-65743019D01*
X238138216Y-65743019D02*
X238196280Y-65775277D01*
X238196280Y-65775277D02*
X238225312Y-65807534D01*
X238225312Y-65807534D02*
X238254343Y-65872049D01*
X238254343Y-65872049D02*
X238254343Y-66065594D01*
X238254343Y-66065594D02*
X238225312Y-66130109D01*
X238225312Y-66130109D02*
X238196280Y-66162367D01*
X238196280Y-66162367D02*
X238138216Y-66194624D01*
X238138216Y-66194624D02*
X238051121Y-66194624D01*
X238776915Y-66194624D02*
X238776915Y-65517217D01*
X238776915Y-66162367D02*
X238718851Y-66194624D01*
X238718851Y-66194624D02*
X238602724Y-66194624D01*
X238602724Y-66194624D02*
X238544661Y-66162367D01*
X238544661Y-66162367D02*
X238515629Y-66130109D01*
X238515629Y-66130109D02*
X238486597Y-66065594D01*
X238486597Y-66065594D02*
X238486597Y-65872049D01*
X238486597Y-65872049D02*
X238515629Y-65807534D01*
X238515629Y-65807534D02*
X238544661Y-65775277D01*
X238544661Y-65775277D02*
X238602724Y-65743019D01*
X238602724Y-65743019D02*
X238718851Y-65743019D01*
X238718851Y-65743019D02*
X238776915Y-65775277D01*
X239154327Y-66194624D02*
X239096264Y-66162367D01*
X239096264Y-66162367D02*
X239067232Y-66130109D01*
X239067232Y-66130109D02*
X239038200Y-66065594D01*
X239038200Y-66065594D02*
X239038200Y-65872049D01*
X239038200Y-65872049D02*
X239067232Y-65807534D01*
X239067232Y-65807534D02*
X239096264Y-65775277D01*
X239096264Y-65775277D02*
X239154327Y-65743019D01*
X239154327Y-65743019D02*
X239241422Y-65743019D01*
X239241422Y-65743019D02*
X239299486Y-65775277D01*
X239299486Y-65775277D02*
X239328518Y-65807534D01*
X239328518Y-65807534D02*
X239357549Y-65872049D01*
X239357549Y-65872049D02*
X239357549Y-66065594D01*
X239357549Y-66065594D02*
X239328518Y-66130109D01*
X239328518Y-66130109D02*
X239299486Y-66162367D01*
X239299486Y-66162367D02*
X239241422Y-66194624D01*
X239241422Y-66194624D02*
X239154327Y-66194624D01*
X240083342Y-66194624D02*
X240083342Y-65517217D01*
X240083342Y-65517217D02*
X240315596Y-65517217D01*
X240315596Y-65517217D02*
X240373659Y-65549474D01*
X240373659Y-65549474D02*
X240402691Y-65581732D01*
X240402691Y-65581732D02*
X240431723Y-65646247D01*
X240431723Y-65646247D02*
X240431723Y-65743019D01*
X240431723Y-65743019D02*
X240402691Y-65807534D01*
X240402691Y-65807534D02*
X240373659Y-65839792D01*
X240373659Y-65839792D02*
X240315596Y-65872049D01*
X240315596Y-65872049D02*
X240083342Y-65872049D01*
X240693008Y-66194624D02*
X240693008Y-65743019D01*
X240693008Y-65517217D02*
X240663976Y-65549474D01*
X240663976Y-65549474D02*
X240693008Y-65581732D01*
X240693008Y-65581732D02*
X240722040Y-65549474D01*
X240722040Y-65549474D02*
X240693008Y-65517217D01*
X240693008Y-65517217D02*
X240693008Y-65581732D01*
X240896230Y-65743019D02*
X241128484Y-65743019D01*
X240983325Y-65517217D02*
X240983325Y-66097852D01*
X240983325Y-66097852D02*
X241012357Y-66162367D01*
X241012357Y-66162367D02*
X241070420Y-66194624D01*
X241070420Y-66194624D02*
X241128484Y-66194624D01*
X241592992Y-66194624D02*
X241592992Y-65839792D01*
X241592992Y-65839792D02*
X241563960Y-65775277D01*
X241563960Y-65775277D02*
X241505896Y-65743019D01*
X241505896Y-65743019D02*
X241389770Y-65743019D01*
X241389770Y-65743019D02*
X241331706Y-65775277D01*
X241592992Y-66162367D02*
X241534928Y-66194624D01*
X241534928Y-66194624D02*
X241389770Y-66194624D01*
X241389770Y-66194624D02*
X241331706Y-66162367D01*
X241331706Y-66162367D02*
X241302674Y-66097852D01*
X241302674Y-66097852D02*
X241302674Y-66033337D01*
X241302674Y-66033337D02*
X241331706Y-65968822D01*
X241331706Y-65968822D02*
X241389770Y-65936564D01*
X241389770Y-65936564D02*
X241534928Y-65936564D01*
X241534928Y-65936564D02*
X241592992Y-65904307D01*
X241970404Y-66194624D02*
X241912341Y-66162367D01*
X241912341Y-66162367D02*
X241883309Y-66097852D01*
X241883309Y-66097852D02*
X241883309Y-65517217D01*
X242202658Y-66194624D02*
X242202658Y-65743019D01*
X242202658Y-65517217D02*
X242173626Y-65549474D01*
X242173626Y-65549474D02*
X242202658Y-65581732D01*
X242202658Y-65581732D02*
X242231690Y-65549474D01*
X242231690Y-65549474D02*
X242202658Y-65517217D01*
X242202658Y-65517217D02*
X242202658Y-65581732D01*
X242405880Y-65743019D02*
X242638134Y-65743019D01*
X242492975Y-65517217D02*
X242492975Y-66097852D01*
X242492975Y-66097852D02*
X242522007Y-66162367D01*
X242522007Y-66162367D02*
X242580070Y-66194624D01*
X242580070Y-66194624D02*
X242638134Y-66194624D01*
X242928451Y-66194624D02*
X242870388Y-66162367D01*
X242870388Y-66162367D02*
X242841356Y-66130109D01*
X242841356Y-66130109D02*
X242812324Y-66065594D01*
X242812324Y-66065594D02*
X242812324Y-65872049D01*
X242812324Y-65872049D02*
X242841356Y-65807534D01*
X242841356Y-65807534D02*
X242870388Y-65775277D01*
X242870388Y-65775277D02*
X242928451Y-65743019D01*
X242928451Y-65743019D02*
X243015546Y-65743019D01*
X243015546Y-65743019D02*
X243073610Y-65775277D01*
X243073610Y-65775277D02*
X243102642Y-65807534D01*
X243102642Y-65807534D02*
X243131673Y-65872049D01*
X243131673Y-65872049D02*
X243131673Y-66065594D01*
X243131673Y-66065594D02*
X243102642Y-66130109D01*
X243102642Y-66130109D02*
X243073610Y-66162367D01*
X243073610Y-66162367D02*
X243015546Y-66194624D01*
X243015546Y-66194624D02*
X242928451Y-66194624D01*
D11*
X200783819Y-77165030D02*
X200783819Y-77641220D01*
X200783819Y-77641220D02*
X199783819Y-77641220D01*
X200783819Y-76831696D02*
X200117152Y-76831696D01*
X199783819Y-76831696D02*
X199831438Y-76879315D01*
X199831438Y-76879315D02*
X199879057Y-76831696D01*
X199879057Y-76831696D02*
X199831438Y-76784077D01*
X199831438Y-76784077D02*
X199783819Y-76831696D01*
X199783819Y-76831696D02*
X199879057Y-76831696D01*
X200117152Y-76355506D02*
X200783819Y-76355506D01*
X200212390Y-76355506D02*
X200164771Y-76307887D01*
X200164771Y-76307887D02*
X200117152Y-76212649D01*
X200117152Y-76212649D02*
X200117152Y-76069792D01*
X200117152Y-76069792D02*
X200164771Y-75974554D01*
X200164771Y-75974554D02*
X200260009Y-75926935D01*
X200260009Y-75926935D02*
X200783819Y-75926935D01*
X200736200Y-75069792D02*
X200783819Y-75165030D01*
X200783819Y-75165030D02*
X200783819Y-75355506D01*
X200783819Y-75355506D02*
X200736200Y-75450744D01*
X200736200Y-75450744D02*
X200640961Y-75498363D01*
X200640961Y-75498363D02*
X200260009Y-75498363D01*
X200260009Y-75498363D02*
X200164771Y-75450744D01*
X200164771Y-75450744D02*
X200117152Y-75355506D01*
X200117152Y-75355506D02*
X200117152Y-75165030D01*
X200117152Y-75165030D02*
X200164771Y-75069792D01*
X200164771Y-75069792D02*
X200260009Y-75022173D01*
X200260009Y-75022173D02*
X200355247Y-75022173D01*
X200355247Y-75022173D02*
X200450485Y-75498363D01*
X200783819Y-74165030D02*
X200260009Y-74165030D01*
X200260009Y-74165030D02*
X200164771Y-74212649D01*
X200164771Y-74212649D02*
X200117152Y-74307887D01*
X200117152Y-74307887D02*
X200117152Y-74498363D01*
X200117152Y-74498363D02*
X200164771Y-74593601D01*
X200736200Y-74165030D02*
X200783819Y-74260268D01*
X200783819Y-74260268D02*
X200783819Y-74498363D01*
X200783819Y-74498363D02*
X200736200Y-74593601D01*
X200736200Y-74593601D02*
X200640961Y-74641220D01*
X200640961Y-74641220D02*
X200545723Y-74641220D01*
X200545723Y-74641220D02*
X200450485Y-74593601D01*
X200450485Y-74593601D02*
X200402866Y-74498363D01*
X200402866Y-74498363D02*
X200402866Y-74260268D01*
X200402866Y-74260268D02*
X200355247Y-74165030D01*
X200260009Y-72926934D02*
X200260009Y-72593601D01*
X200783819Y-72450744D02*
X200783819Y-72926934D01*
X200783819Y-72926934D02*
X199783819Y-72926934D01*
X199783819Y-72926934D02*
X199783819Y-72450744D01*
X200783819Y-71879315D02*
X200736200Y-71974553D01*
X200736200Y-71974553D02*
X200640961Y-72022172D01*
X200640961Y-72022172D02*
X199783819Y-72022172D01*
X200736200Y-71117410D02*
X200783819Y-71212648D01*
X200783819Y-71212648D02*
X200783819Y-71403124D01*
X200783819Y-71403124D02*
X200736200Y-71498362D01*
X200736200Y-71498362D02*
X200640961Y-71545981D01*
X200640961Y-71545981D02*
X200260009Y-71545981D01*
X200260009Y-71545981D02*
X200164771Y-71498362D01*
X200164771Y-71498362D02*
X200117152Y-71403124D01*
X200117152Y-71403124D02*
X200117152Y-71212648D01*
X200117152Y-71212648D02*
X200164771Y-71117410D01*
X200164771Y-71117410D02*
X200260009Y-71069791D01*
X200260009Y-71069791D02*
X200355247Y-71069791D01*
X200355247Y-71069791D02*
X200450485Y-71545981D01*
X200736200Y-70212648D02*
X200783819Y-70307886D01*
X200783819Y-70307886D02*
X200783819Y-70498362D01*
X200783819Y-70498362D02*
X200736200Y-70593600D01*
X200736200Y-70593600D02*
X200688580Y-70641219D01*
X200688580Y-70641219D02*
X200593342Y-70688838D01*
X200593342Y-70688838D02*
X200307628Y-70688838D01*
X200307628Y-70688838D02*
X200212390Y-70641219D01*
X200212390Y-70641219D02*
X200164771Y-70593600D01*
X200164771Y-70593600D02*
X200117152Y-70498362D01*
X200117152Y-70498362D02*
X200117152Y-70307886D01*
X200117152Y-70307886D02*
X200164771Y-70212648D01*
X200117152Y-69926933D02*
X200117152Y-69545981D01*
X199783819Y-69784076D02*
X200640961Y-69784076D01*
X200640961Y-69784076D02*
X200736200Y-69736457D01*
X200736200Y-69736457D02*
X200783819Y-69641219D01*
X200783819Y-69641219D02*
X200783819Y-69545981D01*
X200783819Y-69212647D02*
X200117152Y-69212647D01*
X200307628Y-69212647D02*
X200212390Y-69165028D01*
X200212390Y-69165028D02*
X200164771Y-69117409D01*
X200164771Y-69117409D02*
X200117152Y-69022171D01*
X200117152Y-69022171D02*
X200117152Y-68926933D01*
X200783819Y-68450742D02*
X200736200Y-68545980D01*
X200736200Y-68545980D02*
X200688580Y-68593599D01*
X200688580Y-68593599D02*
X200593342Y-68641218D01*
X200593342Y-68641218D02*
X200307628Y-68641218D01*
X200307628Y-68641218D02*
X200212390Y-68593599D01*
X200212390Y-68593599D02*
X200164771Y-68545980D01*
X200164771Y-68545980D02*
X200117152Y-68450742D01*
X200117152Y-68450742D02*
X200117152Y-68307885D01*
X200117152Y-68307885D02*
X200164771Y-68212647D01*
X200164771Y-68212647D02*
X200212390Y-68165028D01*
X200212390Y-68165028D02*
X200307628Y-68117409D01*
X200307628Y-68117409D02*
X200593342Y-68117409D01*
X200593342Y-68117409D02*
X200688580Y-68165028D01*
X200688580Y-68165028D02*
X200736200Y-68212647D01*
X200736200Y-68212647D02*
X200783819Y-68307885D01*
X200783819Y-68307885D02*
X200783819Y-68450742D01*
X199736200Y-68260266D02*
X199879057Y-68403123D01*
X200117152Y-67688837D02*
X200783819Y-67688837D01*
X200212390Y-67688837D02*
X200164771Y-67641218D01*
X200164771Y-67641218D02*
X200117152Y-67545980D01*
X200117152Y-67545980D02*
X200117152Y-67403123D01*
X200117152Y-67403123D02*
X200164771Y-67307885D01*
X200164771Y-67307885D02*
X200260009Y-67260266D01*
X200260009Y-67260266D02*
X200783819Y-67260266D01*
X200783819Y-66784075D02*
X200117152Y-66784075D01*
X199783819Y-66784075D02*
X199831438Y-66831694D01*
X199831438Y-66831694D02*
X199879057Y-66784075D01*
X199879057Y-66784075D02*
X199831438Y-66736456D01*
X199831438Y-66736456D02*
X199783819Y-66784075D01*
X199783819Y-66784075D02*
X199879057Y-66784075D01*
X200736200Y-65879314D02*
X200783819Y-65974552D01*
X200783819Y-65974552D02*
X200783819Y-66165028D01*
X200783819Y-66165028D02*
X200736200Y-66260266D01*
X200736200Y-66260266D02*
X200688580Y-66307885D01*
X200688580Y-66307885D02*
X200593342Y-66355504D01*
X200593342Y-66355504D02*
X200307628Y-66355504D01*
X200307628Y-66355504D02*
X200212390Y-66307885D01*
X200212390Y-66307885D02*
X200164771Y-66260266D01*
X200164771Y-66260266D02*
X200117152Y-66165028D01*
X200117152Y-66165028D02*
X200117152Y-65974552D01*
X200117152Y-65974552D02*
X200164771Y-65879314D01*
X200783819Y-65022171D02*
X200260009Y-65022171D01*
X200260009Y-65022171D02*
X200164771Y-65069790D01*
X200164771Y-65069790D02*
X200117152Y-65165028D01*
X200117152Y-65165028D02*
X200117152Y-65355504D01*
X200117152Y-65355504D02*
X200164771Y-65450742D01*
X200736200Y-65022171D02*
X200783819Y-65117409D01*
X200783819Y-65117409D02*
X200783819Y-65355504D01*
X200783819Y-65355504D02*
X200736200Y-65450742D01*
X200736200Y-65450742D02*
X200640961Y-65498361D01*
X200640961Y-65498361D02*
X200545723Y-65498361D01*
X200545723Y-65498361D02*
X200450485Y-65450742D01*
X200450485Y-65450742D02*
X200402866Y-65355504D01*
X200402866Y-65355504D02*
X200402866Y-65117409D01*
X200402866Y-65117409D02*
X200355247Y-65022171D01*
X200117152Y-63879313D02*
X200783819Y-63641218D01*
X200117152Y-63403123D02*
X200783819Y-63641218D01*
X200783819Y-63641218D02*
X201021914Y-63736456D01*
X201021914Y-63736456D02*
X201069533Y-63784075D01*
X201069533Y-63784075D02*
X201117152Y-63879313D01*
X199783819Y-62403122D02*
X199783819Y-61831694D01*
X200783819Y-62117408D02*
X199783819Y-62117408D01*
X200736200Y-61117408D02*
X200783819Y-61212646D01*
X200783819Y-61212646D02*
X200783819Y-61403122D01*
X200783819Y-61403122D02*
X200736200Y-61498360D01*
X200736200Y-61498360D02*
X200640961Y-61545979D01*
X200640961Y-61545979D02*
X200260009Y-61545979D01*
X200260009Y-61545979D02*
X200164771Y-61498360D01*
X200164771Y-61498360D02*
X200117152Y-61403122D01*
X200117152Y-61403122D02*
X200117152Y-61212646D01*
X200117152Y-61212646D02*
X200164771Y-61117408D01*
X200164771Y-61117408D02*
X200260009Y-61069789D01*
X200260009Y-61069789D02*
X200355247Y-61069789D01*
X200355247Y-61069789D02*
X200450485Y-61545979D01*
X200783819Y-60498360D02*
X200736200Y-60593598D01*
X200736200Y-60593598D02*
X200640961Y-60641217D01*
X200640961Y-60641217D02*
X199783819Y-60641217D01*
X200736200Y-59736455D02*
X200783819Y-59831693D01*
X200783819Y-59831693D02*
X200783819Y-60022169D01*
X200783819Y-60022169D02*
X200736200Y-60117407D01*
X200736200Y-60117407D02*
X200640961Y-60165026D01*
X200640961Y-60165026D02*
X200260009Y-60165026D01*
X200260009Y-60165026D02*
X200164771Y-60117407D01*
X200164771Y-60117407D02*
X200117152Y-60022169D01*
X200117152Y-60022169D02*
X200117152Y-59831693D01*
X200117152Y-59831693D02*
X200164771Y-59736455D01*
X200164771Y-59736455D02*
X200260009Y-59688836D01*
X200260009Y-59688836D02*
X200355247Y-59688836D01*
X200355247Y-59688836D02*
X200450485Y-60165026D01*
X200736200Y-58831693D02*
X200783819Y-58926931D01*
X200783819Y-58926931D02*
X200783819Y-59117407D01*
X200783819Y-59117407D02*
X200736200Y-59212645D01*
X200736200Y-59212645D02*
X200688580Y-59260264D01*
X200688580Y-59260264D02*
X200593342Y-59307883D01*
X200593342Y-59307883D02*
X200307628Y-59307883D01*
X200307628Y-59307883D02*
X200212390Y-59260264D01*
X200212390Y-59260264D02*
X200164771Y-59212645D01*
X200164771Y-59212645D02*
X200117152Y-59117407D01*
X200117152Y-59117407D02*
X200117152Y-58926931D01*
X200117152Y-58926931D02*
X200164771Y-58831693D01*
X200783819Y-58260264D02*
X200736200Y-58355502D01*
X200736200Y-58355502D02*
X200688580Y-58403121D01*
X200688580Y-58403121D02*
X200593342Y-58450740D01*
X200593342Y-58450740D02*
X200307628Y-58450740D01*
X200307628Y-58450740D02*
X200212390Y-58403121D01*
X200212390Y-58403121D02*
X200164771Y-58355502D01*
X200164771Y-58355502D02*
X200117152Y-58260264D01*
X200117152Y-58260264D02*
X200117152Y-58117407D01*
X200117152Y-58117407D02*
X200164771Y-58022169D01*
X200164771Y-58022169D02*
X200212390Y-57974550D01*
X200212390Y-57974550D02*
X200307628Y-57926931D01*
X200307628Y-57926931D02*
X200593342Y-57926931D01*
X200593342Y-57926931D02*
X200688580Y-57974550D01*
X200688580Y-57974550D02*
X200736200Y-58022169D01*
X200736200Y-58022169D02*
X200783819Y-58117407D01*
X200783819Y-58117407D02*
X200783819Y-58260264D01*
X200783819Y-57498359D02*
X200117152Y-57498359D01*
X200212390Y-57498359D02*
X200164771Y-57450740D01*
X200164771Y-57450740D02*
X200117152Y-57355502D01*
X200117152Y-57355502D02*
X200117152Y-57212645D01*
X200117152Y-57212645D02*
X200164771Y-57117407D01*
X200164771Y-57117407D02*
X200260009Y-57069788D01*
X200260009Y-57069788D02*
X200783819Y-57069788D01*
X200260009Y-57069788D02*
X200164771Y-57022169D01*
X200164771Y-57022169D02*
X200117152Y-56926931D01*
X200117152Y-56926931D02*
X200117152Y-56784074D01*
X200117152Y-56784074D02*
X200164771Y-56688835D01*
X200164771Y-56688835D02*
X200260009Y-56641216D01*
X200260009Y-56641216D02*
X200783819Y-56641216D01*
X200117152Y-55736455D02*
X200783819Y-55736455D01*
X200117152Y-56165026D02*
X200640961Y-56165026D01*
X200640961Y-56165026D02*
X200736200Y-56117407D01*
X200736200Y-56117407D02*
X200783819Y-56022169D01*
X200783819Y-56022169D02*
X200783819Y-55879312D01*
X200783819Y-55879312D02*
X200736200Y-55784074D01*
X200736200Y-55784074D02*
X200688580Y-55736455D01*
X200117152Y-55260264D02*
X200783819Y-55260264D01*
X200212390Y-55260264D02*
X200164771Y-55212645D01*
X200164771Y-55212645D02*
X200117152Y-55117407D01*
X200117152Y-55117407D02*
X200117152Y-54974550D01*
X200117152Y-54974550D02*
X200164771Y-54879312D01*
X200164771Y-54879312D02*
X200260009Y-54831693D01*
X200260009Y-54831693D02*
X200783819Y-54831693D01*
X200783819Y-54355502D02*
X200117152Y-54355502D01*
X199783819Y-54355502D02*
X199831438Y-54403121D01*
X199831438Y-54403121D02*
X199879057Y-54355502D01*
X199879057Y-54355502D02*
X199831438Y-54307883D01*
X199831438Y-54307883D02*
X199783819Y-54355502D01*
X199783819Y-54355502D02*
X199879057Y-54355502D01*
X200736200Y-53450741D02*
X200783819Y-53545979D01*
X200783819Y-53545979D02*
X200783819Y-53736455D01*
X200783819Y-53736455D02*
X200736200Y-53831693D01*
X200736200Y-53831693D02*
X200688580Y-53879312D01*
X200688580Y-53879312D02*
X200593342Y-53926931D01*
X200593342Y-53926931D02*
X200307628Y-53926931D01*
X200307628Y-53926931D02*
X200212390Y-53879312D01*
X200212390Y-53879312D02*
X200164771Y-53831693D01*
X200164771Y-53831693D02*
X200117152Y-53736455D01*
X200117152Y-53736455D02*
X200117152Y-53545979D01*
X200117152Y-53545979D02*
X200164771Y-53450741D01*
X200783819Y-52593598D02*
X200260009Y-52593598D01*
X200260009Y-52593598D02*
X200164771Y-52641217D01*
X200164771Y-52641217D02*
X200117152Y-52736455D01*
X200117152Y-52736455D02*
X200117152Y-52926931D01*
X200117152Y-52926931D02*
X200164771Y-53022169D01*
X200736200Y-52593598D02*
X200783819Y-52688836D01*
X200783819Y-52688836D02*
X200783819Y-52926931D01*
X200783819Y-52926931D02*
X200736200Y-53022169D01*
X200736200Y-53022169D02*
X200640961Y-53069788D01*
X200640961Y-53069788D02*
X200545723Y-53069788D01*
X200545723Y-53069788D02*
X200450485Y-53022169D01*
X200450485Y-53022169D02*
X200402866Y-52926931D01*
X200402866Y-52926931D02*
X200402866Y-52688836D01*
X200402866Y-52688836D02*
X200355247Y-52593598D01*
X200736200Y-51688836D02*
X200783819Y-51784074D01*
X200783819Y-51784074D02*
X200783819Y-51974550D01*
X200783819Y-51974550D02*
X200736200Y-52069788D01*
X200736200Y-52069788D02*
X200688580Y-52117407D01*
X200688580Y-52117407D02*
X200593342Y-52165026D01*
X200593342Y-52165026D02*
X200307628Y-52165026D01*
X200307628Y-52165026D02*
X200212390Y-52117407D01*
X200212390Y-52117407D02*
X200164771Y-52069788D01*
X200164771Y-52069788D02*
X200117152Y-51974550D01*
X200117152Y-51974550D02*
X200117152Y-51784074D01*
X200117152Y-51784074D02*
X200164771Y-51688836D01*
X200783819Y-51260264D02*
X200117152Y-51260264D01*
X199783819Y-51260264D02*
X199831438Y-51307883D01*
X199831438Y-51307883D02*
X199879057Y-51260264D01*
X199879057Y-51260264D02*
X199831438Y-51212645D01*
X199831438Y-51212645D02*
X199783819Y-51260264D01*
X199783819Y-51260264D02*
X199879057Y-51260264D01*
X200783819Y-50641217D02*
X200736200Y-50736455D01*
X200736200Y-50736455D02*
X200688580Y-50784074D01*
X200688580Y-50784074D02*
X200593342Y-50831693D01*
X200593342Y-50831693D02*
X200307628Y-50831693D01*
X200307628Y-50831693D02*
X200212390Y-50784074D01*
X200212390Y-50784074D02*
X200164771Y-50736455D01*
X200164771Y-50736455D02*
X200117152Y-50641217D01*
X200117152Y-50641217D02*
X200117152Y-50498360D01*
X200117152Y-50498360D02*
X200164771Y-50403122D01*
X200164771Y-50403122D02*
X200212390Y-50355503D01*
X200212390Y-50355503D02*
X200307628Y-50307884D01*
X200307628Y-50307884D02*
X200593342Y-50307884D01*
X200593342Y-50307884D02*
X200688580Y-50355503D01*
X200688580Y-50355503D02*
X200736200Y-50403122D01*
X200736200Y-50403122D02*
X200783819Y-50498360D01*
X200783819Y-50498360D02*
X200783819Y-50641217D01*
X200117152Y-49879312D02*
X200783819Y-49879312D01*
X200212390Y-49879312D02*
X200164771Y-49831693D01*
X200164771Y-49831693D02*
X200117152Y-49736455D01*
X200117152Y-49736455D02*
X200117152Y-49593598D01*
X200117152Y-49593598D02*
X200164771Y-49498360D01*
X200164771Y-49498360D02*
X200260009Y-49450741D01*
X200260009Y-49450741D02*
X200783819Y-49450741D01*
X200736200Y-48593598D02*
X200783819Y-48688836D01*
X200783819Y-48688836D02*
X200783819Y-48879312D01*
X200783819Y-48879312D02*
X200736200Y-48974550D01*
X200736200Y-48974550D02*
X200640961Y-49022169D01*
X200640961Y-49022169D02*
X200260009Y-49022169D01*
X200260009Y-49022169D02*
X200164771Y-48974550D01*
X200164771Y-48974550D02*
X200117152Y-48879312D01*
X200117152Y-48879312D02*
X200117152Y-48688836D01*
X200117152Y-48688836D02*
X200164771Y-48593598D01*
X200164771Y-48593598D02*
X200260009Y-48545979D01*
X200260009Y-48545979D02*
X200355247Y-48545979D01*
X200355247Y-48545979D02*
X200450485Y-49022169D01*
X200736200Y-48165026D02*
X200783819Y-48069788D01*
X200783819Y-48069788D02*
X200783819Y-47879312D01*
X200783819Y-47879312D02*
X200736200Y-47784074D01*
X200736200Y-47784074D02*
X200640961Y-47736455D01*
X200640961Y-47736455D02*
X200593342Y-47736455D01*
X200593342Y-47736455D02*
X200498104Y-47784074D01*
X200498104Y-47784074D02*
X200450485Y-47879312D01*
X200450485Y-47879312D02*
X200450485Y-48022169D01*
X200450485Y-48022169D02*
X200402866Y-48117407D01*
X200402866Y-48117407D02*
X200307628Y-48165026D01*
X200307628Y-48165026D02*
X200260009Y-48165026D01*
X200260009Y-48165026D02*
X200164771Y-48117407D01*
X200164771Y-48117407D02*
X200117152Y-48022169D01*
X200117152Y-48022169D02*
X200117152Y-47879312D01*
X200117152Y-47879312D02*
X200164771Y-47784074D01*
X229068952Y-92707200D02*
X229211809Y-92754819D01*
X229211809Y-92754819D02*
X229449904Y-92754819D01*
X229449904Y-92754819D02*
X229545142Y-92707200D01*
X229545142Y-92707200D02*
X229592761Y-92659580D01*
X229592761Y-92659580D02*
X229640380Y-92564342D01*
X229640380Y-92564342D02*
X229640380Y-92469104D01*
X229640380Y-92469104D02*
X229592761Y-92373866D01*
X229592761Y-92373866D02*
X229545142Y-92326247D01*
X229545142Y-92326247D02*
X229449904Y-92278628D01*
X229449904Y-92278628D02*
X229259428Y-92231009D01*
X229259428Y-92231009D02*
X229164190Y-92183390D01*
X229164190Y-92183390D02*
X229116571Y-92135771D01*
X229116571Y-92135771D02*
X229068952Y-92040533D01*
X229068952Y-92040533D02*
X229068952Y-91945295D01*
X229068952Y-91945295D02*
X229116571Y-91850057D01*
X229116571Y-91850057D02*
X229164190Y-91802438D01*
X229164190Y-91802438D02*
X229259428Y-91754819D01*
X229259428Y-91754819D02*
X229497523Y-91754819D01*
X229497523Y-91754819D02*
X229640380Y-91802438D01*
X230497523Y-92754819D02*
X230497523Y-92231009D01*
X230497523Y-92231009D02*
X230449904Y-92135771D01*
X230449904Y-92135771D02*
X230354666Y-92088152D01*
X230354666Y-92088152D02*
X230164190Y-92088152D01*
X230164190Y-92088152D02*
X230068952Y-92135771D01*
X230497523Y-92707200D02*
X230402285Y-92754819D01*
X230402285Y-92754819D02*
X230164190Y-92754819D01*
X230164190Y-92754819D02*
X230068952Y-92707200D01*
X230068952Y-92707200D02*
X230021333Y-92611961D01*
X230021333Y-92611961D02*
X230021333Y-92516723D01*
X230021333Y-92516723D02*
X230068952Y-92421485D01*
X230068952Y-92421485D02*
X230164190Y-92373866D01*
X230164190Y-92373866D02*
X230402285Y-92373866D01*
X230402285Y-92373866D02*
X230497523Y-92326247D01*
X231116571Y-92754819D02*
X231021333Y-92707200D01*
X231021333Y-92707200D02*
X230973714Y-92611961D01*
X230973714Y-92611961D02*
X230973714Y-91754819D01*
X231497524Y-92754819D02*
X231497524Y-92088152D01*
X231497524Y-91754819D02*
X231449905Y-91802438D01*
X231449905Y-91802438D02*
X231497524Y-91850057D01*
X231497524Y-91850057D02*
X231545143Y-91802438D01*
X231545143Y-91802438D02*
X231497524Y-91754819D01*
X231497524Y-91754819D02*
X231497524Y-91850057D01*
X232402285Y-92754819D02*
X232402285Y-91754819D01*
X232402285Y-92707200D02*
X232307047Y-92754819D01*
X232307047Y-92754819D02*
X232116571Y-92754819D01*
X232116571Y-92754819D02*
X232021333Y-92707200D01*
X232021333Y-92707200D02*
X231973714Y-92659580D01*
X231973714Y-92659580D02*
X231926095Y-92564342D01*
X231926095Y-92564342D02*
X231926095Y-92278628D01*
X231926095Y-92278628D02*
X231973714Y-92183390D01*
X231973714Y-92183390D02*
X232021333Y-92135771D01*
X232021333Y-92135771D02*
X232116571Y-92088152D01*
X232116571Y-92088152D02*
X232307047Y-92088152D01*
X232307047Y-92088152D02*
X232402285Y-92135771D01*
X233307047Y-92754819D02*
X233307047Y-92231009D01*
X233307047Y-92231009D02*
X233259428Y-92135771D01*
X233259428Y-92135771D02*
X233164190Y-92088152D01*
X233164190Y-92088152D02*
X232973714Y-92088152D01*
X232973714Y-92088152D02*
X232878476Y-92135771D01*
X233307047Y-92707200D02*
X233211809Y-92754819D01*
X233211809Y-92754819D02*
X232973714Y-92754819D01*
X232973714Y-92754819D02*
X232878476Y-92707200D01*
X232878476Y-92707200D02*
X232830857Y-92611961D01*
X232830857Y-92611961D02*
X232830857Y-92516723D01*
X232830857Y-92516723D02*
X232878476Y-92421485D01*
X232878476Y-92421485D02*
X232973714Y-92373866D01*
X232973714Y-92373866D02*
X233211809Y-92373866D01*
X233211809Y-92373866D02*
X233307047Y-92326247D01*
X234307047Y-92754819D02*
X233735619Y-92754819D01*
X234021333Y-92754819D02*
X234021333Y-91754819D01*
X234021333Y-91754819D02*
X233926095Y-91897676D01*
X233926095Y-91897676D02*
X233830857Y-91992914D01*
X233830857Y-91992914D02*
X233735619Y-92040533D01*
X235037333Y-53116819D02*
X234704000Y-52640628D01*
X234465905Y-53116819D02*
X234465905Y-52116819D01*
X234465905Y-52116819D02*
X234846857Y-52116819D01*
X234846857Y-52116819D02*
X234942095Y-52164438D01*
X234942095Y-52164438D02*
X234989714Y-52212057D01*
X234989714Y-52212057D02*
X235037333Y-52307295D01*
X235037333Y-52307295D02*
X235037333Y-52450152D01*
X235037333Y-52450152D02*
X234989714Y-52545390D01*
X234989714Y-52545390D02*
X234942095Y-52593009D01*
X234942095Y-52593009D02*
X234846857Y-52640628D01*
X234846857Y-52640628D02*
X234465905Y-52640628D01*
X235989714Y-53116819D02*
X235418286Y-53116819D01*
X235704000Y-53116819D02*
X235704000Y-52116819D01*
X235704000Y-52116819D02*
X235608762Y-52259676D01*
X235608762Y-52259676D02*
X235513524Y-52354914D01*
X235513524Y-52354914D02*
X235418286Y-52402533D01*
X235037333Y-82834819D02*
X234704000Y-82358628D01*
X234465905Y-82834819D02*
X234465905Y-81834819D01*
X234465905Y-81834819D02*
X234846857Y-81834819D01*
X234846857Y-81834819D02*
X234942095Y-81882438D01*
X234942095Y-81882438D02*
X234989714Y-81930057D01*
X234989714Y-81930057D02*
X235037333Y-82025295D01*
X235037333Y-82025295D02*
X235037333Y-82168152D01*
X235037333Y-82168152D02*
X234989714Y-82263390D01*
X234989714Y-82263390D02*
X234942095Y-82311009D01*
X234942095Y-82311009D02*
X234846857Y-82358628D01*
X234846857Y-82358628D02*
X234465905Y-82358628D01*
X235370667Y-81834819D02*
X235989714Y-81834819D01*
X235989714Y-81834819D02*
X235656381Y-82215771D01*
X235656381Y-82215771D02*
X235799238Y-82215771D01*
X235799238Y-82215771D02*
X235894476Y-82263390D01*
X235894476Y-82263390D02*
X235942095Y-82311009D01*
X235942095Y-82311009D02*
X235989714Y-82406247D01*
X235989714Y-82406247D02*
X235989714Y-82644342D01*
X235989714Y-82644342D02*
X235942095Y-82739580D01*
X235942095Y-82739580D02*
X235894476Y-82787200D01*
X235894476Y-82787200D02*
X235799238Y-82834819D01*
X235799238Y-82834819D02*
X235513524Y-82834819D01*
X235513524Y-82834819D02*
X235418286Y-82787200D01*
X235418286Y-82787200D02*
X235370667Y-82739580D01*
X236524819Y-58904094D02*
X235524819Y-58904094D01*
X235524819Y-58904094D02*
X235524819Y-58665999D01*
X235524819Y-58665999D02*
X235572438Y-58523142D01*
X235572438Y-58523142D02*
X235667676Y-58427904D01*
X235667676Y-58427904D02*
X235762914Y-58380285D01*
X235762914Y-58380285D02*
X235953390Y-58332666D01*
X235953390Y-58332666D02*
X236096247Y-58332666D01*
X236096247Y-58332666D02*
X236286723Y-58380285D01*
X236286723Y-58380285D02*
X236381961Y-58427904D01*
X236381961Y-58427904D02*
X236477200Y-58523142D01*
X236477200Y-58523142D02*
X236524819Y-58665999D01*
X236524819Y-58665999D02*
X236524819Y-58904094D01*
X236524819Y-57380285D02*
X236524819Y-57951713D01*
X236524819Y-57665999D02*
X235524819Y-57665999D01*
X235524819Y-57665999D02*
X235667676Y-57761237D01*
X235667676Y-57761237D02*
X235762914Y-57856475D01*
X235762914Y-57856475D02*
X235810533Y-57951713D01*
X215175714Y-85259104D02*
X215651904Y-85259104D01*
X215080476Y-85544819D02*
X215413809Y-84544819D01*
X215413809Y-84544819D02*
X215747142Y-85544819D01*
X216604285Y-85544819D02*
X216032857Y-85544819D01*
X216318571Y-85544819D02*
X216318571Y-84544819D01*
X216318571Y-84544819D02*
X216223333Y-84687676D01*
X216223333Y-84687676D02*
X216128095Y-84782914D01*
X216128095Y-84782914D02*
X216032857Y-84830533D01*
X217151904Y-44995180D02*
X217151904Y-44185657D01*
X217151904Y-44185657D02*
X217104285Y-44090419D01*
X217104285Y-44090419D02*
X217056666Y-44042800D01*
X217056666Y-44042800D02*
X216961428Y-43995180D01*
X216961428Y-43995180D02*
X216770952Y-43995180D01*
X216770952Y-43995180D02*
X216675714Y-44042800D01*
X216675714Y-44042800D02*
X216628095Y-44090419D01*
X216628095Y-44090419D02*
X216580476Y-44185657D01*
X216580476Y-44185657D02*
X216580476Y-44995180D01*
X216151904Y-44042800D02*
X216009047Y-43995180D01*
X216009047Y-43995180D02*
X215770952Y-43995180D01*
X215770952Y-43995180D02*
X215675714Y-44042800D01*
X215675714Y-44042800D02*
X215628095Y-44090419D01*
X215628095Y-44090419D02*
X215580476Y-44185657D01*
X215580476Y-44185657D02*
X215580476Y-44280895D01*
X215580476Y-44280895D02*
X215628095Y-44376133D01*
X215628095Y-44376133D02*
X215675714Y-44423752D01*
X215675714Y-44423752D02*
X215770952Y-44471371D01*
X215770952Y-44471371D02*
X215961428Y-44518990D01*
X215961428Y-44518990D02*
X216056666Y-44566609D01*
X216056666Y-44566609D02*
X216104285Y-44614228D01*
X216104285Y-44614228D02*
X216151904Y-44709466D01*
X216151904Y-44709466D02*
X216151904Y-44804704D01*
X216151904Y-44804704D02*
X216104285Y-44899942D01*
X216104285Y-44899942D02*
X216056666Y-44947561D01*
X216056666Y-44947561D02*
X215961428Y-44995180D01*
X215961428Y-44995180D02*
X215723333Y-44995180D01*
X215723333Y-44995180D02*
X215580476Y-44947561D01*
X214818571Y-44518990D02*
X214675714Y-44471371D01*
X214675714Y-44471371D02*
X214628095Y-44423752D01*
X214628095Y-44423752D02*
X214580476Y-44328514D01*
X214580476Y-44328514D02*
X214580476Y-44185657D01*
X214580476Y-44185657D02*
X214628095Y-44090419D01*
X214628095Y-44090419D02*
X214675714Y-44042800D01*
X214675714Y-44042800D02*
X214770952Y-43995180D01*
X214770952Y-43995180D02*
X215151904Y-43995180D01*
X215151904Y-43995180D02*
X215151904Y-44995180D01*
X215151904Y-44995180D02*
X214818571Y-44995180D01*
X214818571Y-44995180D02*
X214723333Y-44947561D01*
X214723333Y-44947561D02*
X214675714Y-44899942D01*
X214675714Y-44899942D02*
X214628095Y-44804704D01*
X214628095Y-44804704D02*
X214628095Y-44709466D01*
X214628095Y-44709466D02*
X214675714Y-44614228D01*
X214675714Y-44614228D02*
X214723333Y-44566609D01*
X214723333Y-44566609D02*
X214818571Y-44518990D01*
X214818571Y-44518990D02*
X215151904Y-44518990D01*
X202120666Y-89354819D02*
X201787333Y-88878628D01*
X201549238Y-89354819D02*
X201549238Y-88354819D01*
X201549238Y-88354819D02*
X201930190Y-88354819D01*
X201930190Y-88354819D02*
X202025428Y-88402438D01*
X202025428Y-88402438D02*
X202073047Y-88450057D01*
X202073047Y-88450057D02*
X202120666Y-88545295D01*
X202120666Y-88545295D02*
X202120666Y-88688152D01*
X202120666Y-88688152D02*
X202073047Y-88783390D01*
X202073047Y-88783390D02*
X202025428Y-88831009D01*
X202025428Y-88831009D02*
X201930190Y-88878628D01*
X201930190Y-88878628D02*
X201549238Y-88878628D01*
X202882571Y-88831009D02*
X202549238Y-88831009D01*
X202549238Y-89354819D02*
X202549238Y-88354819D01*
X202549238Y-88354819D02*
X203025428Y-88354819D01*
X203406381Y-89354819D02*
X203406381Y-88354819D01*
X203882571Y-89354819D02*
X203882571Y-88354819D01*
X203882571Y-88354819D02*
X204120666Y-88354819D01*
X204120666Y-88354819D02*
X204263523Y-88402438D01*
X204263523Y-88402438D02*
X204358761Y-88497676D01*
X204358761Y-88497676D02*
X204406380Y-88592914D01*
X204406380Y-88592914D02*
X204453999Y-88783390D01*
X204453999Y-88783390D02*
X204453999Y-88926247D01*
X204453999Y-88926247D02*
X204406380Y-89116723D01*
X204406380Y-89116723D02*
X204358761Y-89211961D01*
X204358761Y-89211961D02*
X204263523Y-89307200D01*
X204263523Y-89307200D02*
X204120666Y-89354819D01*
X204120666Y-89354819D02*
X203882571Y-89354819D01*
X205406380Y-89354819D02*
X204834952Y-89354819D01*
X205120666Y-89354819D02*
X205120666Y-88354819D01*
X205120666Y-88354819D02*
X205025428Y-88497676D01*
X205025428Y-88497676D02*
X204930190Y-88592914D01*
X204930190Y-88592914D02*
X204834952Y-88640533D01*
X235037333Y-42026819D02*
X234704000Y-41550628D01*
X234465905Y-42026819D02*
X234465905Y-41026819D01*
X234465905Y-41026819D02*
X234846857Y-41026819D01*
X234846857Y-41026819D02*
X234942095Y-41074438D01*
X234942095Y-41074438D02*
X234989714Y-41122057D01*
X234989714Y-41122057D02*
X235037333Y-41217295D01*
X235037333Y-41217295D02*
X235037333Y-41360152D01*
X235037333Y-41360152D02*
X234989714Y-41455390D01*
X234989714Y-41455390D02*
X234942095Y-41503009D01*
X234942095Y-41503009D02*
X234846857Y-41550628D01*
X234846857Y-41550628D02*
X234465905Y-41550628D01*
X235418286Y-41122057D02*
X235465905Y-41074438D01*
X235465905Y-41074438D02*
X235561143Y-41026819D01*
X235561143Y-41026819D02*
X235799238Y-41026819D01*
X235799238Y-41026819D02*
X235894476Y-41074438D01*
X235894476Y-41074438D02*
X235942095Y-41122057D01*
X235942095Y-41122057D02*
X235989714Y-41217295D01*
X235989714Y-41217295D02*
X235989714Y-41312533D01*
X235989714Y-41312533D02*
X235942095Y-41455390D01*
X235942095Y-41455390D02*
X235370667Y-42026819D01*
X235370667Y-42026819D02*
X235989714Y-42026819D01*
X227126819Y-58904094D02*
X226126819Y-58904094D01*
X226126819Y-58904094D02*
X226126819Y-58665999D01*
X226126819Y-58665999D02*
X226174438Y-58523142D01*
X226174438Y-58523142D02*
X226269676Y-58427904D01*
X226269676Y-58427904D02*
X226364914Y-58380285D01*
X226364914Y-58380285D02*
X226555390Y-58332666D01*
X226555390Y-58332666D02*
X226698247Y-58332666D01*
X226698247Y-58332666D02*
X226888723Y-58380285D01*
X226888723Y-58380285D02*
X226983961Y-58427904D01*
X226983961Y-58427904D02*
X227079200Y-58523142D01*
X227079200Y-58523142D02*
X227126819Y-58665999D01*
X227126819Y-58665999D02*
X227126819Y-58904094D01*
X226222057Y-57951713D02*
X226174438Y-57904094D01*
X226174438Y-57904094D02*
X226126819Y-57808856D01*
X226126819Y-57808856D02*
X226126819Y-57570761D01*
X226126819Y-57570761D02*
X226174438Y-57475523D01*
X226174438Y-57475523D02*
X226222057Y-57427904D01*
X226222057Y-57427904D02*
X226317295Y-57380285D01*
X226317295Y-57380285D02*
X226412533Y-57380285D01*
X226412533Y-57380285D02*
X226555390Y-57427904D01*
X226555390Y-57427904D02*
X227126819Y-57999332D01*
X227126819Y-57999332D02*
X227126819Y-57380285D01*
D14*
%TO.C,Salida1*%
X235538000Y-91550000D02*
X227738000Y-91550000D01*
X235538000Y-85500000D02*
X235538000Y-91550000D01*
X234188000Y-86610000D02*
X229108000Y-86610000D01*
X234188000Y-85600000D02*
X234188000Y-86610000D01*
X229108000Y-86610000D02*
X229108000Y-85600000D01*
X227738000Y-91550000D02*
X227738000Y-85500000D01*
X227738000Y-85500000D02*
X235538000Y-85500000D01*
%TO.C,R1*%
X239244000Y-50292000D02*
X238474000Y-50292000D01*
X238474000Y-51662000D02*
X238474000Y-48922000D01*
X238474000Y-48922000D02*
X231934000Y-48922000D01*
X231934000Y-51662000D02*
X238474000Y-51662000D01*
X231934000Y-48922000D02*
X231934000Y-51662000D01*
X231164000Y-50292000D02*
X231934000Y-50292000D01*
%TO.C,R3*%
X239244000Y-80010000D02*
X238474000Y-80010000D01*
X238474000Y-81380000D02*
X238474000Y-78640000D01*
X238474000Y-78640000D02*
X231934000Y-78640000D01*
X231934000Y-81380000D02*
X238474000Y-81380000D01*
X231934000Y-78640000D02*
X231934000Y-81380000D01*
X231164000Y-80010000D02*
X231934000Y-80010000D01*
%TO.C,D1*%
X238485000Y-60726000D02*
X241575000Y-60726000D01*
X240030462Y-55176001D02*
G75*
G03*
X238485170Y-60725999I-462J-2989999D01*
G01*
X241574830Y-60726000D02*
G75*
G03*
X240029538Y-55176000I-1544830J2560000D01*
G01*
X242530000Y-58166000D02*
G75*
G03*
X242530000Y-58166000I-2500000J0D01*
G01*
%TO.C,A1*%
X224910000Y-83950000D02*
X224910000Y-81280000D01*
X224910000Y-78740000D02*
X224910000Y-40510000D01*
X224910000Y-40510000D02*
X219830000Y-40510000D01*
X222240000Y-81280000D02*
X224910000Y-81280000D01*
X222240000Y-78740000D02*
X224910000Y-78740000D01*
X222240000Y-78740000D02*
X222240000Y-81280000D01*
X222240000Y-78740000D02*
X222240000Y-43180000D01*
X222240000Y-43180000D02*
X224910000Y-43180000D01*
X219830000Y-48390000D02*
X211950000Y-48390000D01*
X219830000Y-37970000D02*
X219830000Y-48390000D01*
X211950000Y-48390000D02*
X211950000Y-37970000D01*
X211950000Y-37970000D02*
X219830000Y-37970000D01*
X209540000Y-81280000D02*
X209540000Y-43180000D01*
X209540000Y-81280000D02*
X206870000Y-81280000D01*
X209540000Y-43180000D02*
X206870000Y-43180000D01*
X206870000Y-83950000D02*
X224910000Y-83950000D01*
X206870000Y-40510000D02*
X211950000Y-40510000D01*
X206870000Y-40510000D02*
X206870000Y-83950000D01*
%TO.C,RFID1*%
X205624000Y-85940000D02*
X208034000Y-85940000D01*
X205624000Y-88350000D02*
X205624000Y-85940000D01*
X205924000Y-86240000D02*
X205924000Y-88770000D01*
X205924000Y-88770000D02*
X206054000Y-88770000D01*
X205924000Y-90580000D02*
X205924000Y-91560000D01*
X205924000Y-91560000D02*
X212234000Y-91560000D01*
X206054000Y-88770000D02*
X206054000Y-90580000D01*
X206054000Y-90580000D02*
X205924000Y-90580000D01*
X212234000Y-91560000D02*
X212234000Y-93060000D01*
X212234000Y-93060000D02*
X220074000Y-93060000D01*
X220074000Y-91560000D02*
X226384000Y-91560000D01*
X220074000Y-93060000D02*
X220074000Y-91560000D01*
X226254000Y-88770000D02*
X226384000Y-88770000D01*
X226254000Y-90580000D02*
X226254000Y-88770000D01*
X226384000Y-86240000D02*
X205924000Y-86240000D01*
X226384000Y-88770000D02*
X226384000Y-86240000D01*
X226384000Y-90580000D02*
X226254000Y-90580000D01*
X226384000Y-91560000D02*
X226384000Y-90580000D01*
%TO.C,R2*%
X231164000Y-43942000D02*
X231934000Y-43942000D01*
X231934000Y-42572000D02*
X231934000Y-45312000D01*
X231934000Y-45312000D02*
X238474000Y-45312000D01*
X238474000Y-42572000D02*
X231934000Y-42572000D01*
X238474000Y-45312000D02*
X238474000Y-42572000D01*
X239244000Y-43942000D02*
X238474000Y-43942000D01*
%TO.C,D2*%
X229087000Y-60726000D02*
X232177000Y-60726000D01*
X230632462Y-55176001D02*
G75*
G03*
X229087170Y-60725999I-462J-2989999D01*
G01*
X232176830Y-60726000D02*
G75*
G03*
X230631538Y-55176000I-1544830J2560000D01*
G01*
X233132000Y-58166000D02*
G75*
G03*
X233132000Y-58166000I-2500000J0D01*
G01*
%TD*%
M02*
