%TF.GenerationSoftware,KiCad,Pcbnew,7.0.7*%
%TF.CreationDate,2024-02-13T22:49:07-05:00*%
%TF.ProjectId,ControlAcceso,436f6e74-726f-46c4-9163-6365736f2e6b,rev?*%
%TF.SameCoordinates,Original*%
%TF.FileFunction,Soldermask,Bot*%
%TF.FilePolarity,Negative*%
%FSLAX46Y46*%
G04 Gerber Fmt 4.6, Leading zero omitted, Abs format (unit mm)*
G04 Created by KiCad (PCBNEW 7.0.7) date 2024-02-13 22:49:07*
%MOMM*%
%LPD*%
G01*
G04 APERTURE LIST*
G04 Aperture macros list*
%AMRoundRect*
0 Rectangle with rounded corners*
0 $1 Rounding radius*
0 $2 $3 $4 $5 $6 $7 $8 $9 X,Y pos of 4 corners*
0 Add a 4 corners polygon primitive as box body*
4,1,4,$2,$3,$4,$5,$6,$7,$8,$9,$2,$3,0*
0 Add four circle primitives for the rounded corners*
1,1,$1+$1,$2,$3*
1,1,$1+$1,$4,$5*
1,1,$1+$1,$6,$7*
1,1,$1+$1,$8,$9*
0 Add four rect primitives between the rounded corners*
20,1,$1+$1,$2,$3,$4,$5,0*
20,1,$1+$1,$4,$5,$6,$7,0*
20,1,$1+$1,$6,$7,$8,$9,0*
20,1,$1+$1,$8,$9,$2,$3,0*%
G04 Aperture macros list end*
%ADD10R,1.730000X2.030000*%
%ADD11O,1.730000X2.030000*%
%ADD12C,3.500000*%
%ADD13C,1.600000*%
%ADD14O,1.600000X1.600000*%
%ADD15R,1.800000X1.800000*%
%ADD16C,1.800000*%
%ADD17R,1.600000X1.600000*%
%ADD18RoundRect,0.250000X-0.620000X-0.620000X0.620000X-0.620000X0.620000X0.620000X-0.620000X0.620000X0*%
%ADD19C,1.740000*%
G04 APERTURE END LIST*
D10*
%TO.C,Salida1*%
X234188000Y-88900000D03*
D11*
X231648000Y-88900000D03*
X229108000Y-88900000D03*
%TD*%
D12*
%TO.C,*%
X197866000Y-92456000D03*
%TD*%
%TO.C,*%
X197866000Y-39370000D03*
%TD*%
D13*
%TO.C,R1*%
X240284000Y-50292000D03*
D14*
X230124000Y-50292000D03*
%TD*%
D13*
%TO.C,R3*%
X240284000Y-80010000D03*
D14*
X230124000Y-80010000D03*
%TD*%
D15*
%TO.C,D1*%
X240030000Y-59436000D03*
D16*
X240030000Y-56896000D03*
%TD*%
D17*
%TO.C,A1*%
X223510000Y-80010000D03*
D14*
X223510000Y-77470000D03*
X223510000Y-74930000D03*
X223510000Y-72390000D03*
X223510000Y-69850000D03*
X223510000Y-67310000D03*
X223510000Y-64770000D03*
X223510000Y-62230000D03*
X223510000Y-59690000D03*
X223510000Y-57150000D03*
X223510000Y-54610000D03*
X223510000Y-52070000D03*
X223510000Y-49530000D03*
X223510000Y-46990000D03*
X223510000Y-44450000D03*
X208270000Y-44450000D03*
X208270000Y-46990000D03*
X208270000Y-49530000D03*
X208270000Y-52070000D03*
X208270000Y-54610000D03*
X208270000Y-57150000D03*
X208270000Y-59690000D03*
X208270000Y-62230000D03*
X208270000Y-64770000D03*
X208270000Y-67310000D03*
X208270000Y-69850000D03*
X208270000Y-72390000D03*
X208270000Y-74930000D03*
X208270000Y-77470000D03*
X208270000Y-80010000D03*
%TD*%
D12*
%TO.C,*%
X241808000Y-38862000D03*
%TD*%
D18*
%TO.C,RFID1*%
X208534000Y-88900000D03*
D19*
X211074000Y-88900000D03*
X213614000Y-88900000D03*
X216154000Y-88900000D03*
X218694000Y-88900000D03*
X221234000Y-88900000D03*
X223774000Y-88900000D03*
%TD*%
D13*
%TO.C,R2*%
X230124000Y-43942000D03*
D14*
X240284000Y-43942000D03*
%TD*%
D15*
%TO.C,D2*%
X230632000Y-59436000D03*
D16*
X230632000Y-56896000D03*
%TD*%
D12*
%TO.C,*%
X241808000Y-92456000D03*
%TD*%
M02*
