%TF.GenerationSoftware,KiCad,Pcbnew,7.0.7*%
%TF.CreationDate,2024-02-21T07:19:23-05:00*%
%TF.ProjectId,ControlAcceso,436f6e74-726f-46c4-9163-6365736f2e6b,rev?*%
%TF.SameCoordinates,Original*%
%TF.FileFunction,Copper,L1,Top*%
%TF.FilePolarity,Positive*%
%FSLAX46Y46*%
G04 Gerber Fmt 4.6, Leading zero omitted, Abs format (unit mm)*
G04 Created by KiCad (PCBNEW 7.0.7) date 2024-02-21 07:19:23*
%MOMM*%
%LPD*%
G01*
G04 APERTURE LIST*
%TA.AperFunction,ComponentPad*%
%ADD10R,1.700000X1.700000*%
%TD*%
%TA.AperFunction,ComponentPad*%
%ADD11O,1.700000X1.700000*%
%TD*%
%TA.AperFunction,ComponentPad*%
%ADD12R,1.800000X1.800000*%
%TD*%
%TA.AperFunction,ComponentPad*%
%ADD13C,1.800000*%
%TD*%
%TA.AperFunction,ComponentPad*%
%ADD14C,3.500000*%
%TD*%
%TA.AperFunction,ComponentPad*%
%ADD15R,1.600000X1.600000*%
%TD*%
%TA.AperFunction,ComponentPad*%
%ADD16O,1.600000X1.600000*%
%TD*%
%TA.AperFunction,ComponentPad*%
%ADD17C,1.108000*%
%TD*%
%TA.AperFunction,ComponentPad*%
%ADD18R,1.108000X1.108000*%
%TD*%
%TA.AperFunction,ComponentPad*%
%ADD19C,1.600000*%
%TD*%
%TA.AperFunction,ComponentPad*%
%ADD20R,2.000000X1.905000*%
%TD*%
%TA.AperFunction,ComponentPad*%
%ADD21O,2.000000X1.905000*%
%TD*%
G04 APERTURE END LIST*
D10*
%TO.P,ANT1,1,Pin_1*%
%TO.N,Net-(ANT1-Pin_1)*%
X242125000Y-84100000D03*
D11*
%TO.P,ANT1,2,Pin_2*%
%TO.N,Net-(ANT1-Pin_2)*%
X242125000Y-86640000D03*
%TD*%
D12*
%TO.P,D2,1,K*%
%TO.N,GND*%
X222310000Y-42660000D03*
D13*
%TO.P,D2,2,A*%
%TO.N,Net-(D2-A)*%
X224850000Y-42660000D03*
%TD*%
D14*
%TO.P,,1*%
%TO.N,N/C*%
X197866000Y-92456000D03*
%TD*%
D12*
%TO.P,D1,1,K*%
%TO.N,GND*%
X229108000Y-42672000D03*
D13*
%TO.P,D1,2,A*%
%TO.N,Net-(D1-A)*%
X231648000Y-42672000D03*
%TD*%
D14*
%TO.P,,1*%
%TO.N,N/C*%
X197866000Y-39370000D03*
%TD*%
D15*
%TO.P,A1,1,D1/TX*%
%TO.N,unconnected-(A1-D1{slash}TX-Pad1)*%
X217424000Y-89916000D03*
D16*
%TO.P,A1,2,D0/RX*%
%TO.N,unconnected-(A1-D0{slash}RX-Pad2)*%
X217424000Y-87376000D03*
%TO.P,A1,3,~{RESET}*%
%TO.N,unconnected-(A1-~{RESET}-Pad3)*%
X217424000Y-84836000D03*
%TO.P,A1,4,GND*%
%TO.N,GND*%
X217424000Y-82296000D03*
%TO.P,A1,5,D2*%
%TO.N,unconnected-(A1-D2-Pad5)*%
X217424000Y-79756000D03*
%TO.P,A1,6,D3*%
%TO.N,unconnected-(A1-D3-Pad6)*%
X217424000Y-77216000D03*
%TO.P,A1,7,D4*%
%TO.N,OUT*%
X217424000Y-74676000D03*
%TO.P,A1,8,D5*%
%TO.N,unconnected-(A1-D5-Pad8)*%
X217424000Y-72136000D03*
%TO.P,A1,9,D6*%
%TO.N,unconnected-(A1-D6-Pad9)*%
X217424000Y-69596000D03*
%TO.P,A1,10,D7*%
%TO.N,unconnected-(A1-D7-Pad10)*%
X217424000Y-67056000D03*
%TO.P,A1,11,D8*%
%TO.N,unconnected-(A1-D8-Pad11)*%
X217424000Y-64516000D03*
%TO.P,A1,12,D9*%
%TO.N,unconnected-(A1-D9-Pad12)*%
X217424000Y-61976000D03*
%TO.P,A1,13,D10*%
%TO.N,TX-SERIAL*%
X217424000Y-59436000D03*
%TO.P,A1,14,D11*%
%TO.N,RX-SERIAL*%
X217424000Y-56896000D03*
%TO.P,A1,15,D12*%
%TO.N,LED-ON*%
X217424000Y-54356000D03*
%TO.P,A1,16,D13*%
%TO.N,LED-OFF*%
X202184000Y-54356000D03*
%TO.P,A1,17,3V3*%
%TO.N,3V3*%
X202184000Y-56896000D03*
%TO.P,A1,18,AREF*%
%TO.N,unconnected-(A1-AREF-Pad18)*%
X202184000Y-59436000D03*
%TO.P,A1,19,A0*%
%TO.N,unconnected-(A1-A0-Pad19)*%
X202184000Y-61976000D03*
%TO.P,A1,20,A1*%
%TO.N,unconnected-(A1-A1-Pad20)*%
X202184000Y-64516000D03*
%TO.P,A1,21,A2*%
%TO.N,unconnected-(A1-A2-Pad21)*%
X202184000Y-67056000D03*
%TO.P,A1,22,A3*%
%TO.N,unconnected-(A1-A3-Pad22)*%
X202184000Y-69596000D03*
%TO.P,A1,23,A4*%
%TO.N,unconnected-(A1-A4-Pad23)*%
X202184000Y-72136000D03*
%TO.P,A1,24,A5*%
%TO.N,unconnected-(A1-A5-Pad24)*%
X202184000Y-74676000D03*
%TO.P,A1,25,A6*%
%TO.N,unconnected-(A1-A6-Pad25)*%
X202184000Y-77216000D03*
%TO.P,A1,26,A7*%
%TO.N,unconnected-(A1-A7-Pad26)*%
X202184000Y-79756000D03*
%TO.P,A1,27,+5V*%
%TO.N,+5V*%
X202184000Y-82296000D03*
%TO.P,A1,28,~{RESET}*%
%TO.N,unconnected-(A1-~{RESET}-Pad28)*%
X202184000Y-84836000D03*
%TO.P,A1,29,GND*%
%TO.N,GND*%
X202184000Y-87376000D03*
%TO.P,A1,30,VIN*%
%TO.N,VIN*%
X202184000Y-89916000D03*
%TD*%
D17*
%TO.P,RDM1,ANT1,ANT1*%
%TO.N,Net-(ANT1-Pin_2)*%
X237744000Y-91397500D03*
D18*
%TO.P,RDM1,ANT2,ANT2*%
%TO.N,Net-(ANT1-Pin_1)*%
X237744000Y-88857500D03*
D17*
%TO.P,RDM1,D0,D0*%
%TO.N,unconnected-(RDM1-PadD0)*%
X222504000Y-63457500D03*
%TO.P,RDM1,GND,GND*%
%TO.N,GND*%
X222504000Y-65997500D03*
%TO.P,RDM1,GND1,GND1*%
%TO.N,unconnected-(RDM1-PadGND1)*%
X237744000Y-63457500D03*
D18*
%TO.P,RDM1,LED,LED*%
%TO.N,unconnected-(RDM1-PadLED)*%
X237744000Y-58377500D03*
D17*
%TO.P,RDM1,RX,RX*%
%TO.N,TX-SERIAL*%
X222504000Y-60917500D03*
D18*
%TO.P,RDM1,TX,TX*%
%TO.N,RX-SERIAL*%
X222504000Y-58377500D03*
D17*
%TO.P,RDM1,VCC,VCC*%
%TO.N,+5V*%
X222504000Y-68537500D03*
%TO.P,RDM1,VCC1,VCC1*%
%TO.N,unconnected-(RDM1-PadVCC1)*%
X237744000Y-60917500D03*
%TD*%
D19*
%TO.P,R1,1*%
%TO.N,Net-(D2-A)*%
X230886000Y-48260000D03*
D16*
%TO.P,R1,2*%
%TO.N,LED-OFF*%
X220726000Y-48260000D03*
%TD*%
D20*
%TO.P,U1,1,VI*%
%TO.N,Net-(DC-9V1-Pin_1)*%
X217932000Y-44830000D03*
D21*
%TO.P,U1,2,GND*%
%TO.N,GND*%
X217932000Y-42290000D03*
%TO.P,U1,3,VO*%
%TO.N,VIN*%
X217932000Y-39750000D03*
%TD*%
D10*
%TO.P,Salida1,1,Pin_1*%
%TO.N,+5V*%
X242125000Y-49125000D03*
D11*
%TO.P,Salida1,2,Pin_2*%
%TO.N,OUT*%
X242125000Y-46585000D03*
%TO.P,Salida1,3,Pin_3*%
%TO.N,GND*%
X242125000Y-44045000D03*
%TD*%
D19*
%TO.P,R2,1*%
%TO.N,LED-ON*%
X220726000Y-52578000D03*
D16*
%TO.P,R2,2*%
%TO.N,Net-(D1-A)*%
X230886000Y-52578000D03*
%TD*%
D10*
%TO.P,DC-9V1,1,Pin_1*%
%TO.N,Net-(DC-9V1-Pin_1)*%
X198370000Y-51303000D03*
D11*
%TO.P,DC-9V1,2,Pin_2*%
%TO.N,GND*%
X198370000Y-53843000D03*
%TD*%
D14*
%TO.P,,1*%
%TO.N,N/C*%
X241808000Y-38862000D03*
%TD*%
%TO.P,,1*%
%TO.N,N/C*%
X241808000Y-92456000D03*
%TD*%
M02*
