%TF.GenerationSoftware,KiCad,Pcbnew,7.0.5*%
%TF.CreationDate,2024-02-15T09:58:16-05:00*%
%TF.ProjectId,ControlAcceso,436f6e74-726f-46c4-9163-6365736f2e6b,rev?*%
%TF.SameCoordinates,Original*%
%TF.FileFunction,Copper,L2,Bot*%
%TF.FilePolarity,Positive*%
%FSLAX46Y46*%
G04 Gerber Fmt 4.6, Leading zero omitted, Abs format (unit mm)*
G04 Created by KiCad (PCBNEW 7.0.5) date 2024-02-15 09:58:16*
%MOMM*%
%LPD*%
G01*
G04 APERTURE LIST*
%TA.AperFunction,ComponentPad*%
%ADD10R,1.700000X1.700000*%
%TD*%
%TA.AperFunction,ComponentPad*%
%ADD11O,1.700000X1.700000*%
%TD*%
%TA.AperFunction,ComponentPad*%
%ADD12R,1.800000X1.800000*%
%TD*%
%TA.AperFunction,ComponentPad*%
%ADD13C,1.800000*%
%TD*%
%TA.AperFunction,ComponentPad*%
%ADD14C,3.500000*%
%TD*%
%TA.AperFunction,ComponentPad*%
%ADD15R,1.600000X1.600000*%
%TD*%
%TA.AperFunction,ComponentPad*%
%ADD16O,1.600000X1.600000*%
%TD*%
%TA.AperFunction,ComponentPad*%
%ADD17C,1.108000*%
%TD*%
%TA.AperFunction,ComponentPad*%
%ADD18R,1.108000X1.108000*%
%TD*%
%TA.AperFunction,ComponentPad*%
%ADD19C,1.600000*%
%TD*%
%TA.AperFunction,ComponentPad*%
%ADD20R,2.000000X1.905000*%
%TD*%
%TA.AperFunction,ComponentPad*%
%ADD21O,2.000000X1.905000*%
%TD*%
%TA.AperFunction,Conductor*%
%ADD22C,0.500000*%
%TD*%
G04 APERTURE END LIST*
D10*
%TO.P,ANT1,1,Pin_1*%
%TO.N,Net-(ANT1-Pin_1)*%
X242125000Y-84100000D03*
D11*
%TO.P,ANT1,2,Pin_2*%
%TO.N,Net-(ANT1-Pin_2)*%
X242125000Y-86640000D03*
%TD*%
D12*
%TO.P,D2,1,K*%
%TO.N,GND*%
X222310000Y-42660000D03*
D13*
%TO.P,D2,2,A*%
%TO.N,Net-(D2-A)*%
X224850000Y-42660000D03*
%TD*%
D14*
%TO.P,,1*%
%TO.N,N/C*%
X197866000Y-92456000D03*
%TD*%
D12*
%TO.P,D1,1,K*%
%TO.N,GND*%
X229108000Y-42672000D03*
D13*
%TO.P,D1,2,A*%
%TO.N,Net-(D1-A)*%
X231648000Y-42672000D03*
%TD*%
D14*
%TO.P,,1*%
%TO.N,N/C*%
X197866000Y-39370000D03*
%TD*%
D15*
%TO.P,A1,1,D1/TX*%
%TO.N,unconnected-(A1-D1{slash}TX-Pad1)*%
X217424000Y-89916000D03*
D16*
%TO.P,A1,2,D0/RX*%
%TO.N,unconnected-(A1-D0{slash}RX-Pad2)*%
X217424000Y-87376000D03*
%TO.P,A1,3,~{RESET}*%
%TO.N,unconnected-(A1-~{RESET}-Pad3)*%
X217424000Y-84836000D03*
%TO.P,A1,4,GND*%
%TO.N,GND*%
X217424000Y-82296000D03*
%TO.P,A1,5,D2*%
%TO.N,unconnected-(A1-D2-Pad5)*%
X217424000Y-79756000D03*
%TO.P,A1,6,D3*%
%TO.N,unconnected-(A1-D3-Pad6)*%
X217424000Y-77216000D03*
%TO.P,A1,7,D4*%
%TO.N,OUT*%
X217424000Y-74676000D03*
%TO.P,A1,8,D5*%
%TO.N,unconnected-(A1-D5-Pad8)*%
X217424000Y-72136000D03*
%TO.P,A1,9,D6*%
%TO.N,unconnected-(A1-D6-Pad9)*%
X217424000Y-69596000D03*
%TO.P,A1,10,D7*%
%TO.N,unconnected-(A1-D7-Pad10)*%
X217424000Y-67056000D03*
%TO.P,A1,11,D8*%
%TO.N,unconnected-(A1-D8-Pad11)*%
X217424000Y-64516000D03*
%TO.P,A1,12,D9*%
%TO.N,unconnected-(A1-D9-Pad12)*%
X217424000Y-61976000D03*
%TO.P,A1,13,D10*%
%TO.N,TX-SERIAL*%
X217424000Y-59436000D03*
%TO.P,A1,14,D11*%
%TO.N,RX-SERIAL*%
X217424000Y-56896000D03*
%TO.P,A1,15,D12*%
%TO.N,LED-ON*%
X217424000Y-54356000D03*
%TO.P,A1,16,D13*%
%TO.N,LED-OFF*%
X202184000Y-54356000D03*
%TO.P,A1,17,3V3*%
%TO.N,3V3*%
X202184000Y-56896000D03*
%TO.P,A1,18,AREF*%
%TO.N,unconnected-(A1-AREF-Pad18)*%
X202184000Y-59436000D03*
%TO.P,A1,19,A0*%
%TO.N,unconnected-(A1-A0-Pad19)*%
X202184000Y-61976000D03*
%TO.P,A1,20,A1*%
%TO.N,unconnected-(A1-A1-Pad20)*%
X202184000Y-64516000D03*
%TO.P,A1,21,A2*%
%TO.N,unconnected-(A1-A2-Pad21)*%
X202184000Y-67056000D03*
%TO.P,A1,22,A3*%
%TO.N,unconnected-(A1-A3-Pad22)*%
X202184000Y-69596000D03*
%TO.P,A1,23,A4*%
%TO.N,unconnected-(A1-A4-Pad23)*%
X202184000Y-72136000D03*
%TO.P,A1,24,A5*%
%TO.N,unconnected-(A1-A5-Pad24)*%
X202184000Y-74676000D03*
%TO.P,A1,25,A6*%
%TO.N,unconnected-(A1-A6-Pad25)*%
X202184000Y-77216000D03*
%TO.P,A1,26,A7*%
%TO.N,unconnected-(A1-A7-Pad26)*%
X202184000Y-79756000D03*
%TO.P,A1,27,+5V*%
%TO.N,+5V*%
X202184000Y-82296000D03*
%TO.P,A1,28,~{RESET}*%
%TO.N,unconnected-(A1-~{RESET}-Pad28)*%
X202184000Y-84836000D03*
%TO.P,A1,29,GND*%
%TO.N,GND*%
X202184000Y-87376000D03*
%TO.P,A1,30,VIN*%
%TO.N,VIN*%
X202184000Y-89916000D03*
%TD*%
D17*
%TO.P,RDM1,ANT1,ANT1*%
%TO.N,Net-(ANT1-Pin_2)*%
X237744000Y-91397500D03*
D18*
%TO.P,RDM1,ANT2,ANT2*%
%TO.N,Net-(ANT1-Pin_1)*%
X237744000Y-88857500D03*
D17*
%TO.P,RDM1,D0,D0*%
%TO.N,unconnected-(RDM1-PadD0)*%
X222504000Y-63457500D03*
%TO.P,RDM1,GND,GND*%
%TO.N,GND*%
X222504000Y-65997500D03*
%TO.P,RDM1,GND1,GND1*%
%TO.N,unconnected-(RDM1-PadGND1)*%
X237744000Y-63457500D03*
D18*
%TO.P,RDM1,LED,LED*%
%TO.N,unconnected-(RDM1-PadLED)*%
X237744000Y-58377500D03*
D17*
%TO.P,RDM1,RX,RX*%
%TO.N,TX-SERIAL*%
X222504000Y-60917500D03*
D18*
%TO.P,RDM1,TX,TX*%
%TO.N,RX-SERIAL*%
X222504000Y-58377500D03*
D17*
%TO.P,RDM1,VCC,VCC*%
%TO.N,+5V*%
X222504000Y-68537500D03*
%TO.P,RDM1,VCC1,VCC1*%
%TO.N,unconnected-(RDM1-PadVCC1)*%
X237744000Y-60917500D03*
%TD*%
D19*
%TO.P,R1,1*%
%TO.N,Net-(D2-A)*%
X230886000Y-48260000D03*
D16*
%TO.P,R1,2*%
%TO.N,LED-OFF*%
X220726000Y-48260000D03*
%TD*%
D20*
%TO.P,U1,1,VI*%
%TO.N,Net-(DC-9V1-Pin_1)*%
X217932000Y-44830000D03*
D21*
%TO.P,U1,2,GND*%
%TO.N,GND*%
X217932000Y-42290000D03*
%TO.P,U1,3,VO*%
%TO.N,VIN*%
X217932000Y-39750000D03*
%TD*%
D10*
%TO.P,Salida1,1,Pin_1*%
%TO.N,+5V*%
X242125000Y-49125000D03*
D11*
%TO.P,Salida1,2,Pin_2*%
%TO.N,OUT*%
X242125000Y-46585000D03*
%TO.P,Salida1,3,Pin_3*%
%TO.N,GND*%
X242125000Y-44045000D03*
%TD*%
D19*
%TO.P,R2,1*%
%TO.N,LED-ON*%
X220726000Y-52578000D03*
D16*
%TO.P,R2,2*%
%TO.N,Net-(D1-A)*%
X230886000Y-52578000D03*
%TD*%
D10*
%TO.P,DC-9V1,1,Pin_1*%
%TO.N,Net-(DC-9V1-Pin_1)*%
X198370000Y-51303000D03*
D11*
%TO.P,DC-9V1,2,Pin_2*%
%TO.N,GND*%
X198370000Y-53843000D03*
%TD*%
D14*
%TO.P,,1*%
%TO.N,N/C*%
X241808000Y-38862000D03*
%TD*%
%TO.P,,1*%
%TO.N,N/C*%
X241808000Y-92456000D03*
%TD*%
D22*
%TO.N,GND*%
X223874000Y-36576000D02*
X233934000Y-36576000D01*
X245560000Y-42370000D02*
X245560000Y-73190000D01*
X244540000Y-41350000D02*
X245560000Y-42370000D01*
X198370000Y-86740000D02*
X199006000Y-87376000D01*
X229108000Y-40640000D02*
X229108000Y-42672000D01*
X209804000Y-82296000D02*
X217424000Y-82296000D01*
X231902000Y-39370000D02*
X230378000Y-39370000D01*
X214396000Y-82296000D02*
X212110000Y-80010000D01*
X234188000Y-67056000D02*
X234188000Y-45466000D01*
X219964000Y-67056000D02*
X219964000Y-72136000D01*
X238708000Y-41350000D02*
X244540000Y-41350000D01*
X198370000Y-53843000D02*
X198370000Y-86740000D01*
X224900000Y-65940000D02*
X224842500Y-65997500D01*
X245560000Y-73190000D02*
X236454000Y-82296000D01*
X235775000Y-43243000D02*
X231902000Y-39370000D01*
X213430000Y-50900000D02*
X221920000Y-50900000D01*
X221920000Y-50900000D02*
X224900000Y-53880000D01*
X222310000Y-41850000D02*
X224790000Y-39370000D01*
X202184000Y-87376000D02*
X204724000Y-87376000D01*
X228346000Y-72898000D02*
X234188000Y-67056000D01*
X212110000Y-80010000D02*
X212110000Y-52220000D01*
X239115050Y-44045000D02*
X242125000Y-44045000D01*
X220726000Y-72898000D02*
X228346000Y-72898000D01*
X217424000Y-82296000D02*
X214396000Y-82296000D01*
X224900000Y-53880000D02*
X224900000Y-65940000D01*
X230378000Y-39370000D02*
X229748000Y-40000000D01*
X219964000Y-72136000D02*
X220726000Y-72898000D01*
X218160000Y-42290000D02*
X223874000Y-36576000D01*
X229748000Y-40000000D02*
X229108000Y-40640000D01*
X234188000Y-45466000D02*
X235609000Y-44045000D01*
X221022500Y-65997500D02*
X219964000Y-67056000D01*
X224790000Y-39370000D02*
X229118000Y-39370000D01*
X229118000Y-39370000D02*
X229748000Y-40000000D01*
X222310000Y-42660000D02*
X222310000Y-41850000D01*
X222504000Y-65997500D02*
X221022500Y-65997500D01*
X236454000Y-82296000D02*
X217424000Y-82296000D01*
X199006000Y-87376000D02*
X202184000Y-87376000D01*
X204724000Y-87376000D02*
X209804000Y-82296000D01*
X233934000Y-36576000D02*
X238708000Y-41350000D01*
X229108000Y-42672000D02*
X229108000Y-40894000D01*
X212110000Y-52220000D02*
X213430000Y-50900000D01*
X224842500Y-65997500D02*
X222504000Y-65997500D01*
X217730000Y-42290000D02*
X218160000Y-42290000D01*
X242125000Y-44045000D02*
X235775000Y-44045000D01*
X235609000Y-44045000D02*
X235775000Y-44045000D01*
X235775000Y-44045000D02*
X235775000Y-43243000D01*
%TO.N,LED-ON*%
X220726000Y-54102000D02*
X220726000Y-52578000D01*
X217424000Y-54356000D02*
X220472000Y-54356000D01*
X220472000Y-54356000D02*
X220726000Y-54102000D01*
%TO.N,LED-OFF*%
X202184000Y-50546000D02*
X204470000Y-48260000D01*
X204470000Y-48260000D02*
X220726000Y-48260000D01*
X202184000Y-54356000D02*
X202184000Y-50546000D01*
%TO.N,OUT*%
X235600000Y-68330000D02*
X229254000Y-74676000D01*
X235600000Y-48300000D02*
X235600000Y-68330000D01*
X229254000Y-74676000D02*
X217424000Y-74676000D01*
X242125000Y-46585000D02*
X237315000Y-46585000D01*
X237315000Y-46585000D02*
X235600000Y-48300000D01*
%TO.N,+5V*%
X210970000Y-49750000D02*
X224756000Y-49750000D01*
X200876000Y-82296000D02*
X200490000Y-81910000D01*
X204704000Y-82296000D02*
X205725000Y-81275000D01*
X232410000Y-37846000D02*
X237114000Y-42550000D01*
X205725000Y-54995000D02*
X210970000Y-49750000D01*
X220290000Y-45690000D02*
X220290000Y-41570000D01*
X219260000Y-46720000D02*
X220290000Y-45690000D01*
X200490000Y-50570000D02*
X204340000Y-46720000D01*
X244490000Y-42550000D02*
X244590000Y-42650000D01*
X244590000Y-49060000D02*
X244525000Y-49125000D01*
X202184000Y-82296000D02*
X204704000Y-82296000D01*
X200490000Y-81910000D02*
X200490000Y-50570000D01*
X204340000Y-46720000D02*
X219260000Y-46720000D01*
X244525000Y-49125000D02*
X242125000Y-49125000D01*
X224014000Y-37846000D02*
X232410000Y-37846000D01*
X237114000Y-42550000D02*
X244490000Y-42550000D01*
X220290000Y-41570000D02*
X224014000Y-37846000D01*
X205725000Y-81275000D02*
X205725000Y-54995000D01*
X202184000Y-82296000D02*
X200876000Y-82296000D01*
X227584000Y-66311000D02*
X225357500Y-68537500D01*
X224756000Y-49750000D02*
X227584000Y-52578000D01*
X244590000Y-42650000D02*
X244590000Y-49060000D01*
X227584000Y-52578000D02*
X227584000Y-66311000D01*
X225357500Y-68537500D02*
X222504000Y-68537500D01*
%TO.N,VIN*%
X202184000Y-89916000D02*
X198096000Y-89916000D01*
X198096000Y-89916000D02*
X196330000Y-88150000D01*
X209810000Y-43540000D02*
X213600000Y-39750000D01*
X197460000Y-43540000D02*
X209810000Y-43540000D01*
X196330000Y-88150000D02*
X196330000Y-44670000D01*
X213600000Y-39750000D02*
X217730000Y-39750000D01*
X196330000Y-44670000D02*
X197460000Y-43540000D01*
%TO.N,Net-(D1-A)*%
X231648000Y-42672000D02*
X232918000Y-43942000D01*
X232232000Y-52578000D02*
X230886000Y-52578000D01*
X232918000Y-51868000D02*
X232930000Y-51880000D01*
X232930000Y-51880000D02*
X232232000Y-52578000D01*
X232918000Y-43942000D02*
X232918000Y-51868000D01*
%TO.N,Net-(D2-A)*%
X229010000Y-48260000D02*
X230886000Y-48260000D01*
X226080000Y-42700000D02*
X228220000Y-44840000D01*
X224890000Y-42700000D02*
X226080000Y-42700000D01*
X228220000Y-44840000D02*
X228220000Y-47470000D01*
X228220000Y-47470000D02*
X229010000Y-48260000D01*
X224850000Y-42660000D02*
X224890000Y-42700000D01*
%TO.N,RX-SERIAL*%
X222504000Y-58377500D02*
X220767500Y-58377500D01*
X220767500Y-58377500D02*
X219286000Y-56896000D01*
X219286000Y-56896000D02*
X217424000Y-56896000D01*
%TO.N,TX-SERIAL*%
X221445500Y-60917500D02*
X219964000Y-59436000D01*
X222504000Y-60917500D02*
X221445500Y-60917500D01*
X219964000Y-59436000D02*
X217424000Y-59436000D01*
%TO.N,Net-(ANT1-Pin_2)*%
X242125000Y-88335000D02*
X242125000Y-86640000D01*
X237744000Y-91397500D02*
X239062500Y-91397500D01*
X239062500Y-91397500D02*
X242125000Y-88335000D01*
%TO.N,Net-(ANT1-Pin_1)*%
X237744000Y-88857500D02*
X237744000Y-85131000D01*
X238775000Y-84100000D02*
X242125000Y-84100000D01*
X237744000Y-85131000D02*
X238775000Y-84100000D01*
%TO.N,Net-(DC-9V1-Pin_1)*%
X202910000Y-45770000D02*
X203850000Y-44830000D01*
X202890000Y-45750000D02*
X202910000Y-45770000D01*
X199136000Y-45750000D02*
X202890000Y-45750000D01*
X198370000Y-51303000D02*
X198370000Y-46516000D01*
X203850000Y-44830000D02*
X217730000Y-44830000D01*
X198370000Y-46516000D02*
X199136000Y-45750000D01*
%TD*%
M02*
