%TF.GenerationSoftware,KiCad,Pcbnew,7.0.7*%
%TF.CreationDate,2024-02-13T22:49:07-05:00*%
%TF.ProjectId,ControlAcceso,436f6e74-726f-46c4-9163-6365736f2e6b,rev?*%
%TF.SameCoordinates,Original*%
%TF.FileFunction,Copper,L1,Top*%
%TF.FilePolarity,Positive*%
%FSLAX46Y46*%
G04 Gerber Fmt 4.6, Leading zero omitted, Abs format (unit mm)*
G04 Created by KiCad (PCBNEW 7.0.7) date 2024-02-13 22:49:07*
%MOMM*%
%LPD*%
G01*
G04 APERTURE LIST*
G04 Aperture macros list*
%AMRoundRect*
0 Rectangle with rounded corners*
0 $1 Rounding radius*
0 $2 $3 $4 $5 $6 $7 $8 $9 X,Y pos of 4 corners*
0 Add a 4 corners polygon primitive as box body*
4,1,4,$2,$3,$4,$5,$6,$7,$8,$9,$2,$3,0*
0 Add four circle primitives for the rounded corners*
1,1,$1+$1,$2,$3*
1,1,$1+$1,$4,$5*
1,1,$1+$1,$6,$7*
1,1,$1+$1,$8,$9*
0 Add four rect primitives between the rounded corners*
20,1,$1+$1,$2,$3,$4,$5,0*
20,1,$1+$1,$4,$5,$6,$7,0*
20,1,$1+$1,$6,$7,$8,$9,0*
20,1,$1+$1,$8,$9,$2,$3,0*%
G04 Aperture macros list end*
%TA.AperFunction,ComponentPad*%
%ADD10R,1.730000X2.030000*%
%TD*%
%TA.AperFunction,ComponentPad*%
%ADD11O,1.730000X2.030000*%
%TD*%
%TA.AperFunction,ComponentPad*%
%ADD12C,3.500000*%
%TD*%
%TA.AperFunction,ComponentPad*%
%ADD13C,1.600000*%
%TD*%
%TA.AperFunction,ComponentPad*%
%ADD14O,1.600000X1.600000*%
%TD*%
%TA.AperFunction,ComponentPad*%
%ADD15R,1.800000X1.800000*%
%TD*%
%TA.AperFunction,ComponentPad*%
%ADD16C,1.800000*%
%TD*%
%TA.AperFunction,ComponentPad*%
%ADD17R,1.600000X1.600000*%
%TD*%
%TA.AperFunction,ComponentPad*%
%ADD18RoundRect,0.250000X-0.620000X-0.620000X0.620000X-0.620000X0.620000X0.620000X-0.620000X0.620000X0*%
%TD*%
%TA.AperFunction,ComponentPad*%
%ADD19C,1.740000*%
%TD*%
G04 APERTURE END LIST*
D10*
%TO.P,Salida1,1,Pin_1*%
%TO.N,+5V*%
X234188000Y-88900000D03*
D11*
%TO.P,Salida1,2,Pin_2*%
%TO.N,Net-(Salida1-Pin_2)*%
X231648000Y-88900000D03*
%TO.P,Salida1,3,Pin_3*%
%TO.N,GND*%
X229108000Y-88900000D03*
%TD*%
D12*
%TO.P,,1*%
%TO.N,N/C*%
X197866000Y-92456000D03*
%TD*%
%TO.P,,1*%
%TO.N,N/C*%
X197866000Y-39370000D03*
%TD*%
D13*
%TO.P,R1,1*%
%TO.N,Net-(D2-A)*%
X240284000Y-50292000D03*
D14*
%TO.P,R1,2*%
%TO.N,LED-OFF*%
X230124000Y-50292000D03*
%TD*%
D13*
%TO.P,R3,1*%
%TO.N,Net-(Salida1-Pin_2)*%
X240284000Y-80010000D03*
D14*
%TO.P,R3,2*%
%TO.N,OUT*%
X230124000Y-80010000D03*
%TD*%
D15*
%TO.P,D1,1,K*%
%TO.N,GND*%
X240030000Y-59436000D03*
D16*
%TO.P,D1,2,A*%
%TO.N,Net-(D1-A)*%
X240030000Y-56896000D03*
%TD*%
D17*
%TO.P,A1,1,D1/TX*%
%TO.N,unconnected-(A1-D1{slash}TX-Pad1)*%
X223510000Y-80010000D03*
D14*
%TO.P,A1,2,D0/RX*%
%TO.N,unconnected-(A1-D0{slash}RX-Pad2)*%
X223510000Y-77470000D03*
%TO.P,A1,3,~{RESET}*%
%TO.N,unconnected-(A1-~{RESET}-Pad3)*%
X223510000Y-74930000D03*
%TO.P,A1,4,GND*%
%TO.N,GND*%
X223510000Y-72390000D03*
%TO.P,A1,5,D2*%
%TO.N,LED-ON*%
X223510000Y-69850000D03*
%TO.P,A1,6,D3*%
%TO.N,LED-OFF*%
X223510000Y-67310000D03*
%TO.P,A1,7,D4*%
%TO.N,OUT*%
X223510000Y-64770000D03*
%TO.P,A1,8,D5*%
%TO.N,unconnected-(A1-D5-Pad8)*%
X223510000Y-62230000D03*
%TO.P,A1,9,D6*%
%TO.N,unconnected-(A1-D6-Pad9)*%
X223510000Y-59690000D03*
%TO.P,A1,10,D7*%
%TO.N,unconnected-(A1-D7-Pad10)*%
X223510000Y-57150000D03*
%TO.P,A1,11,D8*%
%TO.N,unconnected-(A1-D8-Pad11)*%
X223510000Y-54610000D03*
%TO.P,A1,12,D9*%
%TO.N,RST*%
X223510000Y-52070000D03*
%TO.P,A1,13,D10*%
%TO.N,SPI*%
X223510000Y-49530000D03*
%TO.P,A1,14,D11*%
%TO.N,MOSI*%
X223510000Y-46990000D03*
%TO.P,A1,15,D12*%
%TO.N,MISO*%
X223510000Y-44450000D03*
%TO.P,A1,16,D13*%
%TO.N,SCK*%
X208270000Y-44450000D03*
%TO.P,A1,17,3V3*%
%TO.N,3V3*%
X208270000Y-46990000D03*
%TO.P,A1,18,AREF*%
%TO.N,unconnected-(A1-AREF-Pad18)*%
X208270000Y-49530000D03*
%TO.P,A1,19,A0*%
%TO.N,unconnected-(A1-A0-Pad19)*%
X208270000Y-52070000D03*
%TO.P,A1,20,A1*%
%TO.N,unconnected-(A1-A1-Pad20)*%
X208270000Y-54610000D03*
%TO.P,A1,21,A2*%
%TO.N,unconnected-(A1-A2-Pad21)*%
X208270000Y-57150000D03*
%TO.P,A1,22,A3*%
%TO.N,unconnected-(A1-A3-Pad22)*%
X208270000Y-59690000D03*
%TO.P,A1,23,A4*%
%TO.N,unconnected-(A1-A4-Pad23)*%
X208270000Y-62230000D03*
%TO.P,A1,24,A5*%
%TO.N,unconnected-(A1-A5-Pad24)*%
X208270000Y-64770000D03*
%TO.P,A1,25,A6*%
%TO.N,unconnected-(A1-A6-Pad25)*%
X208270000Y-67310000D03*
%TO.P,A1,26,A7*%
%TO.N,unconnected-(A1-A7-Pad26)*%
X208270000Y-69850000D03*
%TO.P,A1,27,+5V*%
%TO.N,+5V*%
X208270000Y-72390000D03*
%TO.P,A1,28,~{RESET}*%
%TO.N,unconnected-(A1-~{RESET}-Pad28)*%
X208270000Y-74930000D03*
%TO.P,A1,29,GND*%
%TO.N,GND*%
X208270000Y-77470000D03*
%TO.P,A1,30,VIN*%
%TO.N,VIN*%
X208270000Y-80010000D03*
%TD*%
D12*
%TO.P,,1*%
%TO.N,N/C*%
X241808000Y-38862000D03*
%TD*%
D18*
%TO.P,RFID1,1,Pin_1*%
%TO.N,3V3*%
X208534000Y-88900000D03*
D19*
%TO.P,RFID1,2,Pin_2*%
%TO.N,RST*%
X211074000Y-88900000D03*
%TO.P,RFID1,3,Pin_3*%
%TO.N,SPI*%
X213614000Y-88900000D03*
%TO.P,RFID1,4,Pin_4*%
%TO.N,MOSI*%
X216154000Y-88900000D03*
%TO.P,RFID1,5,Pin_5*%
%TO.N,MISO*%
X218694000Y-88900000D03*
%TO.P,RFID1,6,Pin_6*%
%TO.N,SCK*%
X221234000Y-88900000D03*
%TO.P,RFID1,7,Pin_7*%
%TO.N,GND*%
X223774000Y-88900000D03*
%TD*%
D13*
%TO.P,R2,1*%
%TO.N,LED-ON*%
X230124000Y-43942000D03*
D14*
%TO.P,R2,2*%
%TO.N,Net-(D1-A)*%
X240284000Y-43942000D03*
%TD*%
D15*
%TO.P,D2,1,K*%
%TO.N,GND*%
X230632000Y-59436000D03*
D16*
%TO.P,D2,2,A*%
%TO.N,Net-(D2-A)*%
X230632000Y-56896000D03*
%TD*%
D12*
%TO.P,,1*%
%TO.N,N/C*%
X241808000Y-92456000D03*
%TD*%
M02*
